G04 #@! TF.GenerationSoftware,KiCad,Pcbnew,(5.1.2)-1*
G04 #@! TF.CreationDate,2020-11-05T23:01:01+01:00*
G04 #@! TF.ProjectId,szakdolgozat,737a616b-646f-46c6-976f-7a61742e6b69,rev?*
G04 #@! TF.SameCoordinates,Original*
G04 #@! TF.FileFunction,Legend,Bot*
G04 #@! TF.FilePolarity,Positive*
%FSLAX46Y46*%
G04 Gerber Fmt 4.6, Leading zero omitted, Abs format (unit mm)*
G04 Created by KiCad (PCBNEW (5.1.2)-1) date 2020-11-05 23:01:01*
%MOMM*%
%LPD*%
G04 APERTURE LIST*
%ADD10C,0.120000*%
%ADD11C,0.150000*%
G04 APERTURE END LIST*
D10*
X133656000Y-84030452D02*
X133656000Y-83507948D01*
X135076000Y-84030452D02*
X135076000Y-83507948D01*
X162694252Y-56818600D02*
X162171748Y-56818600D01*
X162694252Y-55398600D02*
X162171748Y-55398600D01*
X162694252Y-57684600D02*
X162171748Y-57684600D01*
X162694252Y-59104600D02*
X162171748Y-59104600D01*
D11*
X134532666Y-81535542D02*
X134580285Y-81583161D01*
X134723142Y-81630780D01*
X134818380Y-81630780D01*
X134961238Y-81583161D01*
X135056476Y-81487923D01*
X135104095Y-81392685D01*
X135151714Y-81202209D01*
X135151714Y-81059352D01*
X135104095Y-80868876D01*
X135056476Y-80773638D01*
X134961238Y-80678400D01*
X134818380Y-80630780D01*
X134723142Y-80630780D01*
X134580285Y-80678400D01*
X134532666Y-80726019D01*
X133580285Y-81630780D02*
X134151714Y-81630780D01*
X133866000Y-81630780D02*
X133866000Y-80630780D01*
X133961238Y-80773638D01*
X134056476Y-80868876D01*
X134151714Y-80916495D01*
X163075857Y-54815742D02*
X163123476Y-54863361D01*
X163266333Y-54910980D01*
X163361571Y-54910980D01*
X163504428Y-54863361D01*
X163599666Y-54768123D01*
X163647285Y-54672885D01*
X163694904Y-54482409D01*
X163694904Y-54339552D01*
X163647285Y-54149076D01*
X163599666Y-54053838D01*
X163504428Y-53958600D01*
X163361571Y-53910980D01*
X163266333Y-53910980D01*
X163123476Y-53958600D01*
X163075857Y-54006219D01*
X162123476Y-54910980D02*
X162694904Y-54910980D01*
X162409190Y-54910980D02*
X162409190Y-53910980D01*
X162504428Y-54053838D01*
X162599666Y-54149076D01*
X162694904Y-54196695D01*
X161171095Y-54910980D02*
X161742523Y-54910980D01*
X161456809Y-54910980D02*
X161456809Y-53910980D01*
X161552047Y-54053838D01*
X161647285Y-54149076D01*
X161742523Y-54196695D01*
X163050457Y-60555142D02*
X163098076Y-60602761D01*
X163240933Y-60650380D01*
X163336171Y-60650380D01*
X163479028Y-60602761D01*
X163574266Y-60507523D01*
X163621885Y-60412285D01*
X163669504Y-60221809D01*
X163669504Y-60078952D01*
X163621885Y-59888476D01*
X163574266Y-59793238D01*
X163479028Y-59698000D01*
X163336171Y-59650380D01*
X163240933Y-59650380D01*
X163098076Y-59698000D01*
X163050457Y-59745619D01*
X162098076Y-60650380D02*
X162669504Y-60650380D01*
X162383790Y-60650380D02*
X162383790Y-59650380D01*
X162479028Y-59793238D01*
X162574266Y-59888476D01*
X162669504Y-59936095D01*
X161717123Y-59745619D02*
X161669504Y-59698000D01*
X161574266Y-59650380D01*
X161336171Y-59650380D01*
X161240933Y-59698000D01*
X161193314Y-59745619D01*
X161145695Y-59840857D01*
X161145695Y-59936095D01*
X161193314Y-60078952D01*
X161764742Y-60650380D01*
X161145695Y-60650380D01*
M02*
