G04 #@! TF.GenerationSoftware,KiCad,Pcbnew,(5.1.2)-1*
G04 #@! TF.CreationDate,2020-11-05T23:01:01+01:00*
G04 #@! TF.ProjectId,szakdolgozat,737a616b-646f-46c6-976f-7a61742e6b69,rev?*
G04 #@! TF.SameCoordinates,Original*
G04 #@! TF.FileFunction,Soldermask,Top*
G04 #@! TF.FilePolarity,Negative*
%FSLAX46Y46*%
G04 Gerber Fmt 4.6, Leading zero omitted, Abs format (unit mm)*
G04 Created by KiCad (PCBNEW (5.1.2)-1) date 2020-11-05 23:01:01*
%MOMM*%
%LPD*%
G04 APERTURE LIST*
%ADD10C,0.100000*%
G04 APERTURE END LIST*
D10*
G36*
X133236457Y-117510745D02*
G01*
X133448975Y-117553017D01*
X134049538Y-117801779D01*
X134590027Y-118162922D01*
X135049678Y-118622573D01*
X135410821Y-119163062D01*
X135659583Y-119763625D01*
X135786400Y-120401180D01*
X135786400Y-121051220D01*
X135659583Y-121688775D01*
X135410821Y-122289338D01*
X135049678Y-122829827D01*
X134590027Y-123289478D01*
X134049538Y-123650621D01*
X133448975Y-123899383D01*
X133236457Y-123941655D01*
X132811422Y-124026200D01*
X132161378Y-124026200D01*
X131736343Y-123941655D01*
X131523825Y-123899383D01*
X130923262Y-123650621D01*
X130382773Y-123289478D01*
X129923122Y-122829827D01*
X129561979Y-122289338D01*
X129313217Y-121688775D01*
X129186400Y-121051220D01*
X129186400Y-120401180D01*
X129313217Y-119763625D01*
X129561979Y-119163062D01*
X129923122Y-118622573D01*
X130382773Y-118162922D01*
X130923262Y-117801779D01*
X131523825Y-117553017D01*
X131736343Y-117510745D01*
X132161378Y-117426200D01*
X132811422Y-117426200D01*
X133236457Y-117510745D01*
X133236457Y-117510745D01*
G37*
G36*
X220333057Y-117104345D02*
G01*
X220545575Y-117146617D01*
X221146138Y-117395379D01*
X221686627Y-117756522D01*
X222146278Y-118216173D01*
X222507421Y-118756662D01*
X222756183Y-119357225D01*
X222883000Y-119994780D01*
X222883000Y-120644820D01*
X222756183Y-121282375D01*
X222507421Y-121882938D01*
X222146278Y-122423427D01*
X221686627Y-122883078D01*
X221146138Y-123244221D01*
X220545575Y-123492983D01*
X220333057Y-123535255D01*
X219908022Y-123619800D01*
X219257978Y-123619800D01*
X218832943Y-123535255D01*
X218620425Y-123492983D01*
X218019862Y-123244221D01*
X217479373Y-122883078D01*
X217019722Y-122423427D01*
X216658579Y-121882938D01*
X216409817Y-121282375D01*
X216283000Y-120644820D01*
X216283000Y-119994780D01*
X216409817Y-119357225D01*
X216658579Y-118756662D01*
X217019722Y-118216173D01*
X217479373Y-117756522D01*
X218019862Y-117395379D01*
X218620425Y-117146617D01*
X218832943Y-117104345D01*
X219257978Y-117019800D01*
X219908022Y-117019800D01*
X220333057Y-117104345D01*
X220333057Y-117104345D01*
G37*
G36*
X142001225Y-105221095D02*
G01*
X142337906Y-105360552D01*
X142640906Y-105563011D01*
X142898589Y-105820694D01*
X143101048Y-106123694D01*
X143240505Y-106460375D01*
X143311600Y-106817792D01*
X143311600Y-107182208D01*
X143240505Y-107539625D01*
X143101048Y-107876306D01*
X142898589Y-108179306D01*
X142640906Y-108436989D01*
X142337906Y-108639448D01*
X142001225Y-108778905D01*
X141643809Y-108850000D01*
X141279391Y-108850000D01*
X140921975Y-108778905D01*
X140585294Y-108639448D01*
X140282294Y-108436989D01*
X140024611Y-108179306D01*
X139822152Y-107876306D01*
X139682695Y-107539625D01*
X139611600Y-107182208D01*
X139611600Y-106817792D01*
X139682695Y-106460375D01*
X139822152Y-106123694D01*
X140024611Y-105820694D01*
X140282294Y-105563011D01*
X140585294Y-105360552D01*
X140921975Y-105221095D01*
X141279391Y-105150000D01*
X141643809Y-105150000D01*
X142001225Y-105221095D01*
X142001225Y-105221095D01*
G37*
G36*
X215311600Y-108850000D02*
G01*
X211611600Y-108850000D01*
X211611600Y-105150000D01*
X215311600Y-105150000D01*
X215311600Y-108850000D01*
X215311600Y-108850000D01*
G37*
G36*
X149702472Y-105365330D02*
G01*
X150011852Y-105493479D01*
X150290287Y-105679523D01*
X150527077Y-105916313D01*
X150713121Y-106194748D01*
X150841270Y-106504128D01*
X150906600Y-106832565D01*
X150906600Y-107167435D01*
X150841270Y-107495872D01*
X150713121Y-107805252D01*
X150527077Y-108083687D01*
X150290287Y-108320477D01*
X150011852Y-108506521D01*
X149702472Y-108634670D01*
X149374035Y-108700000D01*
X149039165Y-108700000D01*
X148710728Y-108634670D01*
X148401348Y-108506521D01*
X148122913Y-108320477D01*
X147886123Y-108083687D01*
X147700079Y-107805252D01*
X147571930Y-107495872D01*
X147506600Y-107167435D01*
X147506600Y-106832565D01*
X147571930Y-106504128D01*
X147700079Y-106194748D01*
X147886123Y-105916313D01*
X148122913Y-105679523D01*
X148401348Y-105493479D01*
X148710728Y-105365330D01*
X149039165Y-105300000D01*
X149374035Y-105300000D01*
X149702472Y-105365330D01*
X149702472Y-105365330D01*
G37*
G36*
X205312472Y-105365330D02*
G01*
X205621852Y-105493479D01*
X205900287Y-105679523D01*
X206137077Y-105916313D01*
X206323121Y-106194748D01*
X206451270Y-106504128D01*
X206516600Y-106832565D01*
X206516600Y-107167435D01*
X206451270Y-107495872D01*
X206323121Y-107805252D01*
X206137077Y-108083687D01*
X205900287Y-108320477D01*
X205621852Y-108506521D01*
X205312472Y-108634670D01*
X204984035Y-108700000D01*
X204649165Y-108700000D01*
X204320728Y-108634670D01*
X204011348Y-108506521D01*
X203732913Y-108320477D01*
X203496123Y-108083687D01*
X203310079Y-107805252D01*
X203181930Y-107495872D01*
X203116600Y-107167435D01*
X203116600Y-106832565D01*
X203181930Y-106504128D01*
X203310079Y-106194748D01*
X203496123Y-105916313D01*
X203732913Y-105679523D01*
X204011348Y-105493479D01*
X204320728Y-105365330D01*
X204649165Y-105300000D01*
X204984035Y-105300000D01*
X205312472Y-105365330D01*
X205312472Y-105365330D01*
G37*
G36*
X197577258Y-92284873D02*
G01*
X197777448Y-92367794D01*
X197957609Y-92488174D01*
X198110826Y-92641391D01*
X198231206Y-92821552D01*
X198231207Y-92821555D01*
X198314127Y-93021742D01*
X198348593Y-93195010D01*
X198356400Y-93234261D01*
X198356400Y-93450939D01*
X198314127Y-93663458D01*
X198231206Y-93863648D01*
X198110826Y-94043809D01*
X197957609Y-94197026D01*
X197777448Y-94317406D01*
X197577258Y-94400327D01*
X197364741Y-94442600D01*
X197148059Y-94442600D01*
X196935542Y-94400327D01*
X196735352Y-94317406D01*
X196555191Y-94197026D01*
X196401974Y-94043809D01*
X196281594Y-93863648D01*
X196198673Y-93663458D01*
X196156400Y-93450939D01*
X196156400Y-93234261D01*
X196164208Y-93195010D01*
X196198673Y-93021742D01*
X196281593Y-92821555D01*
X196281594Y-92821552D01*
X196401974Y-92641391D01*
X196555191Y-92488174D01*
X196735352Y-92367794D01*
X196935542Y-92284873D01*
X197148059Y-92242600D01*
X197364741Y-92242600D01*
X197577258Y-92284873D01*
X197577258Y-92284873D01*
G37*
G36*
X193077258Y-92284873D02*
G01*
X193277448Y-92367794D01*
X193457609Y-92488174D01*
X193610826Y-92641391D01*
X193731206Y-92821552D01*
X193731207Y-92821555D01*
X193814127Y-93021742D01*
X193848593Y-93195010D01*
X193856400Y-93234261D01*
X193856400Y-93450939D01*
X193814127Y-93663458D01*
X193731206Y-93863648D01*
X193610826Y-94043809D01*
X193457609Y-94197026D01*
X193277448Y-94317406D01*
X193077258Y-94400327D01*
X192864741Y-94442600D01*
X192648059Y-94442600D01*
X192435542Y-94400327D01*
X192235352Y-94317406D01*
X192055191Y-94197026D01*
X191901974Y-94043809D01*
X191781594Y-93863648D01*
X191698673Y-93663458D01*
X191656400Y-93450939D01*
X191656400Y-93234261D01*
X191664208Y-93195010D01*
X191698673Y-93021742D01*
X191781593Y-92821555D01*
X191781594Y-92821552D01*
X191901974Y-92641391D01*
X192055191Y-92488174D01*
X192235352Y-92367794D01*
X192435542Y-92284873D01*
X192648059Y-92242600D01*
X192864741Y-92242600D01*
X193077258Y-92284873D01*
X193077258Y-92284873D01*
G37*
G36*
X141865626Y-91711981D02*
G01*
X141912661Y-91726249D01*
X141956010Y-91749419D01*
X141994002Y-91780598D01*
X142025181Y-91818590D01*
X142048351Y-91861939D01*
X142062619Y-91908974D01*
X142067800Y-91961574D01*
X142067800Y-93052026D01*
X142062619Y-93104626D01*
X142048351Y-93151661D01*
X142025181Y-93195010D01*
X141994002Y-93233002D01*
X141956010Y-93264181D01*
X141912661Y-93287351D01*
X141865626Y-93301619D01*
X141813026Y-93306800D01*
X140972574Y-93306800D01*
X140919974Y-93301619D01*
X140872939Y-93287351D01*
X140829590Y-93264181D01*
X140791598Y-93233002D01*
X140760419Y-93195010D01*
X140737249Y-93151661D01*
X140722981Y-93104626D01*
X140717800Y-93052026D01*
X140717800Y-91961574D01*
X140722981Y-91908974D01*
X140737249Y-91861939D01*
X140760419Y-91818590D01*
X140791598Y-91780598D01*
X140829590Y-91749419D01*
X140872939Y-91726249D01*
X140919974Y-91711981D01*
X140972574Y-91706800D01*
X141813026Y-91706800D01*
X141865626Y-91711981D01*
X141865626Y-91711981D01*
G37*
G36*
X143915626Y-91711981D02*
G01*
X143962661Y-91726249D01*
X144006010Y-91749419D01*
X144044002Y-91780598D01*
X144075181Y-91818590D01*
X144098351Y-91861939D01*
X144112619Y-91908974D01*
X144117800Y-91961574D01*
X144117800Y-93052026D01*
X144112619Y-93104626D01*
X144098351Y-93151661D01*
X144075181Y-93195010D01*
X144044002Y-93233002D01*
X144006010Y-93264181D01*
X143962661Y-93287351D01*
X143915626Y-93301619D01*
X143863026Y-93306800D01*
X143022574Y-93306800D01*
X142969974Y-93301619D01*
X142922939Y-93287351D01*
X142879590Y-93264181D01*
X142841598Y-93233002D01*
X142810419Y-93195010D01*
X142787249Y-93151661D01*
X142772981Y-93104626D01*
X142767800Y-93052026D01*
X142767800Y-91961574D01*
X142772981Y-91908974D01*
X142787249Y-91861939D01*
X142810419Y-91818590D01*
X142841598Y-91780598D01*
X142879590Y-91749419D01*
X142922939Y-91726249D01*
X142969974Y-91711981D01*
X143022574Y-91706800D01*
X143863026Y-91706800D01*
X143915626Y-91711981D01*
X143915626Y-91711981D01*
G37*
G36*
X165164426Y-90474381D02*
G01*
X165211461Y-90488649D01*
X165254810Y-90511819D01*
X165292802Y-90542998D01*
X165323981Y-90580990D01*
X165347151Y-90624339D01*
X165361419Y-90671374D01*
X165366600Y-90723974D01*
X165366600Y-91564426D01*
X165361419Y-91617026D01*
X165347151Y-91664061D01*
X165323981Y-91707410D01*
X165292802Y-91745402D01*
X165254810Y-91776581D01*
X165211461Y-91799751D01*
X165164426Y-91814019D01*
X165111826Y-91819200D01*
X164021374Y-91819200D01*
X163968774Y-91814019D01*
X163921739Y-91799751D01*
X163878390Y-91776581D01*
X163840398Y-91745402D01*
X163809219Y-91707410D01*
X163786049Y-91664061D01*
X163771781Y-91617026D01*
X163766600Y-91564426D01*
X163766600Y-90723974D01*
X163771781Y-90671374D01*
X163786049Y-90624339D01*
X163809219Y-90580990D01*
X163840398Y-90542998D01*
X163878390Y-90511819D01*
X163921739Y-90488649D01*
X163968774Y-90474381D01*
X164021374Y-90469200D01*
X165111826Y-90469200D01*
X165164426Y-90474381D01*
X165164426Y-90474381D01*
G37*
G36*
X180404426Y-90474381D02*
G01*
X180451461Y-90488649D01*
X180494810Y-90511819D01*
X180532802Y-90542998D01*
X180563981Y-90580990D01*
X180587151Y-90624339D01*
X180601419Y-90671374D01*
X180606600Y-90723974D01*
X180606600Y-91564426D01*
X180601419Y-91617026D01*
X180587151Y-91664061D01*
X180563981Y-91707410D01*
X180532802Y-91745402D01*
X180494810Y-91776581D01*
X180451461Y-91799751D01*
X180404426Y-91814019D01*
X180351826Y-91819200D01*
X179261374Y-91819200D01*
X179208774Y-91814019D01*
X179161739Y-91799751D01*
X179118390Y-91776581D01*
X179080398Y-91745402D01*
X179049219Y-91707410D01*
X179026049Y-91664061D01*
X179011781Y-91617026D01*
X179006600Y-91564426D01*
X179006600Y-90723974D01*
X179011781Y-90671374D01*
X179026049Y-90624339D01*
X179049219Y-90580990D01*
X179080398Y-90542998D01*
X179118390Y-90511819D01*
X179161739Y-90488649D01*
X179208774Y-90474381D01*
X179261374Y-90469200D01*
X180351826Y-90469200D01*
X180404426Y-90474381D01*
X180404426Y-90474381D01*
G37*
G36*
X167704426Y-90474381D02*
G01*
X167751461Y-90488649D01*
X167794810Y-90511819D01*
X167832802Y-90542998D01*
X167863981Y-90580990D01*
X167887151Y-90624339D01*
X167901419Y-90671374D01*
X167906600Y-90723974D01*
X167906600Y-91564426D01*
X167901419Y-91617026D01*
X167887151Y-91664061D01*
X167863981Y-91707410D01*
X167832802Y-91745402D01*
X167794810Y-91776581D01*
X167751461Y-91799751D01*
X167704426Y-91814019D01*
X167651826Y-91819200D01*
X166561374Y-91819200D01*
X166508774Y-91814019D01*
X166461739Y-91799751D01*
X166418390Y-91776581D01*
X166380398Y-91745402D01*
X166349219Y-91707410D01*
X166326049Y-91664061D01*
X166311781Y-91617026D01*
X166306600Y-91564426D01*
X166306600Y-90723974D01*
X166311781Y-90671374D01*
X166326049Y-90624339D01*
X166349219Y-90580990D01*
X166380398Y-90542998D01*
X166418390Y-90511819D01*
X166461739Y-90488649D01*
X166508774Y-90474381D01*
X166561374Y-90469200D01*
X167651826Y-90469200D01*
X167704426Y-90474381D01*
X167704426Y-90474381D01*
G37*
G36*
X170020300Y-90374360D02*
G01*
X170067136Y-90388567D01*
X170110289Y-90411633D01*
X170148120Y-90442680D01*
X170179167Y-90480511D01*
X170202233Y-90523664D01*
X170216440Y-90570500D01*
X170221600Y-90622886D01*
X170221600Y-91365514D01*
X170216440Y-91417900D01*
X170202233Y-91464736D01*
X170179167Y-91507889D01*
X170148120Y-91545720D01*
X170110289Y-91576767D01*
X170067136Y-91599833D01*
X170020300Y-91614040D01*
X169967914Y-91619200D01*
X169325286Y-91619200D01*
X169272900Y-91614040D01*
X169226064Y-91599833D01*
X169182911Y-91576767D01*
X169145080Y-91545720D01*
X169114033Y-91507889D01*
X169090967Y-91464736D01*
X169076760Y-91417900D01*
X169071600Y-91365514D01*
X169071600Y-90622886D01*
X169076760Y-90570500D01*
X169090967Y-90523664D01*
X169114033Y-90480511D01*
X169145080Y-90442680D01*
X169182911Y-90411633D01*
X169226064Y-90388567D01*
X169272900Y-90374360D01*
X169325286Y-90369200D01*
X169967914Y-90369200D01*
X170020300Y-90374360D01*
X170020300Y-90374360D01*
G37*
G36*
X185260300Y-90374360D02*
G01*
X185307136Y-90388567D01*
X185350289Y-90411633D01*
X185388120Y-90442680D01*
X185419167Y-90480511D01*
X185442233Y-90523664D01*
X185456440Y-90570500D01*
X185461600Y-90622886D01*
X185461600Y-91365514D01*
X185456440Y-91417900D01*
X185442233Y-91464736D01*
X185419167Y-91507889D01*
X185388120Y-91545720D01*
X185350289Y-91576767D01*
X185307136Y-91599833D01*
X185260300Y-91614040D01*
X185207914Y-91619200D01*
X184565286Y-91619200D01*
X184512900Y-91614040D01*
X184466064Y-91599833D01*
X184422911Y-91576767D01*
X184385080Y-91545720D01*
X184354033Y-91507889D01*
X184330967Y-91464736D01*
X184316760Y-91417900D01*
X184311600Y-91365514D01*
X184311600Y-90622886D01*
X184316760Y-90570500D01*
X184330967Y-90523664D01*
X184354033Y-90480511D01*
X184385080Y-90442680D01*
X184422911Y-90411633D01*
X184466064Y-90388567D01*
X184512900Y-90374360D01*
X184565286Y-90369200D01*
X185207914Y-90369200D01*
X185260300Y-90374360D01*
X185260300Y-90374360D01*
G37*
G36*
X182720300Y-90374360D02*
G01*
X182767136Y-90388567D01*
X182810289Y-90411633D01*
X182848120Y-90442680D01*
X182879167Y-90480511D01*
X182902233Y-90523664D01*
X182916440Y-90570500D01*
X182921600Y-90622886D01*
X182921600Y-91365514D01*
X182916440Y-91417900D01*
X182902233Y-91464736D01*
X182879167Y-91507889D01*
X182848120Y-91545720D01*
X182810289Y-91576767D01*
X182767136Y-91599833D01*
X182720300Y-91614040D01*
X182667914Y-91619200D01*
X182025286Y-91619200D01*
X181972900Y-91614040D01*
X181926064Y-91599833D01*
X181882911Y-91576767D01*
X181845080Y-91545720D01*
X181814033Y-91507889D01*
X181790967Y-91464736D01*
X181776760Y-91417900D01*
X181771600Y-91365514D01*
X181771600Y-90622886D01*
X181776760Y-90570500D01*
X181790967Y-90523664D01*
X181814033Y-90480511D01*
X181845080Y-90442680D01*
X181882911Y-90411633D01*
X181926064Y-90388567D01*
X181972900Y-90374360D01*
X182025286Y-90369200D01*
X182667914Y-90369200D01*
X182720300Y-90374360D01*
X182720300Y-90374360D01*
G37*
G36*
X175125700Y-90374360D02*
G01*
X175172536Y-90388567D01*
X175215689Y-90411633D01*
X175253520Y-90442680D01*
X175284567Y-90480511D01*
X175307633Y-90523664D01*
X175321840Y-90570500D01*
X175327000Y-90622886D01*
X175327000Y-91365514D01*
X175321840Y-91417900D01*
X175307633Y-91464736D01*
X175284567Y-91507889D01*
X175253520Y-91545720D01*
X175215689Y-91576767D01*
X175172536Y-91599833D01*
X175125700Y-91614040D01*
X175073314Y-91619200D01*
X174430686Y-91619200D01*
X174378300Y-91614040D01*
X174331464Y-91599833D01*
X174288311Y-91576767D01*
X174250480Y-91545720D01*
X174219433Y-91507889D01*
X174196367Y-91464736D01*
X174182160Y-91417900D01*
X174177000Y-91365514D01*
X174177000Y-90622886D01*
X174182160Y-90570500D01*
X174196367Y-90523664D01*
X174219433Y-90480511D01*
X174250480Y-90442680D01*
X174288311Y-90411633D01*
X174331464Y-90388567D01*
X174378300Y-90374360D01*
X174430686Y-90369200D01*
X175073314Y-90369200D01*
X175125700Y-90374360D01*
X175125700Y-90374360D01*
G37*
G36*
X172560300Y-90374360D02*
G01*
X172607136Y-90388567D01*
X172650289Y-90411633D01*
X172688120Y-90442680D01*
X172719167Y-90480511D01*
X172742233Y-90523664D01*
X172756440Y-90570500D01*
X172761600Y-90622886D01*
X172761600Y-91365514D01*
X172756440Y-91417900D01*
X172742233Y-91464736D01*
X172719167Y-91507889D01*
X172688120Y-91545720D01*
X172650289Y-91576767D01*
X172607136Y-91599833D01*
X172560300Y-91614040D01*
X172507914Y-91619200D01*
X171865286Y-91619200D01*
X171812900Y-91614040D01*
X171766064Y-91599833D01*
X171722911Y-91576767D01*
X171685080Y-91545720D01*
X171654033Y-91507889D01*
X171630967Y-91464736D01*
X171616760Y-91417900D01*
X171611600Y-91365514D01*
X171611600Y-90622886D01*
X171616760Y-90570500D01*
X171630967Y-90523664D01*
X171654033Y-90480511D01*
X171685080Y-90442680D01*
X171722911Y-90411633D01*
X171766064Y-90388567D01*
X171812900Y-90374360D01*
X171865286Y-90369200D01*
X172507914Y-90369200D01*
X172560300Y-90374360D01*
X172560300Y-90374360D01*
G37*
G36*
X177640300Y-90374360D02*
G01*
X177687136Y-90388567D01*
X177730289Y-90411633D01*
X177768120Y-90442680D01*
X177799167Y-90480511D01*
X177822233Y-90523664D01*
X177836440Y-90570500D01*
X177841600Y-90622886D01*
X177841600Y-91365514D01*
X177836440Y-91417900D01*
X177822233Y-91464736D01*
X177799167Y-91507889D01*
X177768120Y-91545720D01*
X177730289Y-91576767D01*
X177687136Y-91599833D01*
X177640300Y-91614040D01*
X177587914Y-91619200D01*
X176945286Y-91619200D01*
X176892900Y-91614040D01*
X176846064Y-91599833D01*
X176802911Y-91576767D01*
X176765080Y-91545720D01*
X176734033Y-91507889D01*
X176710967Y-91464736D01*
X176696760Y-91417900D01*
X176691600Y-91365514D01*
X176691600Y-90622886D01*
X176696760Y-90570500D01*
X176710967Y-90523664D01*
X176734033Y-90480511D01*
X176765080Y-90442680D01*
X176802911Y-90411633D01*
X176846064Y-90388567D01*
X176892900Y-90374360D01*
X176945286Y-90369200D01*
X177587914Y-90369200D01*
X177640300Y-90374360D01*
X177640300Y-90374360D01*
G37*
G36*
X138176600Y-91079400D02*
G01*
X136976600Y-91079400D01*
X136976600Y-89479400D01*
X138176600Y-89479400D01*
X138176600Y-91079400D01*
X138176600Y-91079400D01*
G37*
G36*
X136276600Y-91079400D02*
G01*
X135076600Y-91079400D01*
X135076600Y-89479400D01*
X136276600Y-89479400D01*
X136276600Y-91079400D01*
X136276600Y-91079400D01*
G37*
G36*
X153688800Y-90889400D02*
G01*
X149688800Y-90889400D01*
X149688800Y-88689400D01*
X153688800Y-88689400D01*
X153688800Y-90889400D01*
X153688800Y-90889400D01*
G37*
G36*
X205123234Y-88676470D02*
G01*
X205176671Y-88692680D01*
X205311736Y-88733651D01*
X205485458Y-88826508D01*
X205637728Y-88951472D01*
X205762692Y-89103742D01*
X205855549Y-89277464D01*
X205884139Y-89371715D01*
X205912730Y-89465966D01*
X205932038Y-89662000D01*
X205912730Y-89858034D01*
X205910908Y-89864040D01*
X205855549Y-90046536D01*
X205762692Y-90220258D01*
X205637728Y-90372528D01*
X205485458Y-90497492D01*
X205311736Y-90590349D01*
X205240361Y-90612000D01*
X205123234Y-90647530D01*
X204976320Y-90662000D01*
X204878080Y-90662000D01*
X204731166Y-90647530D01*
X204614039Y-90612000D01*
X204542664Y-90590349D01*
X204368942Y-90497492D01*
X204216672Y-90372528D01*
X204091708Y-90220258D01*
X203998851Y-90046536D01*
X203943492Y-89864040D01*
X203941670Y-89858034D01*
X203922362Y-89662000D01*
X203941670Y-89465966D01*
X203970261Y-89371715D01*
X203998851Y-89277464D01*
X204091708Y-89103742D01*
X204216672Y-88951472D01*
X204368942Y-88826508D01*
X204542664Y-88733651D01*
X204677729Y-88692680D01*
X204731166Y-88676470D01*
X204878080Y-88662000D01*
X204976320Y-88662000D01*
X205123234Y-88676470D01*
X205123234Y-88676470D01*
G37*
G36*
X212022232Y-88725746D02*
G01*
X212201308Y-88780068D01*
X212366345Y-88868282D01*
X212511001Y-88986999D01*
X212629718Y-89131655D01*
X212629719Y-89131657D01*
X212707655Y-89277464D01*
X212717932Y-89296692D01*
X212772254Y-89475768D01*
X212790596Y-89662000D01*
X212772254Y-89848232D01*
X212717932Y-90027308D01*
X212717930Y-90027311D01*
X212717930Y-90027312D01*
X212659123Y-90137333D01*
X212629718Y-90192345D01*
X212511001Y-90337001D01*
X212366345Y-90455718D01*
X212366343Y-90455719D01*
X212203056Y-90542998D01*
X212201308Y-90543932D01*
X212022232Y-90598254D01*
X211882665Y-90612000D01*
X211789335Y-90612000D01*
X211649768Y-90598254D01*
X211470692Y-90543932D01*
X211468945Y-90542998D01*
X211305657Y-90455719D01*
X211305655Y-90455718D01*
X211160999Y-90337001D01*
X211042282Y-90192345D01*
X211012877Y-90137333D01*
X210954070Y-90027312D01*
X210954070Y-90027311D01*
X210954068Y-90027308D01*
X210899746Y-89848232D01*
X210881404Y-89662000D01*
X210899746Y-89475768D01*
X210954068Y-89296692D01*
X210964346Y-89277464D01*
X211042281Y-89131657D01*
X211042282Y-89131655D01*
X211160999Y-88986999D01*
X211305655Y-88868282D01*
X211470692Y-88780068D01*
X211649768Y-88725746D01*
X211789335Y-88712000D01*
X211882665Y-88712000D01*
X212022232Y-88725746D01*
X212022232Y-88725746D01*
G37*
G36*
X214562232Y-88725746D02*
G01*
X214741308Y-88780068D01*
X214906345Y-88868282D01*
X215051001Y-88986999D01*
X215169718Y-89131655D01*
X215169719Y-89131657D01*
X215247655Y-89277464D01*
X215257932Y-89296692D01*
X215312254Y-89475768D01*
X215330596Y-89662000D01*
X215312254Y-89848232D01*
X215257932Y-90027308D01*
X215257930Y-90027311D01*
X215257930Y-90027312D01*
X215199123Y-90137333D01*
X215169718Y-90192345D01*
X215051001Y-90337001D01*
X214906345Y-90455718D01*
X214906343Y-90455719D01*
X214743056Y-90542998D01*
X214741308Y-90543932D01*
X214562232Y-90598254D01*
X214422665Y-90612000D01*
X214329335Y-90612000D01*
X214189768Y-90598254D01*
X214010692Y-90543932D01*
X214008945Y-90542998D01*
X213845657Y-90455719D01*
X213845655Y-90455718D01*
X213700999Y-90337001D01*
X213582282Y-90192345D01*
X213552877Y-90137333D01*
X213494070Y-90027312D01*
X213494070Y-90027311D01*
X213494068Y-90027308D01*
X213439746Y-89848232D01*
X213421404Y-89662000D01*
X213439746Y-89475768D01*
X213494068Y-89296692D01*
X213504346Y-89277464D01*
X213582281Y-89131657D01*
X213582282Y-89131655D01*
X213700999Y-88986999D01*
X213845655Y-88868282D01*
X214010692Y-88780068D01*
X214189768Y-88725746D01*
X214329335Y-88712000D01*
X214422665Y-88712000D01*
X214562232Y-88725746D01*
X214562232Y-88725746D01*
G37*
G36*
X220406000Y-90612000D02*
G01*
X218506000Y-90612000D01*
X218506000Y-88712000D01*
X220406000Y-88712000D01*
X220406000Y-90612000D01*
X220406000Y-90612000D01*
G37*
G36*
X217102232Y-88725746D02*
G01*
X217281308Y-88780068D01*
X217446345Y-88868282D01*
X217591001Y-88986999D01*
X217709718Y-89131655D01*
X217709719Y-89131657D01*
X217787655Y-89277464D01*
X217797932Y-89296692D01*
X217852254Y-89475768D01*
X217870596Y-89662000D01*
X217852254Y-89848232D01*
X217797932Y-90027308D01*
X217797930Y-90027311D01*
X217797930Y-90027312D01*
X217739123Y-90137333D01*
X217709718Y-90192345D01*
X217591001Y-90337001D01*
X217446345Y-90455718D01*
X217446343Y-90455719D01*
X217283056Y-90542998D01*
X217281308Y-90543932D01*
X217102232Y-90598254D01*
X216962665Y-90612000D01*
X216869335Y-90612000D01*
X216729768Y-90598254D01*
X216550692Y-90543932D01*
X216548945Y-90542998D01*
X216385657Y-90455719D01*
X216385655Y-90455718D01*
X216240999Y-90337001D01*
X216122282Y-90192345D01*
X216092877Y-90137333D01*
X216034070Y-90027312D01*
X216034070Y-90027311D01*
X216034068Y-90027308D01*
X215979746Y-89848232D01*
X215961404Y-89662000D01*
X215979746Y-89475768D01*
X216034068Y-89296692D01*
X216044346Y-89277464D01*
X216122281Y-89131657D01*
X216122282Y-89131655D01*
X216240999Y-88986999D01*
X216385655Y-88868282D01*
X216550692Y-88780068D01*
X216729768Y-88725746D01*
X216869335Y-88712000D01*
X216962665Y-88712000D01*
X217102232Y-88725746D01*
X217102232Y-88725746D01*
G37*
G36*
X141897800Y-90428200D02*
G01*
X140737800Y-90428200D01*
X140737800Y-89678200D01*
X141897800Y-89678200D01*
X141897800Y-90428200D01*
X141897800Y-90428200D01*
G37*
G36*
X144097800Y-90428200D02*
G01*
X142937800Y-90428200D01*
X142937800Y-89678200D01*
X144097800Y-89678200D01*
X144097800Y-90428200D01*
X144097800Y-90428200D01*
G37*
G36*
X172560300Y-88624360D02*
G01*
X172607136Y-88638567D01*
X172650289Y-88661633D01*
X172688120Y-88692680D01*
X172719167Y-88730511D01*
X172742233Y-88773664D01*
X172756440Y-88820500D01*
X172761600Y-88872886D01*
X172761600Y-89615514D01*
X172756440Y-89667900D01*
X172742233Y-89714736D01*
X172719167Y-89757889D01*
X172688120Y-89795720D01*
X172650289Y-89826767D01*
X172607136Y-89849833D01*
X172560300Y-89864040D01*
X172507914Y-89869200D01*
X171865286Y-89869200D01*
X171812900Y-89864040D01*
X171766064Y-89849833D01*
X171722911Y-89826767D01*
X171685080Y-89795720D01*
X171654033Y-89757889D01*
X171630967Y-89714736D01*
X171616760Y-89667900D01*
X171611600Y-89615514D01*
X171611600Y-88872886D01*
X171616760Y-88820500D01*
X171630967Y-88773664D01*
X171654033Y-88730511D01*
X171685080Y-88692680D01*
X171722911Y-88661633D01*
X171766064Y-88638567D01*
X171812900Y-88624360D01*
X171865286Y-88619200D01*
X172507914Y-88619200D01*
X172560300Y-88624360D01*
X172560300Y-88624360D01*
G37*
G36*
X170020300Y-88624360D02*
G01*
X170067136Y-88638567D01*
X170110289Y-88661633D01*
X170148120Y-88692680D01*
X170179167Y-88730511D01*
X170202233Y-88773664D01*
X170216440Y-88820500D01*
X170221600Y-88872886D01*
X170221600Y-89615514D01*
X170216440Y-89667900D01*
X170202233Y-89714736D01*
X170179167Y-89757889D01*
X170148120Y-89795720D01*
X170110289Y-89826767D01*
X170067136Y-89849833D01*
X170020300Y-89864040D01*
X169967914Y-89869200D01*
X169325286Y-89869200D01*
X169272900Y-89864040D01*
X169226064Y-89849833D01*
X169182911Y-89826767D01*
X169145080Y-89795720D01*
X169114033Y-89757889D01*
X169090967Y-89714736D01*
X169076760Y-89667900D01*
X169071600Y-89615514D01*
X169071600Y-88872886D01*
X169076760Y-88820500D01*
X169090967Y-88773664D01*
X169114033Y-88730511D01*
X169145080Y-88692680D01*
X169182911Y-88661633D01*
X169226064Y-88638567D01*
X169272900Y-88624360D01*
X169325286Y-88619200D01*
X169967914Y-88619200D01*
X170020300Y-88624360D01*
X170020300Y-88624360D01*
G37*
G36*
X177640300Y-88624360D02*
G01*
X177687136Y-88638567D01*
X177730289Y-88661633D01*
X177768120Y-88692680D01*
X177799167Y-88730511D01*
X177822233Y-88773664D01*
X177836440Y-88820500D01*
X177841600Y-88872886D01*
X177841600Y-89615514D01*
X177836440Y-89667900D01*
X177822233Y-89714736D01*
X177799167Y-89757889D01*
X177768120Y-89795720D01*
X177730289Y-89826767D01*
X177687136Y-89849833D01*
X177640300Y-89864040D01*
X177587914Y-89869200D01*
X176945286Y-89869200D01*
X176892900Y-89864040D01*
X176846064Y-89849833D01*
X176802911Y-89826767D01*
X176765080Y-89795720D01*
X176734033Y-89757889D01*
X176710967Y-89714736D01*
X176696760Y-89667900D01*
X176691600Y-89615514D01*
X176691600Y-88872886D01*
X176696760Y-88820500D01*
X176710967Y-88773664D01*
X176734033Y-88730511D01*
X176765080Y-88692680D01*
X176802911Y-88661633D01*
X176846064Y-88638567D01*
X176892900Y-88624360D01*
X176945286Y-88619200D01*
X177587914Y-88619200D01*
X177640300Y-88624360D01*
X177640300Y-88624360D01*
G37*
G36*
X182720300Y-88624360D02*
G01*
X182767136Y-88638567D01*
X182810289Y-88661633D01*
X182848120Y-88692680D01*
X182879167Y-88730511D01*
X182902233Y-88773664D01*
X182916440Y-88820500D01*
X182921600Y-88872886D01*
X182921600Y-89615514D01*
X182916440Y-89667900D01*
X182902233Y-89714736D01*
X182879167Y-89757889D01*
X182848120Y-89795720D01*
X182810289Y-89826767D01*
X182767136Y-89849833D01*
X182720300Y-89864040D01*
X182667914Y-89869200D01*
X182025286Y-89869200D01*
X181972900Y-89864040D01*
X181926064Y-89849833D01*
X181882911Y-89826767D01*
X181845080Y-89795720D01*
X181814033Y-89757889D01*
X181790967Y-89714736D01*
X181776760Y-89667900D01*
X181771600Y-89615514D01*
X181771600Y-88872886D01*
X181776760Y-88820500D01*
X181790967Y-88773664D01*
X181814033Y-88730511D01*
X181845080Y-88692680D01*
X181882911Y-88661633D01*
X181926064Y-88638567D01*
X181972900Y-88624360D01*
X182025286Y-88619200D01*
X182667914Y-88619200D01*
X182720300Y-88624360D01*
X182720300Y-88624360D01*
G37*
G36*
X185260300Y-88624360D02*
G01*
X185307136Y-88638567D01*
X185350289Y-88661633D01*
X185388120Y-88692680D01*
X185419167Y-88730511D01*
X185442233Y-88773664D01*
X185456440Y-88820500D01*
X185461600Y-88872886D01*
X185461600Y-89615514D01*
X185456440Y-89667900D01*
X185442233Y-89714736D01*
X185419167Y-89757889D01*
X185388120Y-89795720D01*
X185350289Y-89826767D01*
X185307136Y-89849833D01*
X185260300Y-89864040D01*
X185207914Y-89869200D01*
X184565286Y-89869200D01*
X184512900Y-89864040D01*
X184466064Y-89849833D01*
X184422911Y-89826767D01*
X184385080Y-89795720D01*
X184354033Y-89757889D01*
X184330967Y-89714736D01*
X184316760Y-89667900D01*
X184311600Y-89615514D01*
X184311600Y-88872886D01*
X184316760Y-88820500D01*
X184330967Y-88773664D01*
X184354033Y-88730511D01*
X184385080Y-88692680D01*
X184422911Y-88661633D01*
X184466064Y-88638567D01*
X184512900Y-88624360D01*
X184565286Y-88619200D01*
X185207914Y-88619200D01*
X185260300Y-88624360D01*
X185260300Y-88624360D01*
G37*
G36*
X175125700Y-88624360D02*
G01*
X175172536Y-88638567D01*
X175215689Y-88661633D01*
X175253520Y-88692680D01*
X175284567Y-88730511D01*
X175307633Y-88773664D01*
X175321840Y-88820500D01*
X175327000Y-88872886D01*
X175327000Y-89615514D01*
X175321840Y-89667900D01*
X175307633Y-89714736D01*
X175284567Y-89757889D01*
X175253520Y-89795720D01*
X175215689Y-89826767D01*
X175172536Y-89849833D01*
X175125700Y-89864040D01*
X175073314Y-89869200D01*
X174430686Y-89869200D01*
X174378300Y-89864040D01*
X174331464Y-89849833D01*
X174288311Y-89826767D01*
X174250480Y-89795720D01*
X174219433Y-89757889D01*
X174196367Y-89714736D01*
X174182160Y-89667900D01*
X174177000Y-89615514D01*
X174177000Y-88872886D01*
X174182160Y-88820500D01*
X174196367Y-88773664D01*
X174219433Y-88730511D01*
X174250480Y-88692680D01*
X174288311Y-88661633D01*
X174331464Y-88638567D01*
X174378300Y-88624360D01*
X174430686Y-88619200D01*
X175073314Y-88619200D01*
X175125700Y-88624360D01*
X175125700Y-88624360D01*
G37*
G36*
X180404426Y-88424381D02*
G01*
X180451461Y-88438649D01*
X180494810Y-88461819D01*
X180532802Y-88492998D01*
X180563981Y-88530990D01*
X180587151Y-88574339D01*
X180601419Y-88621374D01*
X180606600Y-88673974D01*
X180606600Y-89514426D01*
X180601419Y-89567026D01*
X180587151Y-89614061D01*
X180563981Y-89657410D01*
X180532802Y-89695402D01*
X180494810Y-89726581D01*
X180451461Y-89749751D01*
X180404426Y-89764019D01*
X180351826Y-89769200D01*
X179261374Y-89769200D01*
X179208774Y-89764019D01*
X179161739Y-89749751D01*
X179118390Y-89726581D01*
X179080398Y-89695402D01*
X179049219Y-89657410D01*
X179026049Y-89614061D01*
X179011781Y-89567026D01*
X179006600Y-89514426D01*
X179006600Y-88673974D01*
X179011781Y-88621374D01*
X179026049Y-88574339D01*
X179049219Y-88530990D01*
X179080398Y-88492998D01*
X179118390Y-88461819D01*
X179161739Y-88438649D01*
X179208774Y-88424381D01*
X179261374Y-88419200D01*
X180351826Y-88419200D01*
X180404426Y-88424381D01*
X180404426Y-88424381D01*
G37*
G36*
X167704426Y-88424381D02*
G01*
X167751461Y-88438649D01*
X167794810Y-88461819D01*
X167832802Y-88492998D01*
X167863981Y-88530990D01*
X167887151Y-88574339D01*
X167901419Y-88621374D01*
X167906600Y-88673974D01*
X167906600Y-89514426D01*
X167901419Y-89567026D01*
X167887151Y-89614061D01*
X167863981Y-89657410D01*
X167832802Y-89695402D01*
X167794810Y-89726581D01*
X167751461Y-89749751D01*
X167704426Y-89764019D01*
X167651826Y-89769200D01*
X166561374Y-89769200D01*
X166508774Y-89764019D01*
X166461739Y-89749751D01*
X166418390Y-89726581D01*
X166380398Y-89695402D01*
X166349219Y-89657410D01*
X166326049Y-89614061D01*
X166311781Y-89567026D01*
X166306600Y-89514426D01*
X166306600Y-88673974D01*
X166311781Y-88621374D01*
X166326049Y-88574339D01*
X166349219Y-88530990D01*
X166380398Y-88492998D01*
X166418390Y-88461819D01*
X166461739Y-88438649D01*
X166508774Y-88424381D01*
X166561374Y-88419200D01*
X167651826Y-88419200D01*
X167704426Y-88424381D01*
X167704426Y-88424381D01*
G37*
G36*
X165164426Y-88424381D02*
G01*
X165211461Y-88438649D01*
X165254810Y-88461819D01*
X165292802Y-88492998D01*
X165323981Y-88530990D01*
X165347151Y-88574339D01*
X165361419Y-88621374D01*
X165366600Y-88673974D01*
X165366600Y-89514426D01*
X165361419Y-89567026D01*
X165347151Y-89614061D01*
X165323981Y-89657410D01*
X165292802Y-89695402D01*
X165254810Y-89726581D01*
X165211461Y-89749751D01*
X165164426Y-89764019D01*
X165111826Y-89769200D01*
X164021374Y-89769200D01*
X163968774Y-89764019D01*
X163921739Y-89749751D01*
X163878390Y-89726581D01*
X163840398Y-89695402D01*
X163809219Y-89657410D01*
X163786049Y-89614061D01*
X163771781Y-89567026D01*
X163766600Y-89514426D01*
X163766600Y-88673974D01*
X163771781Y-88621374D01*
X163786049Y-88574339D01*
X163809219Y-88530990D01*
X163840398Y-88492998D01*
X163878390Y-88461819D01*
X163921739Y-88438649D01*
X163968774Y-88424381D01*
X164021374Y-88419200D01*
X165111826Y-88419200D01*
X165164426Y-88424381D01*
X165164426Y-88424381D01*
G37*
G36*
X144097800Y-89478200D02*
G01*
X142937800Y-89478200D01*
X142937800Y-88728200D01*
X144097800Y-88728200D01*
X144097800Y-89478200D01*
X144097800Y-89478200D01*
G37*
G36*
X137226600Y-88879400D02*
G01*
X136026600Y-88879400D01*
X136026600Y-87279400D01*
X137226600Y-87279400D01*
X137226600Y-88879400D01*
X137226600Y-88879400D01*
G37*
G36*
X132017600Y-88776400D02*
G01*
X130117600Y-88776400D01*
X130117600Y-86876400D01*
X132017600Y-86876400D01*
X132017600Y-88776400D01*
X132017600Y-88776400D01*
G37*
G36*
X141897800Y-88528200D02*
G01*
X140737800Y-88528200D01*
X140737800Y-87778200D01*
X141897800Y-87778200D01*
X141897800Y-88528200D01*
X141897800Y-88528200D01*
G37*
G36*
X144097800Y-88528200D02*
G01*
X142937800Y-88528200D01*
X142937800Y-87778200D01*
X144097800Y-87778200D01*
X144097800Y-88528200D01*
X144097800Y-88528200D01*
G37*
G36*
X205927200Y-88122000D02*
G01*
X203927200Y-88122000D01*
X203927200Y-86122000D01*
X205927200Y-86122000D01*
X205927200Y-88122000D01*
X205927200Y-88122000D01*
G37*
G36*
X193077258Y-85784873D02*
G01*
X193277448Y-85867794D01*
X193457609Y-85988174D01*
X193610826Y-86141391D01*
X193731206Y-86321552D01*
X193814127Y-86521742D01*
X193856400Y-86734261D01*
X193856400Y-86950939D01*
X193814127Y-87163458D01*
X193731206Y-87363648D01*
X193610826Y-87543809D01*
X193457609Y-87697026D01*
X193277448Y-87817406D01*
X193077258Y-87900327D01*
X192864741Y-87942600D01*
X192648059Y-87942600D01*
X192435542Y-87900327D01*
X192235352Y-87817406D01*
X192055191Y-87697026D01*
X191901974Y-87543809D01*
X191781594Y-87363648D01*
X191698673Y-87163458D01*
X191656400Y-86950939D01*
X191656400Y-86734261D01*
X191698673Y-86521742D01*
X191781594Y-86321552D01*
X191901974Y-86141391D01*
X192055191Y-85988174D01*
X192235352Y-85867794D01*
X192435542Y-85784873D01*
X192648059Y-85742600D01*
X192864741Y-85742600D01*
X193077258Y-85784873D01*
X193077258Y-85784873D01*
G37*
G36*
X197577258Y-85784873D02*
G01*
X197777448Y-85867794D01*
X197957609Y-85988174D01*
X198110826Y-86141391D01*
X198231206Y-86321552D01*
X198314127Y-86521742D01*
X198356400Y-86734261D01*
X198356400Y-86950939D01*
X198314127Y-87163458D01*
X198231206Y-87363648D01*
X198110826Y-87543809D01*
X197957609Y-87697026D01*
X197777448Y-87817406D01*
X197577258Y-87900327D01*
X197364741Y-87942600D01*
X197148059Y-87942600D01*
X196935542Y-87900327D01*
X196735352Y-87817406D01*
X196555191Y-87697026D01*
X196401974Y-87543809D01*
X196281594Y-87363648D01*
X196198673Y-87163458D01*
X196156400Y-86950939D01*
X196156400Y-86734261D01*
X196198673Y-86521742D01*
X196281594Y-86321552D01*
X196401974Y-86141391D01*
X196555191Y-85988174D01*
X196735352Y-85867794D01*
X196935542Y-85784873D01*
X197148059Y-85742600D01*
X197364741Y-85742600D01*
X197577258Y-85784873D01*
X197577258Y-85784873D01*
G37*
G36*
X182004400Y-86669000D02*
G01*
X180344400Y-86669000D01*
X180344400Y-85919000D01*
X182004400Y-85919000D01*
X182004400Y-86669000D01*
X182004400Y-86669000D01*
G37*
G36*
X184704400Y-86669000D02*
G01*
X183044400Y-86669000D01*
X183044400Y-85919000D01*
X184704400Y-85919000D01*
X184704400Y-86669000D01*
X184704400Y-86669000D01*
G37*
G36*
X174504400Y-86669000D02*
G01*
X172844400Y-86669000D01*
X172844400Y-85919000D01*
X174504400Y-85919000D01*
X174504400Y-86669000D01*
X174504400Y-86669000D01*
G37*
G36*
X177204400Y-86669000D02*
G01*
X175544400Y-86669000D01*
X175544400Y-85919000D01*
X177204400Y-85919000D01*
X177204400Y-86669000D01*
X177204400Y-86669000D01*
G37*
G36*
X166504400Y-86669000D02*
G01*
X164844400Y-86669000D01*
X164844400Y-85919000D01*
X166504400Y-85919000D01*
X166504400Y-86669000D01*
X166504400Y-86669000D01*
G37*
G36*
X169204400Y-86669000D02*
G01*
X167544400Y-86669000D01*
X167544400Y-85919000D01*
X169204400Y-85919000D01*
X169204400Y-86669000D01*
X169204400Y-86669000D01*
G37*
G36*
X131253832Y-84350146D02*
G01*
X131432908Y-84404468D01*
X131597945Y-84492682D01*
X131742601Y-84611399D01*
X131861318Y-84756055D01*
X131949532Y-84921092D01*
X132003854Y-85100168D01*
X132022196Y-85286400D01*
X132003854Y-85472632D01*
X131949532Y-85651708D01*
X131861318Y-85816745D01*
X131742601Y-85961401D01*
X131597945Y-86080118D01*
X131432908Y-86168332D01*
X131253832Y-86222654D01*
X131114265Y-86236400D01*
X131020935Y-86236400D01*
X130881368Y-86222654D01*
X130702292Y-86168332D01*
X130537255Y-86080118D01*
X130392599Y-85961401D01*
X130273882Y-85816745D01*
X130185668Y-85651708D01*
X130131346Y-85472632D01*
X130113004Y-85286400D01*
X130131346Y-85100168D01*
X130185668Y-84921092D01*
X130273882Y-84756055D01*
X130392599Y-84611399D01*
X130537255Y-84492682D01*
X130702292Y-84404468D01*
X130881368Y-84350146D01*
X131020935Y-84336400D01*
X131114265Y-84336400D01*
X131253832Y-84350146D01*
X131253832Y-84350146D01*
G37*
G36*
X174504400Y-85719000D02*
G01*
X172844400Y-85719000D01*
X172844400Y-84969000D01*
X174504400Y-84969000D01*
X174504400Y-85719000D01*
X174504400Y-85719000D01*
G37*
G36*
X184704400Y-85719000D02*
G01*
X183044400Y-85719000D01*
X183044400Y-84969000D01*
X184704400Y-84969000D01*
X184704400Y-85719000D01*
X184704400Y-85719000D01*
G37*
G36*
X182004400Y-85719000D02*
G01*
X180344400Y-85719000D01*
X180344400Y-84969000D01*
X182004400Y-84969000D01*
X182004400Y-85719000D01*
X182004400Y-85719000D01*
G37*
G36*
X169204400Y-85719000D02*
G01*
X167544400Y-85719000D01*
X167544400Y-84969000D01*
X169204400Y-84969000D01*
X169204400Y-85719000D01*
X169204400Y-85719000D01*
G37*
G36*
X166504400Y-85719000D02*
G01*
X164844400Y-85719000D01*
X164844400Y-84969000D01*
X166504400Y-84969000D01*
X166504400Y-85719000D01*
X166504400Y-85719000D01*
G37*
G36*
X177204400Y-85719000D02*
G01*
X175544400Y-85719000D01*
X175544400Y-84969000D01*
X177204400Y-84969000D01*
X177204400Y-85719000D01*
X177204400Y-85719000D01*
G37*
G36*
X182004400Y-84769000D02*
G01*
X180344400Y-84769000D01*
X180344400Y-84019000D01*
X182004400Y-84019000D01*
X182004400Y-84769000D01*
X182004400Y-84769000D01*
G37*
G36*
X166504400Y-84769000D02*
G01*
X164844400Y-84769000D01*
X164844400Y-84019000D01*
X166504400Y-84019000D01*
X166504400Y-84769000D01*
X166504400Y-84769000D01*
G37*
G36*
X169204400Y-84769000D02*
G01*
X167544400Y-84769000D01*
X167544400Y-84019000D01*
X169204400Y-84019000D01*
X169204400Y-84769000D01*
X169204400Y-84769000D01*
G37*
G36*
X174504400Y-84769000D02*
G01*
X172844400Y-84769000D01*
X172844400Y-84019000D01*
X174504400Y-84019000D01*
X174504400Y-84769000D01*
X174504400Y-84769000D01*
G37*
G36*
X177204400Y-84769000D02*
G01*
X175544400Y-84769000D01*
X175544400Y-84019000D01*
X177204400Y-84019000D01*
X177204400Y-84769000D01*
X177204400Y-84769000D01*
G37*
G36*
X184704400Y-84769000D02*
G01*
X183044400Y-84769000D01*
X183044400Y-84019000D01*
X184704400Y-84019000D01*
X184704400Y-84769000D01*
X184704400Y-84769000D01*
G37*
G36*
X142451632Y-82832946D02*
G01*
X142630708Y-82887268D01*
X142795745Y-82975482D01*
X142940401Y-83094199D01*
X143059118Y-83238855D01*
X143059119Y-83238857D01*
X143122829Y-83358049D01*
X143147332Y-83403892D01*
X143201654Y-83582968D01*
X143219996Y-83769200D01*
X143201654Y-83955432D01*
X143147332Y-84134508D01*
X143059118Y-84299545D01*
X142940401Y-84444201D01*
X142795745Y-84562918D01*
X142630708Y-84651132D01*
X142451632Y-84705454D01*
X142312065Y-84719200D01*
X142218735Y-84719200D01*
X142079168Y-84705454D01*
X141900092Y-84651132D01*
X141735055Y-84562918D01*
X141590399Y-84444201D01*
X141471682Y-84299545D01*
X141383468Y-84134508D01*
X141329146Y-83955432D01*
X141310804Y-83769200D01*
X141329146Y-83582968D01*
X141383468Y-83403892D01*
X141407972Y-83358049D01*
X141471681Y-83238857D01*
X141471682Y-83238855D01*
X141590399Y-83094199D01*
X141735055Y-82975482D01*
X141900092Y-82887268D01*
X142079168Y-82832946D01*
X142218735Y-82819200D01*
X142312065Y-82819200D01*
X142451632Y-82832946D01*
X142451632Y-82832946D01*
G37*
G36*
X139911632Y-82832946D02*
G01*
X140090708Y-82887268D01*
X140255745Y-82975482D01*
X140400401Y-83094199D01*
X140519118Y-83238855D01*
X140519119Y-83238857D01*
X140582829Y-83358049D01*
X140607332Y-83403892D01*
X140661654Y-83582968D01*
X140679996Y-83769200D01*
X140661654Y-83955432D01*
X140607332Y-84134508D01*
X140519118Y-84299545D01*
X140400401Y-84444201D01*
X140255745Y-84562918D01*
X140090708Y-84651132D01*
X139911632Y-84705454D01*
X139772065Y-84719200D01*
X139678735Y-84719200D01*
X139539168Y-84705454D01*
X139360092Y-84651132D01*
X139195055Y-84562918D01*
X139050399Y-84444201D01*
X138931682Y-84299545D01*
X138843468Y-84134508D01*
X138789146Y-83955432D01*
X138770804Y-83769200D01*
X138789146Y-83582968D01*
X138843468Y-83403892D01*
X138867972Y-83358049D01*
X138931681Y-83238857D01*
X138931682Y-83238855D01*
X139050399Y-83094199D01*
X139195055Y-82975482D01*
X139360092Y-82887268D01*
X139539168Y-82832946D01*
X139678735Y-82819200D01*
X139772065Y-82819200D01*
X139911632Y-82832946D01*
X139911632Y-82832946D01*
G37*
G36*
X138135400Y-84719200D02*
G01*
X136235400Y-84719200D01*
X136235400Y-82819200D01*
X138135400Y-82819200D01*
X138135400Y-84719200D01*
X138135400Y-84719200D01*
G37*
G36*
X150238800Y-84589400D02*
G01*
X148538800Y-84589400D01*
X148538800Y-82389400D01*
X150238800Y-82389400D01*
X150238800Y-84589400D01*
X150238800Y-84589400D01*
G37*
G36*
X154838800Y-84589400D02*
G01*
X153138800Y-84589400D01*
X153138800Y-82389400D01*
X154838800Y-82389400D01*
X154838800Y-84589400D01*
X154838800Y-84589400D01*
G37*
G36*
X152538800Y-84589400D02*
G01*
X150838800Y-84589400D01*
X150838800Y-82389400D01*
X152538800Y-82389400D01*
X152538800Y-84589400D01*
X152538800Y-84589400D01*
G37*
G36*
X194018826Y-83159181D02*
G01*
X194065861Y-83173449D01*
X194109210Y-83196619D01*
X194147202Y-83227798D01*
X194178381Y-83265790D01*
X194201551Y-83309139D01*
X194215819Y-83356174D01*
X194221000Y-83408770D01*
X194221000Y-84249226D01*
X194215819Y-84301826D01*
X194201551Y-84348861D01*
X194178381Y-84392210D01*
X194147202Y-84430202D01*
X194109210Y-84461381D01*
X194065861Y-84484551D01*
X194018826Y-84498819D01*
X193966226Y-84504000D01*
X192875774Y-84504000D01*
X192823174Y-84498819D01*
X192776139Y-84484551D01*
X192732790Y-84461381D01*
X192694798Y-84430202D01*
X192663619Y-84392210D01*
X192640449Y-84348861D01*
X192626181Y-84301826D01*
X192621000Y-84249226D01*
X192621000Y-83408770D01*
X192626181Y-83356174D01*
X192640449Y-83309139D01*
X192663619Y-83265790D01*
X192694798Y-83227798D01*
X192732790Y-83196619D01*
X192776139Y-83173449D01*
X192823174Y-83159181D01*
X192875774Y-83154000D01*
X193966226Y-83154000D01*
X194018826Y-83159181D01*
X194018826Y-83159181D01*
G37*
G36*
X211576751Y-82822143D02*
G01*
X211722345Y-82882450D01*
X211853371Y-82969999D01*
X211964801Y-83081429D01*
X212052350Y-83212455D01*
X212112657Y-83358049D01*
X212143400Y-83512606D01*
X212143400Y-83670194D01*
X212112657Y-83824751D01*
X212052350Y-83970345D01*
X211964801Y-84101371D01*
X211853371Y-84212801D01*
X211722345Y-84300350D01*
X211576751Y-84360657D01*
X211422194Y-84391400D01*
X211264606Y-84391400D01*
X211110049Y-84360657D01*
X210964455Y-84300350D01*
X210833429Y-84212801D01*
X210721999Y-84101371D01*
X210634450Y-83970345D01*
X210574143Y-83824751D01*
X210543400Y-83670194D01*
X210543400Y-83512606D01*
X210574143Y-83358049D01*
X210634450Y-83212455D01*
X210721999Y-83081429D01*
X210833429Y-82969999D01*
X210964455Y-82882450D01*
X211110049Y-82822143D01*
X211264606Y-82791400D01*
X211422194Y-82791400D01*
X211576751Y-82822143D01*
X211576751Y-82822143D01*
G37*
G36*
X219196751Y-82822143D02*
G01*
X219342345Y-82882450D01*
X219473371Y-82969999D01*
X219584801Y-83081429D01*
X219672350Y-83212455D01*
X219732657Y-83358049D01*
X219763400Y-83512606D01*
X219763400Y-83670194D01*
X219732657Y-83824751D01*
X219672350Y-83970345D01*
X219584801Y-84101371D01*
X219473371Y-84212801D01*
X219342345Y-84300350D01*
X219196751Y-84360657D01*
X219042194Y-84391400D01*
X218884606Y-84391400D01*
X218730049Y-84360657D01*
X218584455Y-84300350D01*
X218453429Y-84212801D01*
X218341999Y-84101371D01*
X218254450Y-83970345D01*
X218194143Y-83824751D01*
X218163400Y-83670194D01*
X218163400Y-83512606D01*
X218194143Y-83358049D01*
X218254450Y-83212455D01*
X218341999Y-83081429D01*
X218453429Y-82969999D01*
X218584455Y-82882450D01*
X218730049Y-82822143D01*
X218884606Y-82791400D01*
X219042194Y-82791400D01*
X219196751Y-82822143D01*
X219196751Y-82822143D01*
G37*
G36*
X197549831Y-81688423D02*
G01*
X197675339Y-81726496D01*
X197719485Y-81739887D01*
X197875831Y-81823456D01*
X198012875Y-81935925D01*
X198125344Y-82072969D01*
X198208913Y-82229315D01*
X198218482Y-82260860D01*
X198260377Y-82398969D01*
X198277754Y-82575400D01*
X198260377Y-82751831D01*
X198239048Y-82822143D01*
X198208913Y-82921485D01*
X198125344Y-83077831D01*
X198012875Y-83214875D01*
X197875831Y-83327344D01*
X197719485Y-83410913D01*
X197675339Y-83424304D01*
X197549831Y-83462377D01*
X197417607Y-83475400D01*
X197329193Y-83475400D01*
X197196969Y-83462377D01*
X197071461Y-83424304D01*
X197027315Y-83410913D01*
X196870969Y-83327344D01*
X196733925Y-83214875D01*
X196621456Y-83077831D01*
X196537887Y-82921485D01*
X196507752Y-82822143D01*
X196486423Y-82751831D01*
X196469046Y-82575400D01*
X196486423Y-82398969D01*
X196528318Y-82260860D01*
X196537887Y-82229315D01*
X196621456Y-82072969D01*
X196733925Y-81935925D01*
X196870969Y-81823456D01*
X197027315Y-81739887D01*
X197071461Y-81726496D01*
X197196969Y-81688423D01*
X197329193Y-81675400D01*
X197417607Y-81675400D01*
X197549831Y-81688423D01*
X197549831Y-81688423D01*
G37*
G36*
X205169831Y-81688423D02*
G01*
X205295339Y-81726496D01*
X205339485Y-81739887D01*
X205495831Y-81823456D01*
X205632875Y-81935925D01*
X205745344Y-82072969D01*
X205828913Y-82229315D01*
X205838482Y-82260860D01*
X205880377Y-82398969D01*
X205897754Y-82575400D01*
X205880377Y-82751831D01*
X205859048Y-82822143D01*
X205828913Y-82921485D01*
X205745344Y-83077831D01*
X205632875Y-83214875D01*
X205495831Y-83327344D01*
X205339485Y-83410913D01*
X205295339Y-83424304D01*
X205169831Y-83462377D01*
X205037607Y-83475400D01*
X204949193Y-83475400D01*
X204816969Y-83462377D01*
X204691461Y-83424304D01*
X204647315Y-83410913D01*
X204490969Y-83327344D01*
X204353925Y-83214875D01*
X204241456Y-83077831D01*
X204157887Y-82921485D01*
X204127752Y-82822143D01*
X204106423Y-82751831D01*
X204089046Y-82575400D01*
X204106423Y-82398969D01*
X204148318Y-82260860D01*
X204157887Y-82229315D01*
X204241456Y-82072969D01*
X204353925Y-81935925D01*
X204490969Y-81823456D01*
X204647315Y-81739887D01*
X204691461Y-81726496D01*
X204816969Y-81688423D01*
X204949193Y-81675400D01*
X205037607Y-81675400D01*
X205169831Y-81688423D01*
X205169831Y-81688423D01*
G37*
G36*
X147359026Y-81863781D02*
G01*
X147406061Y-81878049D01*
X147449410Y-81901219D01*
X147487402Y-81932398D01*
X147518581Y-81970390D01*
X147541751Y-82013739D01*
X147556019Y-82060774D01*
X147561200Y-82113374D01*
X147561200Y-82953826D01*
X147556019Y-83006426D01*
X147541751Y-83053461D01*
X147518581Y-83096810D01*
X147487402Y-83134802D01*
X147449410Y-83165981D01*
X147406061Y-83189151D01*
X147359026Y-83203419D01*
X147306426Y-83208600D01*
X146215974Y-83208600D01*
X146163374Y-83203419D01*
X146116339Y-83189151D01*
X146072990Y-83165981D01*
X146034998Y-83134802D01*
X146003819Y-83096810D01*
X145980649Y-83053461D01*
X145966381Y-83006426D01*
X145961200Y-82953826D01*
X145961200Y-82113374D01*
X145966381Y-82060774D01*
X145980649Y-82013739D01*
X146003819Y-81970390D01*
X146034998Y-81932398D01*
X146072990Y-81901219D01*
X146116339Y-81878049D01*
X146163374Y-81863781D01*
X146215974Y-81858600D01*
X147306426Y-81858600D01*
X147359026Y-81863781D01*
X147359026Y-81863781D01*
G37*
G36*
X194018826Y-81109181D02*
G01*
X194065861Y-81123449D01*
X194109210Y-81146619D01*
X194147202Y-81177798D01*
X194178381Y-81215790D01*
X194201551Y-81259139D01*
X194215819Y-81306174D01*
X194221000Y-81358774D01*
X194221000Y-82199226D01*
X194215819Y-82251826D01*
X194201551Y-82298861D01*
X194178381Y-82342210D01*
X194147202Y-82380202D01*
X194109210Y-82411381D01*
X194065861Y-82434551D01*
X194018826Y-82448819D01*
X193966226Y-82454000D01*
X192875774Y-82454000D01*
X192823174Y-82448819D01*
X192776139Y-82434551D01*
X192732790Y-82411381D01*
X192694798Y-82380202D01*
X192663619Y-82342210D01*
X192640449Y-82298861D01*
X192626181Y-82251826D01*
X192621000Y-82199226D01*
X192621000Y-81358774D01*
X192626181Y-81306174D01*
X192640449Y-81259139D01*
X192663619Y-81215790D01*
X192694798Y-81177798D01*
X192732790Y-81146619D01*
X192776139Y-81123449D01*
X192823174Y-81109181D01*
X192875774Y-81104000D01*
X193966226Y-81104000D01*
X194018826Y-81109181D01*
X194018826Y-81109181D01*
G37*
G36*
X186352500Y-81066560D02*
G01*
X186399336Y-81080767D01*
X186442489Y-81103833D01*
X186480320Y-81134880D01*
X186511367Y-81172711D01*
X186534433Y-81215864D01*
X186548640Y-81262700D01*
X186553800Y-81315086D01*
X186553800Y-82057714D01*
X186548640Y-82110100D01*
X186534433Y-82156936D01*
X186511367Y-82200089D01*
X186480320Y-82237920D01*
X186442489Y-82268967D01*
X186399336Y-82292033D01*
X186352500Y-82306240D01*
X186300114Y-82311400D01*
X185657486Y-82311400D01*
X185605100Y-82306240D01*
X185558264Y-82292033D01*
X185515111Y-82268967D01*
X185477280Y-82237920D01*
X185446233Y-82200089D01*
X185423167Y-82156936D01*
X185408960Y-82110100D01*
X185403800Y-82057714D01*
X185403800Y-81315086D01*
X185408960Y-81262700D01*
X185423167Y-81215864D01*
X185446233Y-81172711D01*
X185477280Y-81134880D01*
X185515111Y-81103833D01*
X185558264Y-81080767D01*
X185605100Y-81066560D01*
X185657486Y-81061400D01*
X186300114Y-81061400D01*
X186352500Y-81066560D01*
X186352500Y-81066560D01*
G37*
G36*
X166472226Y-80688381D02*
G01*
X166519261Y-80702649D01*
X166562610Y-80725819D01*
X166600602Y-80756998D01*
X166631781Y-80794990D01*
X166654951Y-80838339D01*
X166669219Y-80885374D01*
X166674400Y-80937974D01*
X166674400Y-82028426D01*
X166669219Y-82081026D01*
X166654951Y-82128061D01*
X166631781Y-82171410D01*
X166600602Y-82209402D01*
X166562610Y-82240581D01*
X166519261Y-82263751D01*
X166472226Y-82278019D01*
X166419626Y-82283200D01*
X165579174Y-82283200D01*
X165526574Y-82278019D01*
X165479539Y-82263751D01*
X165436190Y-82240581D01*
X165398198Y-82209402D01*
X165367019Y-82171410D01*
X165343849Y-82128061D01*
X165329581Y-82081026D01*
X165324400Y-82028426D01*
X165324400Y-80937974D01*
X165329581Y-80885374D01*
X165343849Y-80838339D01*
X165367019Y-80794990D01*
X165398198Y-80756998D01*
X165436190Y-80725819D01*
X165479539Y-80702649D01*
X165526574Y-80688381D01*
X165579174Y-80683200D01*
X166419626Y-80683200D01*
X166472226Y-80688381D01*
X166472226Y-80688381D01*
G37*
G36*
X168522226Y-80688381D02*
G01*
X168569261Y-80702649D01*
X168612610Y-80725819D01*
X168650602Y-80756998D01*
X168681781Y-80794990D01*
X168704951Y-80838339D01*
X168719219Y-80885374D01*
X168724400Y-80937974D01*
X168724400Y-82028426D01*
X168719219Y-82081026D01*
X168704951Y-82128061D01*
X168681781Y-82171410D01*
X168650602Y-82209402D01*
X168612610Y-82240581D01*
X168569261Y-82263751D01*
X168522226Y-82278019D01*
X168469626Y-82283200D01*
X167629174Y-82283200D01*
X167576574Y-82278019D01*
X167529539Y-82263751D01*
X167486190Y-82240581D01*
X167448198Y-82209402D01*
X167417019Y-82171410D01*
X167393849Y-82128061D01*
X167379581Y-82081026D01*
X167374400Y-82028426D01*
X167374400Y-80937974D01*
X167379581Y-80885374D01*
X167393849Y-80838339D01*
X167417019Y-80794990D01*
X167448198Y-80756998D01*
X167486190Y-80725819D01*
X167529539Y-80702649D01*
X167576574Y-80688381D01*
X167629174Y-80683200D01*
X168469626Y-80683200D01*
X168522226Y-80688381D01*
X168522226Y-80688381D01*
G37*
G36*
X184022226Y-80688381D02*
G01*
X184069261Y-80702649D01*
X184112610Y-80725819D01*
X184150602Y-80756998D01*
X184181781Y-80794990D01*
X184204951Y-80838339D01*
X184219219Y-80885374D01*
X184224400Y-80937974D01*
X184224400Y-82028426D01*
X184219219Y-82081026D01*
X184204951Y-82128061D01*
X184181781Y-82171410D01*
X184150602Y-82209402D01*
X184112610Y-82240581D01*
X184069261Y-82263751D01*
X184022226Y-82278019D01*
X183969626Y-82283200D01*
X183129174Y-82283200D01*
X183076574Y-82278019D01*
X183029539Y-82263751D01*
X182986190Y-82240581D01*
X182948198Y-82209402D01*
X182917019Y-82171410D01*
X182893849Y-82128061D01*
X182879581Y-82081026D01*
X182874400Y-82028426D01*
X182874400Y-80937974D01*
X182879581Y-80885374D01*
X182893849Y-80838339D01*
X182917019Y-80794990D01*
X182948198Y-80756998D01*
X182986190Y-80725819D01*
X183029539Y-80702649D01*
X183076574Y-80688381D01*
X183129174Y-80683200D01*
X183969626Y-80683200D01*
X184022226Y-80688381D01*
X184022226Y-80688381D01*
G37*
G36*
X176522226Y-80688381D02*
G01*
X176569261Y-80702649D01*
X176612610Y-80725819D01*
X176650602Y-80756998D01*
X176681781Y-80794990D01*
X176704951Y-80838339D01*
X176719219Y-80885374D01*
X176724400Y-80937974D01*
X176724400Y-82028426D01*
X176719219Y-82081026D01*
X176704951Y-82128061D01*
X176681781Y-82171410D01*
X176650602Y-82209402D01*
X176612610Y-82240581D01*
X176569261Y-82263751D01*
X176522226Y-82278019D01*
X176469626Y-82283200D01*
X175629174Y-82283200D01*
X175576574Y-82278019D01*
X175529539Y-82263751D01*
X175486190Y-82240581D01*
X175448198Y-82209402D01*
X175417019Y-82171410D01*
X175393849Y-82128061D01*
X175379581Y-82081026D01*
X175374400Y-82028426D01*
X175374400Y-80937974D01*
X175379581Y-80885374D01*
X175393849Y-80838339D01*
X175417019Y-80794990D01*
X175448198Y-80756998D01*
X175486190Y-80725819D01*
X175529539Y-80702649D01*
X175576574Y-80688381D01*
X175629174Y-80683200D01*
X176469626Y-80683200D01*
X176522226Y-80688381D01*
X176522226Y-80688381D01*
G37*
G36*
X174472226Y-80688381D02*
G01*
X174519261Y-80702649D01*
X174562610Y-80725819D01*
X174600602Y-80756998D01*
X174631781Y-80794990D01*
X174654951Y-80838339D01*
X174669219Y-80885374D01*
X174674400Y-80937974D01*
X174674400Y-82028426D01*
X174669219Y-82081026D01*
X174654951Y-82128061D01*
X174631781Y-82171410D01*
X174600602Y-82209402D01*
X174562610Y-82240581D01*
X174519261Y-82263751D01*
X174472226Y-82278019D01*
X174419626Y-82283200D01*
X173579174Y-82283200D01*
X173526574Y-82278019D01*
X173479539Y-82263751D01*
X173436190Y-82240581D01*
X173398198Y-82209402D01*
X173367019Y-82171410D01*
X173343849Y-82128061D01*
X173329581Y-82081026D01*
X173324400Y-82028426D01*
X173324400Y-80937974D01*
X173329581Y-80885374D01*
X173343849Y-80838339D01*
X173367019Y-80794990D01*
X173398198Y-80756998D01*
X173436190Y-80725819D01*
X173479539Y-80702649D01*
X173526574Y-80688381D01*
X173579174Y-80683200D01*
X174419626Y-80683200D01*
X174472226Y-80688381D01*
X174472226Y-80688381D01*
G37*
G36*
X181972226Y-80688381D02*
G01*
X182019261Y-80702649D01*
X182062610Y-80725819D01*
X182100602Y-80756998D01*
X182131781Y-80794990D01*
X182154951Y-80838339D01*
X182169219Y-80885374D01*
X182174400Y-80937974D01*
X182174400Y-82028426D01*
X182169219Y-82081026D01*
X182154951Y-82128061D01*
X182131781Y-82171410D01*
X182100602Y-82209402D01*
X182062610Y-82240581D01*
X182019261Y-82263751D01*
X181972226Y-82278019D01*
X181919626Y-82283200D01*
X181079174Y-82283200D01*
X181026574Y-82278019D01*
X180979539Y-82263751D01*
X180936190Y-82240581D01*
X180898198Y-82209402D01*
X180867019Y-82171410D01*
X180843849Y-82128061D01*
X180829581Y-82081026D01*
X180824400Y-82028426D01*
X180824400Y-80937974D01*
X180829581Y-80885374D01*
X180843849Y-80838339D01*
X180867019Y-80794990D01*
X180898198Y-80756998D01*
X180936190Y-80725819D01*
X180979539Y-80702649D01*
X181026574Y-80688381D01*
X181079174Y-80683200D01*
X181919626Y-80683200D01*
X181972226Y-80688381D01*
X181972226Y-80688381D01*
G37*
G36*
X211576751Y-80382143D02*
G01*
X211722345Y-80442450D01*
X211853371Y-80529999D01*
X211964801Y-80641429D01*
X212052350Y-80772455D01*
X212112657Y-80918049D01*
X212143400Y-81072606D01*
X212143400Y-81230194D01*
X212112657Y-81384751D01*
X212052350Y-81530345D01*
X211964801Y-81661371D01*
X211853371Y-81772801D01*
X211722345Y-81860350D01*
X211576751Y-81920657D01*
X211422194Y-81951400D01*
X211264606Y-81951400D01*
X211110049Y-81920657D01*
X210964455Y-81860350D01*
X210833429Y-81772801D01*
X210721999Y-81661371D01*
X210634450Y-81530345D01*
X210574143Y-81384751D01*
X210543400Y-81230194D01*
X210543400Y-81072606D01*
X210574143Y-80918049D01*
X210634450Y-80772455D01*
X210721999Y-80641429D01*
X210833429Y-80529999D01*
X210964455Y-80442450D01*
X211110049Y-80382143D01*
X211264606Y-80351400D01*
X211422194Y-80351400D01*
X211576751Y-80382143D01*
X211576751Y-80382143D01*
G37*
G36*
X219196751Y-80382143D02*
G01*
X219342345Y-80442450D01*
X219473371Y-80529999D01*
X219584801Y-80641429D01*
X219672350Y-80772455D01*
X219732657Y-80918049D01*
X219763400Y-81072606D01*
X219763400Y-81230194D01*
X219732657Y-81384751D01*
X219672350Y-81530345D01*
X219584801Y-81661371D01*
X219473371Y-81772801D01*
X219342345Y-81860350D01*
X219196751Y-81920657D01*
X219042194Y-81951400D01*
X218884606Y-81951400D01*
X218730049Y-81920657D01*
X218584455Y-81860350D01*
X218453429Y-81772801D01*
X218341999Y-81661371D01*
X218254450Y-81530345D01*
X218194143Y-81384751D01*
X218163400Y-81230194D01*
X218163400Y-81072606D01*
X218194143Y-80918049D01*
X218254450Y-80772455D01*
X218341999Y-80641429D01*
X218453429Y-80529999D01*
X218584455Y-80442450D01*
X218730049Y-80382143D01*
X218884606Y-80351400D01*
X219042194Y-80351400D01*
X219196751Y-80382143D01*
X219196751Y-80382143D01*
G37*
G36*
X149561826Y-79824781D02*
G01*
X149608861Y-79839049D01*
X149652210Y-79862219D01*
X149690202Y-79893398D01*
X149721381Y-79931390D01*
X149744551Y-79974739D01*
X149758819Y-80021774D01*
X149764000Y-80074374D01*
X149764000Y-81164826D01*
X149758819Y-81217426D01*
X149744551Y-81264461D01*
X149721381Y-81307810D01*
X149690202Y-81345802D01*
X149652210Y-81376981D01*
X149608861Y-81400151D01*
X149561826Y-81414419D01*
X149509226Y-81419600D01*
X148668774Y-81419600D01*
X148616174Y-81414419D01*
X148569139Y-81400151D01*
X148525790Y-81376981D01*
X148487798Y-81345802D01*
X148456619Y-81307810D01*
X148433449Y-81264461D01*
X148419181Y-81217426D01*
X148414000Y-81164826D01*
X148414000Y-80074374D01*
X148419181Y-80021774D01*
X148433449Y-79974739D01*
X148456619Y-79931390D01*
X148487798Y-79893398D01*
X148525790Y-79862219D01*
X148569139Y-79839049D01*
X148616174Y-79824781D01*
X148668774Y-79819600D01*
X149509226Y-79819600D01*
X149561826Y-79824781D01*
X149561826Y-79824781D01*
G37*
G36*
X151611826Y-79824781D02*
G01*
X151658861Y-79839049D01*
X151702210Y-79862219D01*
X151740202Y-79893398D01*
X151771381Y-79931390D01*
X151794551Y-79974739D01*
X151808819Y-80021774D01*
X151814000Y-80074374D01*
X151814000Y-81164826D01*
X151808819Y-81217426D01*
X151794551Y-81264461D01*
X151771381Y-81307810D01*
X151740202Y-81345802D01*
X151702210Y-81376981D01*
X151658861Y-81400151D01*
X151611826Y-81414419D01*
X151559226Y-81419600D01*
X150718774Y-81419600D01*
X150666174Y-81414419D01*
X150619139Y-81400151D01*
X150575790Y-81376981D01*
X150537798Y-81345802D01*
X150506619Y-81307810D01*
X150483449Y-81264461D01*
X150469181Y-81217426D01*
X150464000Y-81164826D01*
X150464000Y-80074374D01*
X150469181Y-80021774D01*
X150483449Y-79974739D01*
X150506619Y-79931390D01*
X150537798Y-79893398D01*
X150575790Y-79862219D01*
X150619139Y-79839049D01*
X150666174Y-79824781D01*
X150718774Y-79819600D01*
X151559226Y-79819600D01*
X151611826Y-79824781D01*
X151611826Y-79824781D01*
G37*
G36*
X147359026Y-79813781D02*
G01*
X147406061Y-79828049D01*
X147449410Y-79851219D01*
X147487402Y-79882398D01*
X147518581Y-79920390D01*
X147541751Y-79963739D01*
X147556019Y-80010774D01*
X147561200Y-80063374D01*
X147561200Y-80903826D01*
X147556019Y-80956426D01*
X147541751Y-81003461D01*
X147518581Y-81046810D01*
X147487402Y-81084802D01*
X147449410Y-81115981D01*
X147406061Y-81139151D01*
X147359026Y-81153419D01*
X147306426Y-81158600D01*
X146215974Y-81158600D01*
X146163374Y-81153419D01*
X146116339Y-81139151D01*
X146072990Y-81115981D01*
X146034998Y-81084802D01*
X146003819Y-81046810D01*
X145980649Y-81003461D01*
X145966381Y-80956426D01*
X145961200Y-80903826D01*
X145961200Y-80063374D01*
X145966381Y-80010774D01*
X145980649Y-79963739D01*
X146003819Y-79920390D01*
X146034998Y-79882398D01*
X146072990Y-79851219D01*
X146116339Y-79828049D01*
X146163374Y-79813781D01*
X146215974Y-79808600D01*
X147306426Y-79808600D01*
X147359026Y-79813781D01*
X147359026Y-79813781D01*
G37*
G36*
X205169831Y-79148423D02*
G01*
X205295339Y-79186496D01*
X205339485Y-79199887D01*
X205495831Y-79283456D01*
X205632875Y-79395925D01*
X205745344Y-79532969D01*
X205828913Y-79689315D01*
X205828914Y-79689319D01*
X205880377Y-79858969D01*
X205897754Y-80035400D01*
X205880377Y-80211831D01*
X205844534Y-80329988D01*
X205828913Y-80381485D01*
X205745344Y-80537831D01*
X205632875Y-80674875D01*
X205495831Y-80787344D01*
X205339485Y-80870913D01*
X205295339Y-80884304D01*
X205169831Y-80922377D01*
X205037607Y-80935400D01*
X204949193Y-80935400D01*
X204816969Y-80922377D01*
X204691461Y-80884304D01*
X204647315Y-80870913D01*
X204490969Y-80787344D01*
X204353925Y-80674875D01*
X204241456Y-80537831D01*
X204157887Y-80381485D01*
X204142266Y-80329988D01*
X204106423Y-80211831D01*
X204089046Y-80035400D01*
X204106423Y-79858969D01*
X204157886Y-79689319D01*
X204157887Y-79689315D01*
X204241456Y-79532969D01*
X204353925Y-79395925D01*
X204490969Y-79283456D01*
X204647315Y-79199887D01*
X204691461Y-79186496D01*
X204816969Y-79148423D01*
X204949193Y-79135400D01*
X205037607Y-79135400D01*
X205169831Y-79148423D01*
X205169831Y-79148423D01*
G37*
G36*
X197549831Y-79148423D02*
G01*
X197675339Y-79186496D01*
X197719485Y-79199887D01*
X197875831Y-79283456D01*
X198012875Y-79395925D01*
X198125344Y-79532969D01*
X198208913Y-79689315D01*
X198208914Y-79689319D01*
X198260377Y-79858969D01*
X198277754Y-80035400D01*
X198260377Y-80211831D01*
X198224534Y-80329988D01*
X198208913Y-80381485D01*
X198125344Y-80537831D01*
X198012875Y-80674875D01*
X197875831Y-80787344D01*
X197719485Y-80870913D01*
X197675339Y-80884304D01*
X197549831Y-80922377D01*
X197417607Y-80935400D01*
X197329193Y-80935400D01*
X197196969Y-80922377D01*
X197071461Y-80884304D01*
X197027315Y-80870913D01*
X196870969Y-80787344D01*
X196733925Y-80674875D01*
X196621456Y-80537831D01*
X196537887Y-80381485D01*
X196522266Y-80329988D01*
X196486423Y-80211831D01*
X196469046Y-80035400D01*
X196486423Y-79858969D01*
X196537886Y-79689319D01*
X196537887Y-79689315D01*
X196621456Y-79532969D01*
X196733925Y-79395925D01*
X196870969Y-79283456D01*
X197027315Y-79199887D01*
X197071461Y-79186496D01*
X197196969Y-79148423D01*
X197329193Y-79135400D01*
X197417607Y-79135400D01*
X197549831Y-79148423D01*
X197549831Y-79148423D01*
G37*
G36*
X138890500Y-79719560D02*
G01*
X138937336Y-79733767D01*
X138980489Y-79756833D01*
X139018320Y-79787880D01*
X139049367Y-79825711D01*
X139072433Y-79868864D01*
X139086640Y-79915700D01*
X139091800Y-79968086D01*
X139091800Y-80610714D01*
X139086640Y-80663100D01*
X139072433Y-80709936D01*
X139049367Y-80753089D01*
X139018320Y-80790920D01*
X138980489Y-80821967D01*
X138937336Y-80845033D01*
X138890500Y-80859240D01*
X138838114Y-80864400D01*
X138095486Y-80864400D01*
X138043100Y-80859240D01*
X137996264Y-80845033D01*
X137953111Y-80821967D01*
X137915280Y-80790920D01*
X137884233Y-80753089D01*
X137861167Y-80709936D01*
X137846960Y-80663100D01*
X137841800Y-80610714D01*
X137841800Y-79968086D01*
X137846960Y-79915700D01*
X137861167Y-79868864D01*
X137884233Y-79825711D01*
X137915280Y-79787880D01*
X137953111Y-79756833D01*
X137996264Y-79733767D01*
X138043100Y-79719560D01*
X138095486Y-79714400D01*
X138838114Y-79714400D01*
X138890500Y-79719560D01*
X138890500Y-79719560D01*
G37*
G36*
X137140500Y-79719560D02*
G01*
X137187336Y-79733767D01*
X137230489Y-79756833D01*
X137268320Y-79787880D01*
X137299367Y-79825711D01*
X137322433Y-79868864D01*
X137336640Y-79915700D01*
X137341800Y-79968086D01*
X137341800Y-80610714D01*
X137336640Y-80663100D01*
X137322433Y-80709936D01*
X137299367Y-80753089D01*
X137268320Y-80790920D01*
X137230489Y-80821967D01*
X137187336Y-80845033D01*
X137140500Y-80859240D01*
X137088114Y-80864400D01*
X136345486Y-80864400D01*
X136293100Y-80859240D01*
X136246264Y-80845033D01*
X136203111Y-80821967D01*
X136165280Y-80790920D01*
X136134233Y-80753089D01*
X136111167Y-80709936D01*
X136096960Y-80663100D01*
X136091800Y-80610714D01*
X136091800Y-79968086D01*
X136096960Y-79915700D01*
X136111167Y-79868864D01*
X136134233Y-79825711D01*
X136165280Y-79787880D01*
X136203111Y-79756833D01*
X136246264Y-79733767D01*
X136293100Y-79719560D01*
X136345486Y-79714400D01*
X137088114Y-79714400D01*
X137140500Y-79719560D01*
X137140500Y-79719560D01*
G37*
G36*
X186352500Y-79316560D02*
G01*
X186399336Y-79330767D01*
X186442489Y-79353833D01*
X186480320Y-79384880D01*
X186511367Y-79422711D01*
X186534433Y-79465864D01*
X186548640Y-79512700D01*
X186553800Y-79565086D01*
X186553800Y-80307714D01*
X186548640Y-80360100D01*
X186534433Y-80406936D01*
X186511367Y-80450089D01*
X186480320Y-80487920D01*
X186442489Y-80518967D01*
X186399336Y-80542033D01*
X186352500Y-80556240D01*
X186300114Y-80561400D01*
X185657486Y-80561400D01*
X185605100Y-80556240D01*
X185558264Y-80542033D01*
X185515111Y-80518967D01*
X185477280Y-80487920D01*
X185446233Y-80450089D01*
X185423167Y-80406936D01*
X185408960Y-80360100D01*
X185403800Y-80307714D01*
X185403800Y-79565086D01*
X185408960Y-79512700D01*
X185423167Y-79465864D01*
X185446233Y-79422711D01*
X185477280Y-79384880D01*
X185515111Y-79353833D01*
X185558264Y-79330767D01*
X185605100Y-79316560D01*
X185657486Y-79311400D01*
X186300114Y-79311400D01*
X186352500Y-79316560D01*
X186352500Y-79316560D01*
G37*
G36*
X207399100Y-79274560D02*
G01*
X207445936Y-79288767D01*
X207489089Y-79311833D01*
X207526920Y-79342880D01*
X207557967Y-79380711D01*
X207581033Y-79423864D01*
X207595240Y-79470700D01*
X207600400Y-79523086D01*
X207600400Y-80265714D01*
X207595240Y-80318100D01*
X207581033Y-80364936D01*
X207557967Y-80408089D01*
X207526920Y-80445920D01*
X207489089Y-80476967D01*
X207445936Y-80500033D01*
X207399100Y-80514240D01*
X207346714Y-80519400D01*
X206704086Y-80519400D01*
X206651700Y-80514240D01*
X206604864Y-80500033D01*
X206561711Y-80476967D01*
X206523880Y-80445920D01*
X206492833Y-80408089D01*
X206469767Y-80364936D01*
X206455560Y-80318100D01*
X206450400Y-80265714D01*
X206450400Y-79523086D01*
X206455560Y-79470700D01*
X206469767Y-79423864D01*
X206492833Y-79380711D01*
X206523880Y-79342880D01*
X206561711Y-79311833D01*
X206604864Y-79288767D01*
X206651700Y-79274560D01*
X206704086Y-79269400D01*
X207346714Y-79269400D01*
X207399100Y-79274560D01*
X207399100Y-79274560D01*
G37*
G36*
X131253832Y-77750146D02*
G01*
X131432908Y-77804468D01*
X131432911Y-77804470D01*
X131432912Y-77804470D01*
X131502155Y-77841481D01*
X131597945Y-77892682D01*
X131742601Y-78011399D01*
X131861318Y-78156055D01*
X131949532Y-78321092D01*
X132003854Y-78500168D01*
X132022196Y-78686400D01*
X132003854Y-78872632D01*
X131949532Y-79051708D01*
X131861318Y-79216745D01*
X131742601Y-79361401D01*
X131597945Y-79480118D01*
X131597943Y-79480119D01*
X131499070Y-79532968D01*
X131432908Y-79568332D01*
X131253832Y-79622654D01*
X131114265Y-79636400D01*
X131020935Y-79636400D01*
X130881368Y-79622654D01*
X130702292Y-79568332D01*
X130636131Y-79532968D01*
X130537257Y-79480119D01*
X130537255Y-79480118D01*
X130392599Y-79361401D01*
X130273882Y-79216745D01*
X130185668Y-79051708D01*
X130131346Y-78872632D01*
X130113004Y-78686400D01*
X130131346Y-78500168D01*
X130185668Y-78321092D01*
X130273882Y-78156055D01*
X130392599Y-78011399D01*
X130537255Y-77892682D01*
X130633045Y-77841481D01*
X130702288Y-77804470D01*
X130702289Y-77804470D01*
X130702292Y-77804468D01*
X130881368Y-77750146D01*
X131020935Y-77736400D01*
X131114265Y-77736400D01*
X131253832Y-77750146D01*
X131253832Y-77750146D01*
G37*
G36*
X173550900Y-77699760D02*
G01*
X173597736Y-77713967D01*
X173640889Y-77737033D01*
X173678720Y-77768080D01*
X173709767Y-77805911D01*
X173732833Y-77849064D01*
X173747040Y-77895900D01*
X173752200Y-77948286D01*
X173752200Y-78690914D01*
X173747040Y-78743300D01*
X173732833Y-78790136D01*
X173709767Y-78833289D01*
X173678720Y-78871120D01*
X173640889Y-78902167D01*
X173597736Y-78925233D01*
X173550900Y-78939440D01*
X173498514Y-78944600D01*
X172855886Y-78944600D01*
X172803500Y-78939440D01*
X172756664Y-78925233D01*
X172713511Y-78902167D01*
X172675680Y-78871120D01*
X172644633Y-78833289D01*
X172621567Y-78790136D01*
X172607360Y-78743300D01*
X172602200Y-78690914D01*
X172602200Y-77948286D01*
X172607360Y-77895900D01*
X172621567Y-77849064D01*
X172644633Y-77805911D01*
X172675680Y-77768080D01*
X172713511Y-77737033D01*
X172756664Y-77713967D01*
X172803500Y-77699760D01*
X172855886Y-77694600D01*
X173498514Y-77694600D01*
X173550900Y-77699760D01*
X173550900Y-77699760D01*
G37*
G36*
X175303500Y-77699760D02*
G01*
X175350336Y-77713967D01*
X175393489Y-77737033D01*
X175431320Y-77768080D01*
X175462367Y-77805911D01*
X175485433Y-77849064D01*
X175499640Y-77895900D01*
X175504800Y-77948286D01*
X175504800Y-78690914D01*
X175499640Y-78743300D01*
X175485433Y-78790136D01*
X175462367Y-78833289D01*
X175431320Y-78871120D01*
X175393489Y-78902167D01*
X175350336Y-78925233D01*
X175303500Y-78939440D01*
X175251114Y-78944600D01*
X174608486Y-78944600D01*
X174556100Y-78939440D01*
X174509264Y-78925233D01*
X174466111Y-78902167D01*
X174428280Y-78871120D01*
X174397233Y-78833289D01*
X174374167Y-78790136D01*
X174359960Y-78743300D01*
X174354800Y-78690914D01*
X174354800Y-77948286D01*
X174359960Y-77895900D01*
X174374167Y-77849064D01*
X174397233Y-77805911D01*
X174428280Y-77768080D01*
X174466111Y-77737033D01*
X174509264Y-77713967D01*
X174556100Y-77699760D01*
X174608486Y-77694600D01*
X175251114Y-77694600D01*
X175303500Y-77699760D01*
X175303500Y-77699760D01*
G37*
G36*
X138877299Y-77751959D02*
G01*
X138924135Y-77766166D01*
X138967288Y-77789232D01*
X139005119Y-77820279D01*
X139036166Y-77858110D01*
X139059232Y-77901263D01*
X139073439Y-77948099D01*
X139078599Y-78000485D01*
X139078599Y-78643113D01*
X139073439Y-78695499D01*
X139059232Y-78742335D01*
X139036166Y-78785488D01*
X139005119Y-78823319D01*
X138967288Y-78854366D01*
X138924135Y-78877432D01*
X138877299Y-78891639D01*
X138824913Y-78896799D01*
X138082285Y-78896799D01*
X138029899Y-78891639D01*
X137983063Y-78877432D01*
X137939910Y-78854366D01*
X137902079Y-78823319D01*
X137871032Y-78785488D01*
X137847966Y-78742335D01*
X137833759Y-78695499D01*
X137828599Y-78643113D01*
X137828599Y-78000485D01*
X137833759Y-77948099D01*
X137847966Y-77901263D01*
X137871032Y-77858110D01*
X137902079Y-77820279D01*
X137939910Y-77789232D01*
X137983063Y-77766166D01*
X138029899Y-77751959D01*
X138082285Y-77746799D01*
X138824913Y-77746799D01*
X138877299Y-77751959D01*
X138877299Y-77751959D01*
G37*
G36*
X137127299Y-77751959D02*
G01*
X137174135Y-77766166D01*
X137217288Y-77789232D01*
X137255119Y-77820279D01*
X137286166Y-77858110D01*
X137309232Y-77901263D01*
X137323439Y-77948099D01*
X137328599Y-78000485D01*
X137328599Y-78643113D01*
X137323439Y-78695499D01*
X137309232Y-78742335D01*
X137286166Y-78785488D01*
X137255119Y-78823319D01*
X137217288Y-78854366D01*
X137174135Y-78877432D01*
X137127299Y-78891639D01*
X137074913Y-78896799D01*
X136332285Y-78896799D01*
X136279899Y-78891639D01*
X136233063Y-78877432D01*
X136189910Y-78854366D01*
X136152079Y-78823319D01*
X136121032Y-78785488D01*
X136097966Y-78742335D01*
X136083759Y-78695499D01*
X136078599Y-78643113D01*
X136078599Y-78000485D01*
X136083759Y-77948099D01*
X136097966Y-77901263D01*
X136121032Y-77858110D01*
X136152079Y-77820279D01*
X136189910Y-77789232D01*
X136233063Y-77766166D01*
X136279899Y-77751959D01*
X136332285Y-77746799D01*
X137074913Y-77746799D01*
X137127299Y-77751959D01*
X137127299Y-77751959D01*
G37*
G36*
X207399100Y-77524560D02*
G01*
X207445936Y-77538767D01*
X207489089Y-77561833D01*
X207526920Y-77592880D01*
X207557967Y-77630711D01*
X207581033Y-77673864D01*
X207595240Y-77720700D01*
X207600400Y-77773086D01*
X207600400Y-78515714D01*
X207595240Y-78568100D01*
X207581033Y-78614936D01*
X207557967Y-78658089D01*
X207526920Y-78695920D01*
X207489089Y-78726967D01*
X207445936Y-78750033D01*
X207399100Y-78764240D01*
X207346714Y-78769400D01*
X206704086Y-78769400D01*
X206651700Y-78764240D01*
X206604864Y-78750033D01*
X206561711Y-78726967D01*
X206523880Y-78695920D01*
X206492833Y-78658089D01*
X206469767Y-78614936D01*
X206455560Y-78568100D01*
X206450400Y-78515714D01*
X206450400Y-77773086D01*
X206455560Y-77720700D01*
X206469767Y-77673864D01*
X206492833Y-77630711D01*
X206523880Y-77592880D01*
X206561711Y-77561833D01*
X206604864Y-77538767D01*
X206651700Y-77524560D01*
X206704086Y-77519400D01*
X207346714Y-77519400D01*
X207399100Y-77524560D01*
X207399100Y-77524560D01*
G37*
G36*
X205169831Y-76608423D02*
G01*
X205295339Y-76646496D01*
X205339485Y-76659887D01*
X205495831Y-76743456D01*
X205632875Y-76855925D01*
X205745344Y-76992969D01*
X205828913Y-77149315D01*
X205828914Y-77149319D01*
X205880377Y-77318969D01*
X205897754Y-77495400D01*
X205880377Y-77671831D01*
X205856620Y-77750146D01*
X205828913Y-77841485D01*
X205745344Y-77997831D01*
X205632875Y-78134875D01*
X205495831Y-78247344D01*
X205339485Y-78330913D01*
X205295339Y-78344304D01*
X205169831Y-78382377D01*
X205037607Y-78395400D01*
X204949193Y-78395400D01*
X204816969Y-78382377D01*
X204691461Y-78344304D01*
X204647315Y-78330913D01*
X204490969Y-78247344D01*
X204353925Y-78134875D01*
X204241456Y-77997831D01*
X204157887Y-77841485D01*
X204130180Y-77750146D01*
X204106423Y-77671831D01*
X204089046Y-77495400D01*
X204106423Y-77318969D01*
X204157886Y-77149319D01*
X204157887Y-77149315D01*
X204241456Y-76992969D01*
X204353925Y-76855925D01*
X204490969Y-76743456D01*
X204647315Y-76659887D01*
X204691461Y-76646496D01*
X204816969Y-76608423D01*
X204949193Y-76595400D01*
X205037607Y-76595400D01*
X205169831Y-76608423D01*
X205169831Y-76608423D01*
G37*
G36*
X198273400Y-78395400D02*
G01*
X196473400Y-78395400D01*
X196473400Y-76595400D01*
X198273400Y-76595400D01*
X198273400Y-78395400D01*
X198273400Y-78395400D01*
G37*
G36*
X195624100Y-76925560D02*
G01*
X195670936Y-76939767D01*
X195714089Y-76962833D01*
X195751920Y-76993880D01*
X195782967Y-77031711D01*
X195806033Y-77074864D01*
X195820240Y-77121700D01*
X195825400Y-77174086D01*
X195825400Y-77816714D01*
X195820240Y-77869100D01*
X195806033Y-77915936D01*
X195782967Y-77959089D01*
X195751920Y-77996920D01*
X195714089Y-78027967D01*
X195670936Y-78051033D01*
X195624100Y-78065240D01*
X195571714Y-78070400D01*
X194829086Y-78070400D01*
X194776700Y-78065240D01*
X194729864Y-78051033D01*
X194686711Y-78027967D01*
X194648880Y-77996920D01*
X194617833Y-77959089D01*
X194594767Y-77915936D01*
X194580560Y-77869100D01*
X194575400Y-77816714D01*
X194575400Y-77174086D01*
X194580560Y-77121700D01*
X194594767Y-77074864D01*
X194617833Y-77031711D01*
X194648880Y-76993880D01*
X194686711Y-76962833D01*
X194729864Y-76939767D01*
X194776700Y-76925560D01*
X194829086Y-76920400D01*
X195571714Y-76920400D01*
X195624100Y-76925560D01*
X195624100Y-76925560D01*
G37*
G36*
X193874100Y-76925560D02*
G01*
X193920936Y-76939767D01*
X193964089Y-76962833D01*
X194001920Y-76993880D01*
X194032967Y-77031711D01*
X194056033Y-77074864D01*
X194070240Y-77121700D01*
X194075400Y-77174086D01*
X194075400Y-77816714D01*
X194070240Y-77869100D01*
X194056033Y-77915936D01*
X194032967Y-77959089D01*
X194001920Y-77996920D01*
X193964089Y-78027967D01*
X193920936Y-78051033D01*
X193874100Y-78065240D01*
X193821714Y-78070400D01*
X193079086Y-78070400D01*
X193026700Y-78065240D01*
X192979864Y-78051033D01*
X192936711Y-78027967D01*
X192898880Y-77996920D01*
X192867833Y-77959089D01*
X192844767Y-77915936D01*
X192830560Y-77869100D01*
X192825400Y-77816714D01*
X192825400Y-77174086D01*
X192830560Y-77121700D01*
X192844767Y-77074864D01*
X192867833Y-77031711D01*
X192898880Y-76993880D01*
X192936711Y-76962833D01*
X192979864Y-76939767D01*
X193026700Y-76925560D01*
X193079086Y-76920400D01*
X193821714Y-76920400D01*
X193874100Y-76925560D01*
X193874100Y-76925560D01*
G37*
G36*
X175303500Y-75949760D02*
G01*
X175350336Y-75963967D01*
X175393489Y-75987033D01*
X175431320Y-76018080D01*
X175462367Y-76055911D01*
X175485433Y-76099064D01*
X175499640Y-76145900D01*
X175504800Y-76198286D01*
X175504800Y-76940914D01*
X175499640Y-76993300D01*
X175485433Y-77040136D01*
X175462367Y-77083289D01*
X175431320Y-77121120D01*
X175393489Y-77152167D01*
X175350336Y-77175233D01*
X175303500Y-77189440D01*
X175251114Y-77194600D01*
X174608486Y-77194600D01*
X174556100Y-77189440D01*
X174509264Y-77175233D01*
X174466111Y-77152167D01*
X174428280Y-77121120D01*
X174397233Y-77083289D01*
X174374167Y-77040136D01*
X174359960Y-76993300D01*
X174354800Y-76940914D01*
X174354800Y-76198286D01*
X174359960Y-76145900D01*
X174374167Y-76099064D01*
X174397233Y-76055911D01*
X174428280Y-76018080D01*
X174466111Y-75987033D01*
X174509264Y-75963967D01*
X174556100Y-75949760D01*
X174608486Y-75944600D01*
X175251114Y-75944600D01*
X175303500Y-75949760D01*
X175303500Y-75949760D01*
G37*
G36*
X173550900Y-75949760D02*
G01*
X173597736Y-75963967D01*
X173640889Y-75987033D01*
X173678720Y-76018080D01*
X173709767Y-76055911D01*
X173732833Y-76099064D01*
X173747040Y-76145900D01*
X173752200Y-76198286D01*
X173752200Y-76940914D01*
X173747040Y-76993300D01*
X173732833Y-77040136D01*
X173709767Y-77083289D01*
X173678720Y-77121120D01*
X173640889Y-77152167D01*
X173597736Y-77175233D01*
X173550900Y-77189440D01*
X173498514Y-77194600D01*
X172855886Y-77194600D01*
X172803500Y-77189440D01*
X172756664Y-77175233D01*
X172713511Y-77152167D01*
X172675680Y-77121120D01*
X172644633Y-77083289D01*
X172621567Y-77040136D01*
X172607360Y-76993300D01*
X172602200Y-76940914D01*
X172602200Y-76198286D01*
X172607360Y-76145900D01*
X172621567Y-76099064D01*
X172644633Y-76055911D01*
X172675680Y-76018080D01*
X172713511Y-75987033D01*
X172756664Y-75963967D01*
X172803500Y-75949760D01*
X172855886Y-75944600D01*
X173498514Y-75944600D01*
X173550900Y-75949760D01*
X173550900Y-75949760D01*
G37*
G36*
X131253832Y-75210146D02*
G01*
X131432908Y-75264468D01*
X131597945Y-75352682D01*
X131742601Y-75471399D01*
X131861318Y-75616055D01*
X131949532Y-75781092D01*
X132003854Y-75960168D01*
X132022196Y-76146400D01*
X132003854Y-76332632D01*
X131949532Y-76511708D01*
X131861318Y-76676745D01*
X131742601Y-76821401D01*
X131597945Y-76940118D01*
X131597943Y-76940119D01*
X131453883Y-77017121D01*
X131432908Y-77028332D01*
X131253832Y-77082654D01*
X131114265Y-77096400D01*
X131020935Y-77096400D01*
X130881368Y-77082654D01*
X130702292Y-77028332D01*
X130681318Y-77017121D01*
X130537257Y-76940119D01*
X130537255Y-76940118D01*
X130392599Y-76821401D01*
X130273882Y-76676745D01*
X130185668Y-76511708D01*
X130131346Y-76332632D01*
X130113004Y-76146400D01*
X130131346Y-75960168D01*
X130185668Y-75781092D01*
X130273882Y-75616055D01*
X130392599Y-75471399D01*
X130537255Y-75352682D01*
X130702292Y-75264468D01*
X130881368Y-75210146D01*
X131020935Y-75196400D01*
X131114265Y-75196400D01*
X131253832Y-75210146D01*
X131253832Y-75210146D01*
G37*
G36*
X137265800Y-75525200D02*
G01*
X136515800Y-75525200D01*
X136515800Y-75025200D01*
X137265800Y-75025200D01*
X137265800Y-75525200D01*
X137265800Y-75525200D01*
G37*
G36*
X135365800Y-75525200D02*
G01*
X134615800Y-75525200D01*
X134615800Y-75025200D01*
X135365800Y-75025200D01*
X135365800Y-75525200D01*
X135365800Y-75525200D01*
G37*
G36*
X135365800Y-74875200D02*
G01*
X134615800Y-74875200D01*
X134615800Y-74375200D01*
X135365800Y-74375200D01*
X135365800Y-74875200D01*
X135365800Y-74875200D01*
G37*
G36*
X137265800Y-74875200D02*
G01*
X136515800Y-74875200D01*
X136515800Y-74375200D01*
X137265800Y-74375200D01*
X137265800Y-74875200D01*
X137265800Y-74875200D01*
G37*
G36*
X171085600Y-74744000D02*
G01*
X169985600Y-74744000D01*
X169985600Y-72544000D01*
X171085600Y-72544000D01*
X171085600Y-74744000D01*
X171085600Y-74744000D01*
G37*
G36*
X182515600Y-74744000D02*
G01*
X181415600Y-74744000D01*
X181415600Y-72544000D01*
X182515600Y-72544000D01*
X182515600Y-74744000D01*
X182515600Y-74744000D01*
G37*
G36*
X181245600Y-74744000D02*
G01*
X180145600Y-74744000D01*
X180145600Y-72544000D01*
X181245600Y-72544000D01*
X181245600Y-74744000D01*
X181245600Y-74744000D01*
G37*
G36*
X179975600Y-74744000D02*
G01*
X178875600Y-74744000D01*
X178875600Y-72544000D01*
X179975600Y-72544000D01*
X179975600Y-74744000D01*
X179975600Y-74744000D01*
G37*
G36*
X178705600Y-74744000D02*
G01*
X177605600Y-74744000D01*
X177605600Y-72544000D01*
X178705600Y-72544000D01*
X178705600Y-74744000D01*
X178705600Y-74744000D01*
G37*
G36*
X176165600Y-74744000D02*
G01*
X175065600Y-74744000D01*
X175065600Y-72544000D01*
X176165600Y-72544000D01*
X176165600Y-74744000D01*
X176165600Y-74744000D01*
G37*
G36*
X177435600Y-74744000D02*
G01*
X176335600Y-74744000D01*
X176335600Y-72544000D01*
X177435600Y-72544000D01*
X177435600Y-74744000D01*
X177435600Y-74744000D01*
G37*
G36*
X172355600Y-74744000D02*
G01*
X171255600Y-74744000D01*
X171255600Y-72544000D01*
X172355600Y-72544000D01*
X172355600Y-74744000D01*
X172355600Y-74744000D01*
G37*
G36*
X173625600Y-74744000D02*
G01*
X172525600Y-74744000D01*
X172525600Y-72544000D01*
X173625600Y-72544000D01*
X173625600Y-74744000D01*
X173625600Y-74744000D01*
G37*
G36*
X174895600Y-74744000D02*
G01*
X173795600Y-74744000D01*
X173795600Y-72544000D01*
X174895600Y-72544000D01*
X174895600Y-74744000D01*
X174895600Y-74744000D01*
G37*
G36*
X131253832Y-72670146D02*
G01*
X131432908Y-72724468D01*
X131597945Y-72812682D01*
X131742601Y-72931399D01*
X131861318Y-73076055D01*
X131949532Y-73241092D01*
X132003854Y-73420168D01*
X132022196Y-73606400D01*
X132003854Y-73792632D01*
X131949532Y-73971708D01*
X131949530Y-73971711D01*
X131949530Y-73971712D01*
X131927507Y-74012914D01*
X131861318Y-74136745D01*
X131742601Y-74281401D01*
X131597945Y-74400118D01*
X131432908Y-74488332D01*
X131253832Y-74542654D01*
X131114265Y-74556400D01*
X131020935Y-74556400D01*
X130881368Y-74542654D01*
X130702292Y-74488332D01*
X130537255Y-74400118D01*
X130392599Y-74281401D01*
X130273882Y-74136745D01*
X130207693Y-74012914D01*
X130185670Y-73971712D01*
X130185670Y-73971711D01*
X130185668Y-73971708D01*
X130131346Y-73792632D01*
X130113004Y-73606400D01*
X130131346Y-73420168D01*
X130185668Y-73241092D01*
X130273882Y-73076055D01*
X130392599Y-72931399D01*
X130537255Y-72812682D01*
X130702292Y-72724468D01*
X130881368Y-72670146D01*
X131020935Y-72656400D01*
X131114265Y-72656400D01*
X131253832Y-72670146D01*
X131253832Y-72670146D01*
G37*
G36*
X137265800Y-74225200D02*
G01*
X136515800Y-74225200D01*
X136515800Y-73725200D01*
X137265800Y-73725200D01*
X137265800Y-74225200D01*
X137265800Y-74225200D01*
G37*
G36*
X135365800Y-74225200D02*
G01*
X134615800Y-74225200D01*
X134615800Y-73725200D01*
X135365800Y-73725200D01*
X135365800Y-74225200D01*
X135365800Y-74225200D01*
G37*
G36*
X205169831Y-72290423D02*
G01*
X205295339Y-72328496D01*
X205339485Y-72341887D01*
X205495831Y-72425456D01*
X205632875Y-72537925D01*
X205745344Y-72674969D01*
X205828913Y-72831315D01*
X205828914Y-72831319D01*
X205880377Y-73000969D01*
X205897754Y-73177400D01*
X205880377Y-73353831D01*
X205860254Y-73420168D01*
X205828913Y-73523485D01*
X205745344Y-73679831D01*
X205632875Y-73816875D01*
X205495831Y-73929344D01*
X205339485Y-74012913D01*
X205295339Y-74026304D01*
X205169831Y-74064377D01*
X205037607Y-74077400D01*
X204949193Y-74077400D01*
X204816969Y-74064377D01*
X204691461Y-74026304D01*
X204647315Y-74012913D01*
X204490969Y-73929344D01*
X204353925Y-73816875D01*
X204241456Y-73679831D01*
X204157887Y-73523485D01*
X204126546Y-73420168D01*
X204106423Y-73353831D01*
X204089046Y-73177400D01*
X204106423Y-73000969D01*
X204157886Y-72831319D01*
X204157887Y-72831315D01*
X204241456Y-72674969D01*
X204353925Y-72537925D01*
X204490969Y-72425456D01*
X204647315Y-72341887D01*
X204691461Y-72328496D01*
X204816969Y-72290423D01*
X204949193Y-72277400D01*
X205037607Y-72277400D01*
X205169831Y-72290423D01*
X205169831Y-72290423D01*
G37*
G36*
X197549831Y-72290423D02*
G01*
X197675339Y-72328496D01*
X197719485Y-72341887D01*
X197875831Y-72425456D01*
X198012875Y-72537925D01*
X198125344Y-72674969D01*
X198208913Y-72831315D01*
X198208914Y-72831319D01*
X198260377Y-73000969D01*
X198277754Y-73177400D01*
X198260377Y-73353831D01*
X198240254Y-73420168D01*
X198208913Y-73523485D01*
X198125344Y-73679831D01*
X198012875Y-73816875D01*
X197875831Y-73929344D01*
X197719485Y-74012913D01*
X197675339Y-74026304D01*
X197549831Y-74064377D01*
X197417607Y-74077400D01*
X197329193Y-74077400D01*
X197196969Y-74064377D01*
X197071461Y-74026304D01*
X197027315Y-74012913D01*
X196870969Y-73929344D01*
X196733925Y-73816875D01*
X196621456Y-73679831D01*
X196537887Y-73523485D01*
X196506546Y-73420168D01*
X196486423Y-73353831D01*
X196469046Y-73177400D01*
X196486423Y-73000969D01*
X196537886Y-72831319D01*
X196537887Y-72831315D01*
X196621456Y-72674969D01*
X196733925Y-72537925D01*
X196870969Y-72425456D01*
X197027315Y-72341887D01*
X197071461Y-72328496D01*
X197196969Y-72290423D01*
X197329193Y-72277400D01*
X197417607Y-72277400D01*
X197549831Y-72290423D01*
X197549831Y-72290423D01*
G37*
G36*
X185850600Y-73194000D02*
G01*
X183650600Y-73194000D01*
X183650600Y-72094000D01*
X185850600Y-72094000D01*
X185850600Y-73194000D01*
X185850600Y-73194000D01*
G37*
G36*
X168850600Y-73194000D02*
G01*
X166650600Y-73194000D01*
X166650600Y-72094000D01*
X168850600Y-72094000D01*
X168850600Y-73194000D01*
X168850600Y-73194000D01*
G37*
G36*
X131253832Y-70130146D02*
G01*
X131432908Y-70184468D01*
X131597945Y-70272682D01*
X131742601Y-70391399D01*
X131861318Y-70536055D01*
X131861319Y-70536057D01*
X131930829Y-70666100D01*
X131949532Y-70701092D01*
X132003854Y-70880168D01*
X132022196Y-71066400D01*
X132003854Y-71252632D01*
X131949532Y-71431708D01*
X131949530Y-71431711D01*
X131949530Y-71431712D01*
X131927507Y-71472914D01*
X131861318Y-71596745D01*
X131742601Y-71741401D01*
X131597945Y-71860118D01*
X131432908Y-71948332D01*
X131253832Y-72002654D01*
X131114265Y-72016400D01*
X131020935Y-72016400D01*
X130881368Y-72002654D01*
X130702292Y-71948332D01*
X130537255Y-71860118D01*
X130392599Y-71741401D01*
X130273882Y-71596745D01*
X130207693Y-71472914D01*
X130185670Y-71431712D01*
X130185670Y-71431711D01*
X130185668Y-71431708D01*
X130131346Y-71252632D01*
X130113004Y-71066400D01*
X130131346Y-70880168D01*
X130185668Y-70701092D01*
X130204372Y-70666100D01*
X130273881Y-70536057D01*
X130273882Y-70536055D01*
X130392599Y-70391399D01*
X130537255Y-70272682D01*
X130702292Y-70184468D01*
X130881368Y-70130146D01*
X131020935Y-70116400D01*
X131114265Y-70116400D01*
X131253832Y-70130146D01*
X131253832Y-70130146D01*
G37*
G36*
X185850600Y-71924000D02*
G01*
X183650600Y-71924000D01*
X183650600Y-70824000D01*
X185850600Y-70824000D01*
X185850600Y-71924000D01*
X185850600Y-71924000D01*
G37*
G36*
X168850600Y-71924000D02*
G01*
X166650600Y-71924000D01*
X166650600Y-70824000D01*
X168850600Y-70824000D01*
X168850600Y-71924000D01*
X168850600Y-71924000D01*
G37*
G36*
X211576751Y-70122143D02*
G01*
X211722345Y-70182450D01*
X211853371Y-70269999D01*
X211964801Y-70381429D01*
X212052350Y-70512455D01*
X212112657Y-70658049D01*
X212143400Y-70812606D01*
X212143400Y-70970194D01*
X212112657Y-71124751D01*
X212052350Y-71270345D01*
X211964801Y-71401371D01*
X211853371Y-71512801D01*
X211722345Y-71600350D01*
X211576751Y-71660657D01*
X211422194Y-71691400D01*
X211264606Y-71691400D01*
X211110049Y-71660657D01*
X210964455Y-71600350D01*
X210833429Y-71512801D01*
X210721999Y-71401371D01*
X210634450Y-71270345D01*
X210574143Y-71124751D01*
X210543400Y-70970194D01*
X210543400Y-70812606D01*
X210574143Y-70658049D01*
X210634450Y-70512455D01*
X210721999Y-70381429D01*
X210833429Y-70269999D01*
X210964455Y-70182450D01*
X211110049Y-70122143D01*
X211264606Y-70091400D01*
X211422194Y-70091400D01*
X211576751Y-70122143D01*
X211576751Y-70122143D01*
G37*
G36*
X219196751Y-70122143D02*
G01*
X219342345Y-70182450D01*
X219473371Y-70269999D01*
X219584801Y-70381429D01*
X219672350Y-70512455D01*
X219732657Y-70658049D01*
X219763400Y-70812606D01*
X219763400Y-70970194D01*
X219732657Y-71124751D01*
X219672350Y-71270345D01*
X219584801Y-71401371D01*
X219473371Y-71512801D01*
X219342345Y-71600350D01*
X219196751Y-71660657D01*
X219042194Y-71691400D01*
X218884606Y-71691400D01*
X218730049Y-71660657D01*
X218584455Y-71600350D01*
X218453429Y-71512801D01*
X218341999Y-71401371D01*
X218254450Y-71270345D01*
X218194143Y-71124751D01*
X218163400Y-70970194D01*
X218163400Y-70812606D01*
X218194143Y-70658049D01*
X218254450Y-70512455D01*
X218341999Y-70381429D01*
X218453429Y-70269999D01*
X218584455Y-70182450D01*
X218730049Y-70122143D01*
X218884606Y-70091400D01*
X219042194Y-70091400D01*
X219196751Y-70122143D01*
X219196751Y-70122143D01*
G37*
G36*
X205169831Y-69750423D02*
G01*
X205295339Y-69788496D01*
X205339485Y-69801887D01*
X205495831Y-69885456D01*
X205632875Y-69997925D01*
X205745344Y-70134969D01*
X205828913Y-70291315D01*
X205828914Y-70291319D01*
X205880377Y-70460969D01*
X205897754Y-70637400D01*
X205880377Y-70813831D01*
X205865692Y-70862240D01*
X205828913Y-70983485D01*
X205745344Y-71139831D01*
X205632875Y-71276875D01*
X205495831Y-71389344D01*
X205339485Y-71472913D01*
X205295339Y-71486304D01*
X205169831Y-71524377D01*
X205037607Y-71537400D01*
X204949193Y-71537400D01*
X204816969Y-71524377D01*
X204691461Y-71486304D01*
X204647315Y-71472913D01*
X204490969Y-71389344D01*
X204353925Y-71276875D01*
X204241456Y-71139831D01*
X204157887Y-70983485D01*
X204121108Y-70862240D01*
X204106423Y-70813831D01*
X204089046Y-70637400D01*
X204106423Y-70460969D01*
X204157886Y-70291319D01*
X204157887Y-70291315D01*
X204241456Y-70134969D01*
X204353925Y-69997925D01*
X204490969Y-69885456D01*
X204647315Y-69801887D01*
X204691461Y-69788496D01*
X204816969Y-69750423D01*
X204949193Y-69737400D01*
X205037607Y-69737400D01*
X205169831Y-69750423D01*
X205169831Y-69750423D01*
G37*
G36*
X197549831Y-69750423D02*
G01*
X197675339Y-69788496D01*
X197719485Y-69801887D01*
X197875831Y-69885456D01*
X198012875Y-69997925D01*
X198125344Y-70134969D01*
X198208913Y-70291315D01*
X198208914Y-70291319D01*
X198260377Y-70460969D01*
X198277754Y-70637400D01*
X198260377Y-70813831D01*
X198245692Y-70862240D01*
X198208913Y-70983485D01*
X198125344Y-71139831D01*
X198012875Y-71276875D01*
X197875831Y-71389344D01*
X197719485Y-71472913D01*
X197675339Y-71486304D01*
X197549831Y-71524377D01*
X197417607Y-71537400D01*
X197329193Y-71537400D01*
X197196969Y-71524377D01*
X197071461Y-71486304D01*
X197027315Y-71472913D01*
X196870969Y-71389344D01*
X196733925Y-71276875D01*
X196621456Y-71139831D01*
X196537887Y-70983485D01*
X196501108Y-70862240D01*
X196486423Y-70813831D01*
X196469046Y-70637400D01*
X196486423Y-70460969D01*
X196537886Y-70291319D01*
X196537887Y-70291315D01*
X196621456Y-70134969D01*
X196733925Y-69997925D01*
X196870969Y-69885456D01*
X197027315Y-69801887D01*
X197071461Y-69788496D01*
X197196969Y-69750423D01*
X197329193Y-69737400D01*
X197417607Y-69737400D01*
X197549831Y-69750423D01*
X197549831Y-69750423D01*
G37*
G36*
X207399100Y-69622560D02*
G01*
X207445936Y-69636767D01*
X207489089Y-69659833D01*
X207526920Y-69690880D01*
X207557967Y-69728711D01*
X207581033Y-69771864D01*
X207595240Y-69818700D01*
X207600400Y-69871086D01*
X207600400Y-70613714D01*
X207595240Y-70666100D01*
X207581033Y-70712936D01*
X207557967Y-70756089D01*
X207526920Y-70793920D01*
X207489089Y-70824967D01*
X207445936Y-70848033D01*
X207399100Y-70862240D01*
X207346714Y-70867400D01*
X206704086Y-70867400D01*
X206651700Y-70862240D01*
X206604864Y-70848033D01*
X206561711Y-70824967D01*
X206523880Y-70793920D01*
X206492833Y-70756089D01*
X206469767Y-70712936D01*
X206455560Y-70666100D01*
X206450400Y-70613714D01*
X206450400Y-69871086D01*
X206455560Y-69818700D01*
X206469767Y-69771864D01*
X206492833Y-69728711D01*
X206523880Y-69690880D01*
X206561711Y-69659833D01*
X206604864Y-69636767D01*
X206651700Y-69622560D01*
X206704086Y-69617400D01*
X207346714Y-69617400D01*
X207399100Y-69622560D01*
X207399100Y-69622560D01*
G37*
G36*
X168850600Y-70654000D02*
G01*
X166650600Y-70654000D01*
X166650600Y-69554000D01*
X168850600Y-69554000D01*
X168850600Y-70654000D01*
X168850600Y-70654000D01*
G37*
G36*
X185850600Y-70654000D02*
G01*
X183650600Y-70654000D01*
X183650600Y-69554000D01*
X185850600Y-69554000D01*
X185850600Y-70654000D01*
X185850600Y-70654000D01*
G37*
G36*
X131253832Y-67590146D02*
G01*
X131432908Y-67644468D01*
X131597945Y-67732682D01*
X131742601Y-67851399D01*
X131861318Y-67996055D01*
X131949532Y-68161092D01*
X132003854Y-68340168D01*
X132022196Y-68526400D01*
X132003854Y-68712632D01*
X131949532Y-68891708D01*
X131949530Y-68891711D01*
X131949530Y-68891712D01*
X131927507Y-68932914D01*
X131861318Y-69056745D01*
X131742601Y-69201401D01*
X131597945Y-69320118D01*
X131432908Y-69408332D01*
X131253832Y-69462654D01*
X131114265Y-69476400D01*
X131020935Y-69476400D01*
X130881368Y-69462654D01*
X130702292Y-69408332D01*
X130537255Y-69320118D01*
X130392599Y-69201401D01*
X130273882Y-69056745D01*
X130207693Y-68932914D01*
X130185670Y-68891712D01*
X130185670Y-68891711D01*
X130185668Y-68891708D01*
X130131346Y-68712632D01*
X130113004Y-68526400D01*
X130131346Y-68340168D01*
X130185668Y-68161092D01*
X130273882Y-67996055D01*
X130392599Y-67851399D01*
X130537255Y-67732682D01*
X130702292Y-67644468D01*
X130881368Y-67590146D01*
X131020935Y-67576400D01*
X131114265Y-67576400D01*
X131253832Y-67590146D01*
X131253832Y-67590146D01*
G37*
G36*
X185850600Y-69384000D02*
G01*
X183650600Y-69384000D01*
X183650600Y-68284000D01*
X185850600Y-68284000D01*
X185850600Y-69384000D01*
X185850600Y-69384000D01*
G37*
G36*
X168850600Y-69384000D02*
G01*
X166650600Y-69384000D01*
X166650600Y-68284000D01*
X168850600Y-68284000D01*
X168850600Y-69384000D01*
X168850600Y-69384000D01*
G37*
G36*
X212143400Y-69151400D02*
G01*
X210543400Y-69151400D01*
X210543400Y-67551400D01*
X212143400Y-67551400D01*
X212143400Y-69151400D01*
X212143400Y-69151400D01*
G37*
G36*
X219196751Y-67582143D02*
G01*
X219342345Y-67642450D01*
X219473371Y-67729999D01*
X219584801Y-67841429D01*
X219672350Y-67972455D01*
X219732657Y-68118049D01*
X219763400Y-68272606D01*
X219763400Y-68430194D01*
X219732657Y-68584751D01*
X219672350Y-68730345D01*
X219584801Y-68861371D01*
X219473371Y-68972801D01*
X219342345Y-69060350D01*
X219196751Y-69120657D01*
X219042194Y-69151400D01*
X218884606Y-69151400D01*
X218730049Y-69120657D01*
X218584455Y-69060350D01*
X218453429Y-68972801D01*
X218341999Y-68861371D01*
X218254450Y-68730345D01*
X218194143Y-68584751D01*
X218163400Y-68430194D01*
X218163400Y-68272606D01*
X218194143Y-68118049D01*
X218254450Y-67972455D01*
X218341999Y-67841429D01*
X218453429Y-67729999D01*
X218584455Y-67642450D01*
X218730049Y-67582143D01*
X218884606Y-67551400D01*
X219042194Y-67551400D01*
X219196751Y-67582143D01*
X219196751Y-67582143D01*
G37*
G36*
X207399100Y-67872560D02*
G01*
X207445936Y-67886767D01*
X207489089Y-67909833D01*
X207526920Y-67940880D01*
X207557967Y-67978711D01*
X207581033Y-68021864D01*
X207595240Y-68068700D01*
X207600400Y-68121086D01*
X207600400Y-68863714D01*
X207595240Y-68916100D01*
X207581033Y-68962936D01*
X207557967Y-69006089D01*
X207526920Y-69043920D01*
X207489089Y-69074967D01*
X207445936Y-69098033D01*
X207399100Y-69112240D01*
X207346714Y-69117400D01*
X206704086Y-69117400D01*
X206651700Y-69112240D01*
X206604864Y-69098033D01*
X206561711Y-69074967D01*
X206523880Y-69043920D01*
X206492833Y-69006089D01*
X206469767Y-68962936D01*
X206455560Y-68916100D01*
X206450400Y-68863714D01*
X206450400Y-68121086D01*
X206455560Y-68068700D01*
X206469767Y-68021864D01*
X206492833Y-67978711D01*
X206523880Y-67940880D01*
X206561711Y-67909833D01*
X206604864Y-67886767D01*
X206651700Y-67872560D01*
X206704086Y-67867400D01*
X207346714Y-67867400D01*
X207399100Y-67872560D01*
X207399100Y-67872560D01*
G37*
G36*
X198273400Y-68997400D02*
G01*
X196473400Y-68997400D01*
X196473400Y-67197400D01*
X198273400Y-67197400D01*
X198273400Y-68997400D01*
X198273400Y-68997400D01*
G37*
G36*
X205169831Y-67210423D02*
G01*
X205295339Y-67248496D01*
X205339485Y-67261887D01*
X205495831Y-67345456D01*
X205632875Y-67457925D01*
X205745344Y-67594969D01*
X205828913Y-67751315D01*
X205828914Y-67751319D01*
X205880377Y-67920969D01*
X205897754Y-68097400D01*
X205880377Y-68273831D01*
X205877292Y-68284000D01*
X205828913Y-68443485D01*
X205745344Y-68599831D01*
X205632875Y-68736875D01*
X205495831Y-68849344D01*
X205339485Y-68932913D01*
X205316382Y-68939921D01*
X205169831Y-68984377D01*
X205037607Y-68997400D01*
X204949193Y-68997400D01*
X204816969Y-68984377D01*
X204670418Y-68939921D01*
X204647315Y-68932913D01*
X204490969Y-68849344D01*
X204353925Y-68736875D01*
X204241456Y-68599831D01*
X204157887Y-68443485D01*
X204109508Y-68284000D01*
X204106423Y-68273831D01*
X204089046Y-68097400D01*
X204106423Y-67920969D01*
X204157886Y-67751319D01*
X204157887Y-67751315D01*
X204241456Y-67594969D01*
X204353925Y-67457925D01*
X204490969Y-67345456D01*
X204647315Y-67261887D01*
X204691461Y-67248496D01*
X204816969Y-67210423D01*
X204949193Y-67197400D01*
X205037607Y-67197400D01*
X205169831Y-67210423D01*
X205169831Y-67210423D01*
G37*
G36*
X221810900Y-67615960D02*
G01*
X221857736Y-67630167D01*
X221900889Y-67653233D01*
X221938720Y-67684280D01*
X221969767Y-67722111D01*
X221992833Y-67765264D01*
X222007040Y-67812100D01*
X222012200Y-67864486D01*
X222012200Y-68607114D01*
X222007040Y-68659500D01*
X221992833Y-68706336D01*
X221969767Y-68749489D01*
X221938720Y-68787320D01*
X221900889Y-68818367D01*
X221857736Y-68841433D01*
X221810900Y-68855640D01*
X221758514Y-68860800D01*
X221115886Y-68860800D01*
X221063500Y-68855640D01*
X221016664Y-68841433D01*
X220973511Y-68818367D01*
X220935680Y-68787320D01*
X220904633Y-68749489D01*
X220881567Y-68706336D01*
X220867360Y-68659500D01*
X220862200Y-68607114D01*
X220862200Y-67864486D01*
X220867360Y-67812100D01*
X220881567Y-67765264D01*
X220904633Y-67722111D01*
X220935680Y-67684280D01*
X220973511Y-67653233D01*
X221016664Y-67630167D01*
X221063500Y-67615960D01*
X221115886Y-67610800D01*
X221758514Y-67610800D01*
X221810900Y-67615960D01*
X221810900Y-67615960D01*
G37*
G36*
X193874100Y-67527560D02*
G01*
X193920936Y-67541767D01*
X193964089Y-67564833D01*
X194001920Y-67595880D01*
X194032967Y-67633711D01*
X194056033Y-67676864D01*
X194070240Y-67723700D01*
X194075400Y-67776086D01*
X194075400Y-68418714D01*
X194070240Y-68471100D01*
X194056033Y-68517936D01*
X194032967Y-68561089D01*
X194001920Y-68598920D01*
X193964089Y-68629967D01*
X193920936Y-68653033D01*
X193874100Y-68667240D01*
X193821714Y-68672400D01*
X193079086Y-68672400D01*
X193026700Y-68667240D01*
X192979864Y-68653033D01*
X192936711Y-68629967D01*
X192898880Y-68598920D01*
X192867833Y-68561089D01*
X192844767Y-68517936D01*
X192830560Y-68471100D01*
X192825400Y-68418714D01*
X192825400Y-67776086D01*
X192830560Y-67723700D01*
X192844767Y-67676864D01*
X192867833Y-67633711D01*
X192898880Y-67595880D01*
X192936711Y-67564833D01*
X192979864Y-67541767D01*
X193026700Y-67527560D01*
X193079086Y-67522400D01*
X193821714Y-67522400D01*
X193874100Y-67527560D01*
X193874100Y-67527560D01*
G37*
G36*
X195624100Y-67527560D02*
G01*
X195670936Y-67541767D01*
X195714089Y-67564833D01*
X195751920Y-67595880D01*
X195782967Y-67633711D01*
X195806033Y-67676864D01*
X195820240Y-67723700D01*
X195825400Y-67776086D01*
X195825400Y-68418714D01*
X195820240Y-68471100D01*
X195806033Y-68517936D01*
X195782967Y-68561089D01*
X195751920Y-68598920D01*
X195714089Y-68629967D01*
X195670936Y-68653033D01*
X195624100Y-68667240D01*
X195571714Y-68672400D01*
X194829086Y-68672400D01*
X194776700Y-68667240D01*
X194729864Y-68653033D01*
X194686711Y-68629967D01*
X194648880Y-68598920D01*
X194617833Y-68561089D01*
X194594767Y-68517936D01*
X194580560Y-68471100D01*
X194575400Y-68418714D01*
X194575400Y-67776086D01*
X194580560Y-67723700D01*
X194594767Y-67676864D01*
X194617833Y-67633711D01*
X194648880Y-67595880D01*
X194686711Y-67564833D01*
X194729864Y-67541767D01*
X194776700Y-67527560D01*
X194829086Y-67522400D01*
X195571714Y-67522400D01*
X195624100Y-67527560D01*
X195624100Y-67527560D01*
G37*
G36*
X168850600Y-68114000D02*
G01*
X166650600Y-68114000D01*
X166650600Y-67014000D01*
X168850600Y-67014000D01*
X168850600Y-68114000D01*
X168850600Y-68114000D01*
G37*
G36*
X185850600Y-68114000D02*
G01*
X183650600Y-68114000D01*
X183650600Y-67014000D01*
X185850600Y-67014000D01*
X185850600Y-68114000D01*
X185850600Y-68114000D01*
G37*
G36*
X221810900Y-65865960D02*
G01*
X221857736Y-65880167D01*
X221900889Y-65903233D01*
X221938720Y-65934280D01*
X221969767Y-65972111D01*
X221992833Y-66015264D01*
X222007040Y-66062100D01*
X222012200Y-66114486D01*
X222012200Y-66857114D01*
X222007040Y-66909500D01*
X221992833Y-66956336D01*
X221969767Y-66999489D01*
X221938720Y-67037320D01*
X221900889Y-67068367D01*
X221857736Y-67091433D01*
X221810900Y-67105640D01*
X221758514Y-67110800D01*
X221115886Y-67110800D01*
X221063500Y-67105640D01*
X221016664Y-67091433D01*
X220973511Y-67068367D01*
X220935680Y-67037320D01*
X220904633Y-66999489D01*
X220881567Y-66956336D01*
X220867360Y-66909500D01*
X220862200Y-66857114D01*
X220862200Y-66114486D01*
X220867360Y-66062100D01*
X220881567Y-66015264D01*
X220904633Y-65972111D01*
X220935680Y-65934280D01*
X220973511Y-65903233D01*
X221016664Y-65880167D01*
X221063500Y-65865960D01*
X221115886Y-65860800D01*
X221758514Y-65860800D01*
X221810900Y-65865960D01*
X221810900Y-65865960D01*
G37*
G36*
X131253832Y-65050146D02*
G01*
X131432908Y-65104468D01*
X131597945Y-65192682D01*
X131742601Y-65311399D01*
X131861318Y-65456055D01*
X131949532Y-65621092D01*
X132003854Y-65800168D01*
X132022196Y-65986400D01*
X132003854Y-66172632D01*
X131949532Y-66351708D01*
X131861318Y-66516745D01*
X131742601Y-66661401D01*
X131597945Y-66780118D01*
X131597943Y-66780119D01*
X131453896Y-66857114D01*
X131432908Y-66868332D01*
X131253832Y-66922654D01*
X131114265Y-66936400D01*
X131020935Y-66936400D01*
X130881368Y-66922654D01*
X130702292Y-66868332D01*
X130681305Y-66857114D01*
X130537257Y-66780119D01*
X130537255Y-66780118D01*
X130392599Y-66661401D01*
X130273882Y-66516745D01*
X130185668Y-66351708D01*
X130131346Y-66172632D01*
X130113004Y-65986400D01*
X130131346Y-65800168D01*
X130185668Y-65621092D01*
X130273882Y-65456055D01*
X130392599Y-65311399D01*
X130537255Y-65192682D01*
X130702292Y-65104468D01*
X130881368Y-65050146D01*
X131020935Y-65036400D01*
X131114265Y-65036400D01*
X131253832Y-65050146D01*
X131253832Y-65050146D01*
G37*
G36*
X185850600Y-66844000D02*
G01*
X183650600Y-66844000D01*
X183650600Y-65744000D01*
X185850600Y-65744000D01*
X185850600Y-66844000D01*
X185850600Y-66844000D01*
G37*
G36*
X168850600Y-66844000D02*
G01*
X166650600Y-66844000D01*
X166650600Y-65744000D01*
X168850600Y-65744000D01*
X168850600Y-66844000D01*
X168850600Y-66844000D01*
G37*
G36*
X177850600Y-66234000D02*
G01*
X172650600Y-66234000D01*
X172650600Y-61034000D01*
X177850600Y-61034000D01*
X177850600Y-66234000D01*
X177850600Y-66234000D01*
G37*
G36*
X168850600Y-65574000D02*
G01*
X166650600Y-65574000D01*
X166650600Y-64474000D01*
X168850600Y-64474000D01*
X168850600Y-65574000D01*
X168850600Y-65574000D01*
G37*
G36*
X185850600Y-65574000D02*
G01*
X183650600Y-65574000D01*
X183650600Y-64474000D01*
X185850600Y-64474000D01*
X185850600Y-65574000D01*
X185850600Y-65574000D01*
G37*
G36*
X131253832Y-62510146D02*
G01*
X131432908Y-62564468D01*
X131597945Y-62652682D01*
X131742601Y-62771399D01*
X131861318Y-62916055D01*
X131949532Y-63081092D01*
X132003854Y-63260168D01*
X132022196Y-63446400D01*
X132003854Y-63632632D01*
X131949532Y-63811708D01*
X131861318Y-63976745D01*
X131742601Y-64121401D01*
X131597945Y-64240118D01*
X131432908Y-64328332D01*
X131253832Y-64382654D01*
X131114265Y-64396400D01*
X131020935Y-64396400D01*
X130881368Y-64382654D01*
X130702292Y-64328332D01*
X130537255Y-64240118D01*
X130392599Y-64121401D01*
X130273882Y-63976745D01*
X130185668Y-63811708D01*
X130131346Y-63632632D01*
X130113004Y-63446400D01*
X130131346Y-63260168D01*
X130185668Y-63081092D01*
X130273882Y-62916055D01*
X130392599Y-62771399D01*
X130537255Y-62652682D01*
X130702292Y-62564468D01*
X130881368Y-62510146D01*
X131020935Y-62496400D01*
X131114265Y-62496400D01*
X131253832Y-62510146D01*
X131253832Y-62510146D01*
G37*
G36*
X168850600Y-64304000D02*
G01*
X166650600Y-64304000D01*
X166650600Y-63204000D01*
X168850600Y-63204000D01*
X168850600Y-64304000D01*
X168850600Y-64304000D01*
G37*
G36*
X185850600Y-64304000D02*
G01*
X183650600Y-64304000D01*
X183650600Y-63204000D01*
X185850600Y-63204000D01*
X185850600Y-64304000D01*
X185850600Y-64304000D01*
G37*
G36*
X168850600Y-63034000D02*
G01*
X166650600Y-63034000D01*
X166650600Y-61934000D01*
X168850600Y-61934000D01*
X168850600Y-63034000D01*
X168850600Y-63034000D01*
G37*
G36*
X185850600Y-63034000D02*
G01*
X183650600Y-63034000D01*
X183650600Y-61934000D01*
X185850600Y-61934000D01*
X185850600Y-63034000D01*
X185850600Y-63034000D01*
G37*
G36*
X131253832Y-59970146D02*
G01*
X131432908Y-60024468D01*
X131597945Y-60112682D01*
X131742601Y-60231399D01*
X131861318Y-60376055D01*
X131861319Y-60376057D01*
X131911826Y-60470548D01*
X131949532Y-60541092D01*
X132003854Y-60720168D01*
X132022196Y-60906400D01*
X132003854Y-61092632D01*
X131949532Y-61271708D01*
X131861318Y-61436745D01*
X131742601Y-61581401D01*
X131597945Y-61700118D01*
X131432908Y-61788332D01*
X131253832Y-61842654D01*
X131114265Y-61856400D01*
X131020935Y-61856400D01*
X130881368Y-61842654D01*
X130702292Y-61788332D01*
X130537255Y-61700118D01*
X130392599Y-61581401D01*
X130273882Y-61436745D01*
X130185668Y-61271708D01*
X130131346Y-61092632D01*
X130113004Y-60906400D01*
X130131346Y-60720168D01*
X130185668Y-60541092D01*
X130223375Y-60470548D01*
X130273881Y-60376057D01*
X130273882Y-60376055D01*
X130392599Y-60231399D01*
X130537255Y-60112682D01*
X130702292Y-60024468D01*
X130881368Y-59970146D01*
X131020935Y-59956400D01*
X131114265Y-59956400D01*
X131253832Y-59970146D01*
X131253832Y-59970146D01*
G37*
G36*
X168850600Y-61764000D02*
G01*
X166650600Y-61764000D01*
X166650600Y-60664000D01*
X168850600Y-60664000D01*
X168850600Y-61764000D01*
X168850600Y-61764000D01*
G37*
G36*
X185850600Y-61764000D02*
G01*
X183650600Y-61764000D01*
X183650600Y-60664000D01*
X185850600Y-60664000D01*
X185850600Y-61764000D01*
X185850600Y-61764000D01*
G37*
G36*
X135365800Y-61555200D02*
G01*
X134615800Y-61555200D01*
X134615800Y-61055200D01*
X135365800Y-61055200D01*
X135365800Y-61555200D01*
X135365800Y-61555200D01*
G37*
G36*
X137265800Y-61555200D02*
G01*
X136515800Y-61555200D01*
X136515800Y-61055200D01*
X137265800Y-61055200D01*
X137265800Y-61555200D01*
X137265800Y-61555200D01*
G37*
G36*
X158393626Y-59530181D02*
G01*
X158440661Y-59544449D01*
X158484010Y-59567619D01*
X158522002Y-59598798D01*
X158553181Y-59636790D01*
X158576351Y-59680139D01*
X158590619Y-59727174D01*
X158595800Y-59779774D01*
X158595800Y-60870226D01*
X158590619Y-60922826D01*
X158576351Y-60969861D01*
X158553181Y-61013210D01*
X158522002Y-61051202D01*
X158484010Y-61082381D01*
X158440661Y-61105551D01*
X158393626Y-61119819D01*
X158341026Y-61125000D01*
X157500574Y-61125000D01*
X157447974Y-61119819D01*
X157400939Y-61105551D01*
X157357590Y-61082381D01*
X157319598Y-61051202D01*
X157288419Y-61013210D01*
X157265249Y-60969861D01*
X157250981Y-60922826D01*
X157245800Y-60870226D01*
X157245800Y-59779774D01*
X157250981Y-59727174D01*
X157265249Y-59680139D01*
X157288419Y-59636790D01*
X157319598Y-59598798D01*
X157357590Y-59567619D01*
X157400939Y-59544449D01*
X157447974Y-59530181D01*
X157500574Y-59525000D01*
X158341026Y-59525000D01*
X158393626Y-59530181D01*
X158393626Y-59530181D01*
G37*
G36*
X156343626Y-59530181D02*
G01*
X156390661Y-59544449D01*
X156434010Y-59567619D01*
X156472002Y-59598798D01*
X156503181Y-59636790D01*
X156526351Y-59680139D01*
X156540619Y-59727174D01*
X156545800Y-59779774D01*
X156545800Y-60870226D01*
X156540619Y-60922826D01*
X156526351Y-60969861D01*
X156503181Y-61013210D01*
X156472002Y-61051202D01*
X156434010Y-61082381D01*
X156390661Y-61105551D01*
X156343626Y-61119819D01*
X156291026Y-61125000D01*
X155450574Y-61125000D01*
X155397974Y-61119819D01*
X155350939Y-61105551D01*
X155307590Y-61082381D01*
X155269598Y-61051202D01*
X155238419Y-61013210D01*
X155215249Y-60969861D01*
X155200981Y-60922826D01*
X155195800Y-60870226D01*
X155195800Y-59779774D01*
X155200981Y-59727174D01*
X155215249Y-59680139D01*
X155238419Y-59636790D01*
X155269598Y-59598798D01*
X155307590Y-59567619D01*
X155350939Y-59544449D01*
X155397974Y-59530181D01*
X155450574Y-59525000D01*
X156291026Y-59525000D01*
X156343626Y-59530181D01*
X156343626Y-59530181D01*
G37*
G36*
X137265800Y-60905200D02*
G01*
X136515800Y-60905200D01*
X136515800Y-60405200D01*
X137265800Y-60405200D01*
X137265800Y-60905200D01*
X137265800Y-60905200D01*
G37*
G36*
X135365800Y-60905200D02*
G01*
X134615800Y-60905200D01*
X134615800Y-60405200D01*
X135365800Y-60405200D01*
X135365800Y-60905200D01*
X135365800Y-60905200D01*
G37*
G36*
X188016700Y-59374160D02*
G01*
X188063536Y-59388367D01*
X188106689Y-59411433D01*
X188144520Y-59442480D01*
X188175567Y-59480311D01*
X188198633Y-59523464D01*
X188212840Y-59570300D01*
X188218000Y-59622686D01*
X188218000Y-60265314D01*
X188212840Y-60317700D01*
X188198633Y-60364536D01*
X188175567Y-60407689D01*
X188144520Y-60445520D01*
X188106689Y-60476567D01*
X188063536Y-60499633D01*
X188016700Y-60513840D01*
X187964314Y-60519000D01*
X187221686Y-60519000D01*
X187169300Y-60513840D01*
X187122464Y-60499633D01*
X187079311Y-60476567D01*
X187041480Y-60445520D01*
X187010433Y-60407689D01*
X186987367Y-60364536D01*
X186973160Y-60317700D01*
X186968000Y-60265314D01*
X186968000Y-59622686D01*
X186973160Y-59570300D01*
X186987367Y-59523464D01*
X187010433Y-59480311D01*
X187041480Y-59442480D01*
X187079311Y-59411433D01*
X187122464Y-59388367D01*
X187169300Y-59374160D01*
X187221686Y-59369000D01*
X187964314Y-59369000D01*
X188016700Y-59374160D01*
X188016700Y-59374160D01*
G37*
G36*
X189766700Y-59374160D02*
G01*
X189813536Y-59388367D01*
X189856689Y-59411433D01*
X189894520Y-59442480D01*
X189925567Y-59480311D01*
X189948633Y-59523464D01*
X189962840Y-59570300D01*
X189968000Y-59622686D01*
X189968000Y-60265314D01*
X189962840Y-60317700D01*
X189948633Y-60364536D01*
X189925567Y-60407689D01*
X189894520Y-60445520D01*
X189856689Y-60476567D01*
X189813536Y-60499633D01*
X189766700Y-60513840D01*
X189714314Y-60519000D01*
X188971686Y-60519000D01*
X188919300Y-60513840D01*
X188872464Y-60499633D01*
X188829311Y-60476567D01*
X188791480Y-60445520D01*
X188760433Y-60407689D01*
X188737367Y-60364536D01*
X188723160Y-60317700D01*
X188718000Y-60265314D01*
X188718000Y-59622686D01*
X188723160Y-59570300D01*
X188737367Y-59523464D01*
X188760433Y-59480311D01*
X188791480Y-59442480D01*
X188829311Y-59411433D01*
X188872464Y-59388367D01*
X188919300Y-59374160D01*
X188971686Y-59369000D01*
X189714314Y-59369000D01*
X189766700Y-59374160D01*
X189766700Y-59374160D01*
G37*
G36*
X168850600Y-60494000D02*
G01*
X166650600Y-60494000D01*
X166650600Y-59394000D01*
X168850600Y-59394000D01*
X168850600Y-60494000D01*
X168850600Y-60494000D01*
G37*
G36*
X185850600Y-60494000D02*
G01*
X183650600Y-60494000D01*
X183650600Y-59394000D01*
X185850600Y-59394000D01*
X185850600Y-60494000D01*
X185850600Y-60494000D01*
G37*
G36*
X135365800Y-60255200D02*
G01*
X134615800Y-60255200D01*
X134615800Y-59755200D01*
X135365800Y-59755200D01*
X135365800Y-60255200D01*
X135365800Y-60255200D01*
G37*
G36*
X137265800Y-60255200D02*
G01*
X136515800Y-60255200D01*
X136515800Y-59755200D01*
X137265800Y-59755200D01*
X137265800Y-60255200D01*
X137265800Y-60255200D01*
G37*
G36*
X222639432Y-58194946D02*
G01*
X222818508Y-58249268D01*
X222983545Y-58337482D01*
X223128201Y-58456199D01*
X223246918Y-58600855D01*
X223246919Y-58600857D01*
X223316863Y-58731712D01*
X223335132Y-58765892D01*
X223389454Y-58944968D01*
X223407796Y-59131200D01*
X223389454Y-59317432D01*
X223335132Y-59496508D01*
X223335130Y-59496511D01*
X223335130Y-59496512D01*
X223316889Y-59530639D01*
X223246918Y-59661545D01*
X223128201Y-59806201D01*
X222983545Y-59924918D01*
X222818508Y-60013132D01*
X222639432Y-60067454D01*
X222499865Y-60081200D01*
X222406535Y-60081200D01*
X222266968Y-60067454D01*
X222087892Y-60013132D01*
X221922855Y-59924918D01*
X221778199Y-59806201D01*
X221659482Y-59661545D01*
X221589511Y-59530639D01*
X221571270Y-59496512D01*
X221571270Y-59496511D01*
X221571268Y-59496508D01*
X221516946Y-59317432D01*
X221498604Y-59131200D01*
X221516946Y-58944968D01*
X221571268Y-58765892D01*
X221589538Y-58731712D01*
X221659481Y-58600857D01*
X221659482Y-58600855D01*
X221778199Y-58456199D01*
X221922855Y-58337482D01*
X222087892Y-58249268D01*
X222266968Y-58194946D01*
X222406535Y-58181200D01*
X222499865Y-58181200D01*
X222639432Y-58194946D01*
X222639432Y-58194946D01*
G37*
G36*
X215014300Y-58307360D02*
G01*
X215061136Y-58321567D01*
X215104289Y-58344633D01*
X215142120Y-58375680D01*
X215173167Y-58413511D01*
X215196233Y-58456664D01*
X215210440Y-58503500D01*
X215215600Y-58555886D01*
X215215600Y-59198514D01*
X215210440Y-59250900D01*
X215196233Y-59297736D01*
X215173167Y-59340889D01*
X215142120Y-59378720D01*
X215104289Y-59409767D01*
X215061136Y-59432833D01*
X215014300Y-59447040D01*
X214961914Y-59452200D01*
X214219286Y-59452200D01*
X214166900Y-59447040D01*
X214120064Y-59432833D01*
X214076911Y-59409767D01*
X214039080Y-59378720D01*
X214008033Y-59340889D01*
X213984967Y-59297736D01*
X213970760Y-59250900D01*
X213965600Y-59198514D01*
X213965600Y-58555886D01*
X213970760Y-58503500D01*
X213984967Y-58456664D01*
X214008033Y-58413511D01*
X214039080Y-58375680D01*
X214076911Y-58344633D01*
X214120064Y-58321567D01*
X214166900Y-58307360D01*
X214219286Y-58302200D01*
X214961914Y-58302200D01*
X215014300Y-58307360D01*
X215014300Y-58307360D01*
G37*
G36*
X213264300Y-58307360D02*
G01*
X213311136Y-58321567D01*
X213354289Y-58344633D01*
X213392120Y-58375680D01*
X213423167Y-58413511D01*
X213446233Y-58456664D01*
X213460440Y-58503500D01*
X213465600Y-58555886D01*
X213465600Y-59198514D01*
X213460440Y-59250900D01*
X213446233Y-59297736D01*
X213423167Y-59340889D01*
X213392120Y-59378720D01*
X213354289Y-59409767D01*
X213311136Y-59432833D01*
X213264300Y-59447040D01*
X213211914Y-59452200D01*
X212469286Y-59452200D01*
X212416900Y-59447040D01*
X212370064Y-59432833D01*
X212326911Y-59409767D01*
X212289080Y-59378720D01*
X212258033Y-59340889D01*
X212234967Y-59297736D01*
X212220760Y-59250900D01*
X212215600Y-59198514D01*
X212215600Y-58555886D01*
X212220760Y-58503500D01*
X212234967Y-58456664D01*
X212258033Y-58413511D01*
X212289080Y-58375680D01*
X212326911Y-58344633D01*
X212370064Y-58321567D01*
X212416900Y-58307360D01*
X212469286Y-58302200D01*
X213211914Y-58302200D01*
X213264300Y-58307360D01*
X213264300Y-58307360D01*
G37*
G36*
X131253832Y-57430146D02*
G01*
X131432908Y-57484468D01*
X131597945Y-57572682D01*
X131742601Y-57691399D01*
X131861318Y-57836055D01*
X131861319Y-57836057D01*
X131939488Y-57982300D01*
X131949532Y-58001092D01*
X132003854Y-58180168D01*
X132022196Y-58366400D01*
X132003854Y-58552632D01*
X131949532Y-58731708D01*
X131949530Y-58731711D01*
X131949530Y-58731712D01*
X131931260Y-58765892D01*
X131861318Y-58896745D01*
X131742601Y-59041401D01*
X131597945Y-59160118D01*
X131432908Y-59248332D01*
X131253832Y-59302654D01*
X131114265Y-59316400D01*
X131020935Y-59316400D01*
X130881368Y-59302654D01*
X130702292Y-59248332D01*
X130537255Y-59160118D01*
X130392599Y-59041401D01*
X130273882Y-58896745D01*
X130203940Y-58765892D01*
X130185670Y-58731712D01*
X130185670Y-58731711D01*
X130185668Y-58731708D01*
X130131346Y-58552632D01*
X130113004Y-58366400D01*
X130131346Y-58180168D01*
X130185668Y-58001092D01*
X130195713Y-57982300D01*
X130273881Y-57836057D01*
X130273882Y-57836055D01*
X130392599Y-57691399D01*
X130537255Y-57572682D01*
X130702292Y-57484468D01*
X130881368Y-57430146D01*
X131020935Y-57416400D01*
X131114265Y-57416400D01*
X131253832Y-57430146D01*
X131253832Y-57430146D01*
G37*
G36*
X185850600Y-59224000D02*
G01*
X183650600Y-59224000D01*
X183650600Y-58124000D01*
X185850600Y-58124000D01*
X185850600Y-59224000D01*
X185850600Y-59224000D01*
G37*
G36*
X168850600Y-59224000D02*
G01*
X166650600Y-59224000D01*
X166650600Y-58124000D01*
X168850600Y-58124000D01*
X168850600Y-59224000D01*
X168850600Y-59224000D01*
G37*
G36*
X158285500Y-57786160D02*
G01*
X158332336Y-57800367D01*
X158375489Y-57823433D01*
X158413320Y-57854480D01*
X158444367Y-57892311D01*
X158467433Y-57935464D01*
X158481640Y-57982300D01*
X158486800Y-58034686D01*
X158486800Y-58777314D01*
X158481640Y-58829700D01*
X158467433Y-58876536D01*
X158444367Y-58919689D01*
X158413320Y-58957520D01*
X158375489Y-58988567D01*
X158332336Y-59011633D01*
X158285500Y-59025840D01*
X158233114Y-59031000D01*
X157590486Y-59031000D01*
X157538100Y-59025840D01*
X157491264Y-59011633D01*
X157448111Y-58988567D01*
X157410280Y-58957520D01*
X157379233Y-58919689D01*
X157356167Y-58876536D01*
X157341960Y-58829700D01*
X157336800Y-58777314D01*
X157336800Y-58034686D01*
X157341960Y-57982300D01*
X157356167Y-57935464D01*
X157379233Y-57892311D01*
X157410280Y-57854480D01*
X157448111Y-57823433D01*
X157491264Y-57800367D01*
X157538100Y-57786160D01*
X157590486Y-57781000D01*
X158233114Y-57781000D01*
X158285500Y-57786160D01*
X158285500Y-57786160D01*
G37*
G36*
X168850600Y-57954000D02*
G01*
X166650600Y-57954000D01*
X166650600Y-56854000D01*
X168850600Y-56854000D01*
X168850600Y-57954000D01*
X168850600Y-57954000D01*
G37*
G36*
X185850600Y-57954000D02*
G01*
X183650600Y-57954000D01*
X183650600Y-56854000D01*
X185850600Y-56854000D01*
X185850600Y-57954000D01*
X185850600Y-57954000D01*
G37*
G36*
X222639432Y-55654946D02*
G01*
X222818508Y-55709268D01*
X222983545Y-55797482D01*
X223128201Y-55916199D01*
X223246918Y-56060855D01*
X223335132Y-56225892D01*
X223389454Y-56404968D01*
X223407796Y-56591200D01*
X223389454Y-56777432D01*
X223335132Y-56956508D01*
X223335130Y-56956511D01*
X223335130Y-56956512D01*
X223285380Y-57049588D01*
X223246918Y-57121545D01*
X223128201Y-57266201D01*
X222983545Y-57384918D01*
X222818508Y-57473132D01*
X222639432Y-57527454D01*
X222499865Y-57541200D01*
X222406535Y-57541200D01*
X222266968Y-57527454D01*
X222087892Y-57473132D01*
X221922855Y-57384918D01*
X221778199Y-57266201D01*
X221659482Y-57121545D01*
X221621020Y-57049588D01*
X221571270Y-56956512D01*
X221571270Y-56956511D01*
X221571268Y-56956508D01*
X221516946Y-56777432D01*
X221498604Y-56591200D01*
X221516946Y-56404968D01*
X221571268Y-56225892D01*
X221659482Y-56060855D01*
X221778199Y-55916199D01*
X221922855Y-55797482D01*
X222087892Y-55709268D01*
X222266968Y-55654946D01*
X222406535Y-55641200D01*
X222499865Y-55641200D01*
X222639432Y-55654946D01*
X222639432Y-55654946D01*
G37*
G36*
X197577258Y-55175473D02*
G01*
X197777448Y-55258394D01*
X197957609Y-55378774D01*
X198110826Y-55531991D01*
X198231206Y-55712152D01*
X198231207Y-55712155D01*
X198314127Y-55912342D01*
X198346171Y-56073433D01*
X198356400Y-56124861D01*
X198356400Y-56341539D01*
X198314127Y-56554058D01*
X198231206Y-56754248D01*
X198110826Y-56934409D01*
X197957609Y-57087626D01*
X197777448Y-57208006D01*
X197654059Y-57259115D01*
X197577258Y-57290927D01*
X197364741Y-57333200D01*
X197148059Y-57333200D01*
X196935542Y-57290927D01*
X196858741Y-57259115D01*
X196735352Y-57208006D01*
X196555191Y-57087626D01*
X196401974Y-56934409D01*
X196281594Y-56754248D01*
X196198673Y-56554058D01*
X196156400Y-56341539D01*
X196156400Y-56124861D01*
X196166630Y-56073433D01*
X196198673Y-55912342D01*
X196281593Y-55712155D01*
X196281594Y-55712152D01*
X196401974Y-55531991D01*
X196555191Y-55378774D01*
X196735352Y-55258394D01*
X196935542Y-55175473D01*
X197148059Y-55133200D01*
X197364741Y-55133200D01*
X197577258Y-55175473D01*
X197577258Y-55175473D01*
G37*
G36*
X193077258Y-55175473D02*
G01*
X193277448Y-55258394D01*
X193457609Y-55378774D01*
X193610826Y-55531991D01*
X193731206Y-55712152D01*
X193731207Y-55712155D01*
X193814127Y-55912342D01*
X193846171Y-56073433D01*
X193856400Y-56124861D01*
X193856400Y-56341539D01*
X193814127Y-56554058D01*
X193731206Y-56754248D01*
X193610826Y-56934409D01*
X193457609Y-57087626D01*
X193277448Y-57208006D01*
X193154059Y-57259115D01*
X193077258Y-57290927D01*
X192864741Y-57333200D01*
X192648059Y-57333200D01*
X192435542Y-57290927D01*
X192358741Y-57259115D01*
X192235352Y-57208006D01*
X192055191Y-57087626D01*
X191901974Y-56934409D01*
X191781594Y-56754248D01*
X191698673Y-56554058D01*
X191656400Y-56341539D01*
X191656400Y-56124861D01*
X191666630Y-56073433D01*
X191698673Y-55912342D01*
X191781593Y-55712155D01*
X191781594Y-55712152D01*
X191901974Y-55531991D01*
X192055191Y-55378774D01*
X192235352Y-55258394D01*
X192435542Y-55175473D01*
X192648059Y-55133200D01*
X192864741Y-55133200D01*
X193077258Y-55175473D01*
X193077258Y-55175473D01*
G37*
G36*
X158285500Y-56036160D02*
G01*
X158332336Y-56050367D01*
X158375489Y-56073433D01*
X158413320Y-56104480D01*
X158444367Y-56142311D01*
X158467433Y-56185464D01*
X158481640Y-56232300D01*
X158486800Y-56284686D01*
X158486800Y-57027314D01*
X158481640Y-57079700D01*
X158467433Y-57126536D01*
X158444367Y-57169689D01*
X158413320Y-57207520D01*
X158375489Y-57238567D01*
X158332336Y-57261633D01*
X158285500Y-57275840D01*
X158233114Y-57281000D01*
X157590486Y-57281000D01*
X157538100Y-57275840D01*
X157491264Y-57261633D01*
X157448111Y-57238567D01*
X157410280Y-57207520D01*
X157379233Y-57169689D01*
X157356167Y-57126536D01*
X157341960Y-57079700D01*
X157336800Y-57027314D01*
X157336800Y-56284686D01*
X157341960Y-56232300D01*
X157356167Y-56185464D01*
X157379233Y-56142311D01*
X157410280Y-56104480D01*
X157448111Y-56073433D01*
X157491264Y-56050367D01*
X157538100Y-56036160D01*
X157590486Y-56031000D01*
X158233114Y-56031000D01*
X158285500Y-56036160D01*
X158285500Y-56036160D01*
G37*
G36*
X132017600Y-56776400D02*
G01*
X130117600Y-56776400D01*
X130117600Y-54876400D01*
X132017600Y-54876400D01*
X132017600Y-56776400D01*
X132017600Y-56776400D01*
G37*
G36*
X185850600Y-56684000D02*
G01*
X183650600Y-56684000D01*
X183650600Y-55584000D01*
X185850600Y-55584000D01*
X185850600Y-56684000D01*
X185850600Y-56684000D01*
G37*
G36*
X168850600Y-56684000D02*
G01*
X166650600Y-56684000D01*
X166650600Y-55584000D01*
X168850600Y-55584000D01*
X168850600Y-56684000D01*
X168850600Y-56684000D01*
G37*
G36*
X223403200Y-55001200D02*
G01*
X221503200Y-55001200D01*
X221503200Y-53101200D01*
X223403200Y-53101200D01*
X223403200Y-55001200D01*
X223403200Y-55001200D01*
G37*
G36*
X153777500Y-50560360D02*
G01*
X153824336Y-50574567D01*
X153867489Y-50597633D01*
X153905320Y-50628680D01*
X153936367Y-50666511D01*
X153959433Y-50709664D01*
X153973640Y-50756500D01*
X153978800Y-50808886D01*
X153978800Y-51451514D01*
X153973640Y-51503900D01*
X153959433Y-51550736D01*
X153936367Y-51593889D01*
X153905320Y-51631720D01*
X153867489Y-51662767D01*
X153824336Y-51685833D01*
X153777500Y-51700040D01*
X153725114Y-51705200D01*
X152982486Y-51705200D01*
X152930100Y-51700040D01*
X152883264Y-51685833D01*
X152840111Y-51662767D01*
X152802280Y-51631720D01*
X152771233Y-51593889D01*
X152748167Y-51550736D01*
X152733960Y-51503900D01*
X152728800Y-51451514D01*
X152728800Y-50808886D01*
X152733960Y-50756500D01*
X152748167Y-50709664D01*
X152771233Y-50666511D01*
X152802280Y-50628680D01*
X152840111Y-50597633D01*
X152883264Y-50574567D01*
X152930100Y-50560360D01*
X152982486Y-50555200D01*
X153725114Y-50555200D01*
X153777500Y-50560360D01*
X153777500Y-50560360D01*
G37*
G36*
X155527500Y-50560360D02*
G01*
X155574336Y-50574567D01*
X155617489Y-50597633D01*
X155655320Y-50628680D01*
X155686367Y-50666511D01*
X155709433Y-50709664D01*
X155723640Y-50756500D01*
X155728800Y-50808886D01*
X155728800Y-51451514D01*
X155723640Y-51503900D01*
X155709433Y-51550736D01*
X155686367Y-51593889D01*
X155655320Y-51631720D01*
X155617489Y-51662767D01*
X155574336Y-51685833D01*
X155527500Y-51700040D01*
X155475114Y-51705200D01*
X154732486Y-51705200D01*
X154680100Y-51700040D01*
X154633264Y-51685833D01*
X154590111Y-51662767D01*
X154552280Y-51631720D01*
X154521233Y-51593889D01*
X154498167Y-51550736D01*
X154483960Y-51503900D01*
X154478800Y-51451514D01*
X154478800Y-50808886D01*
X154483960Y-50756500D01*
X154498167Y-50709664D01*
X154521233Y-50666511D01*
X154552280Y-50628680D01*
X154590111Y-50597633D01*
X154633264Y-50574567D01*
X154680100Y-50560360D01*
X154732486Y-50555200D01*
X155475114Y-50555200D01*
X155527500Y-50560360D01*
X155527500Y-50560360D01*
G37*
G36*
X207094632Y-49787546D02*
G01*
X207273708Y-49841868D01*
X207438745Y-49930082D01*
X207583401Y-50048799D01*
X207702118Y-50193455D01*
X207702119Y-50193457D01*
X207734613Y-50254248D01*
X207790332Y-50358492D01*
X207844654Y-50537568D01*
X207862996Y-50723800D01*
X207844654Y-50910032D01*
X207790332Y-51089108D01*
X207702118Y-51254145D01*
X207583401Y-51398801D01*
X207438745Y-51517518D01*
X207273708Y-51605732D01*
X207094632Y-51660054D01*
X206955065Y-51673800D01*
X206861735Y-51673800D01*
X206722168Y-51660054D01*
X206543092Y-51605732D01*
X206378055Y-51517518D01*
X206233399Y-51398801D01*
X206114682Y-51254145D01*
X206026468Y-51089108D01*
X205972146Y-50910032D01*
X205953804Y-50723800D01*
X205972146Y-50537568D01*
X206026468Y-50358492D01*
X206082188Y-50254248D01*
X206114681Y-50193457D01*
X206114682Y-50193455D01*
X206233399Y-50048799D01*
X206378055Y-49930082D01*
X206543092Y-49841868D01*
X206722168Y-49787546D01*
X206861735Y-49773800D01*
X206955065Y-49773800D01*
X207094632Y-49787546D01*
X207094632Y-49787546D01*
G37*
G36*
X204554632Y-49787546D02*
G01*
X204733708Y-49841868D01*
X204898745Y-49930082D01*
X205043401Y-50048799D01*
X205162118Y-50193455D01*
X205162119Y-50193457D01*
X205194613Y-50254248D01*
X205250332Y-50358492D01*
X205304654Y-50537568D01*
X205322996Y-50723800D01*
X205304654Y-50910032D01*
X205250332Y-51089108D01*
X205162118Y-51254145D01*
X205043401Y-51398801D01*
X204898745Y-51517518D01*
X204733708Y-51605732D01*
X204554632Y-51660054D01*
X204415065Y-51673800D01*
X204321735Y-51673800D01*
X204182168Y-51660054D01*
X204003092Y-51605732D01*
X203838055Y-51517518D01*
X203693399Y-51398801D01*
X203574682Y-51254145D01*
X203486468Y-51089108D01*
X203432146Y-50910032D01*
X203413804Y-50723800D01*
X203432146Y-50537568D01*
X203486468Y-50358492D01*
X203542188Y-50254248D01*
X203574681Y-50193457D01*
X203574682Y-50193455D01*
X203693399Y-50048799D01*
X203838055Y-49930082D01*
X204003092Y-49841868D01*
X204182168Y-49787546D01*
X204321735Y-49773800D01*
X204415065Y-49773800D01*
X204554632Y-49787546D01*
X204554632Y-49787546D01*
G37*
G36*
X209634632Y-49787546D02*
G01*
X209813708Y-49841868D01*
X209978745Y-49930082D01*
X210123401Y-50048799D01*
X210242118Y-50193455D01*
X210242119Y-50193457D01*
X210274613Y-50254248D01*
X210330332Y-50358492D01*
X210384654Y-50537568D01*
X210402996Y-50723800D01*
X210384654Y-50910032D01*
X210330332Y-51089108D01*
X210242118Y-51254145D01*
X210123401Y-51398801D01*
X209978745Y-51517518D01*
X209813708Y-51605732D01*
X209634632Y-51660054D01*
X209495065Y-51673800D01*
X209401735Y-51673800D01*
X209262168Y-51660054D01*
X209083092Y-51605732D01*
X208918055Y-51517518D01*
X208773399Y-51398801D01*
X208654682Y-51254145D01*
X208566468Y-51089108D01*
X208512146Y-50910032D01*
X208493804Y-50723800D01*
X208512146Y-50537568D01*
X208566468Y-50358492D01*
X208622188Y-50254248D01*
X208654681Y-50193457D01*
X208654682Y-50193455D01*
X208773399Y-50048799D01*
X208918055Y-49930082D01*
X209083092Y-49841868D01*
X209262168Y-49787546D01*
X209401735Y-49773800D01*
X209495065Y-49773800D01*
X209634632Y-49787546D01*
X209634632Y-49787546D01*
G37*
G36*
X212174632Y-49787546D02*
G01*
X212353708Y-49841868D01*
X212518745Y-49930082D01*
X212663401Y-50048799D01*
X212782118Y-50193455D01*
X212782119Y-50193457D01*
X212814613Y-50254248D01*
X212870332Y-50358492D01*
X212924654Y-50537568D01*
X212942996Y-50723800D01*
X212924654Y-50910032D01*
X212870332Y-51089108D01*
X212782118Y-51254145D01*
X212663401Y-51398801D01*
X212518745Y-51517518D01*
X212353708Y-51605732D01*
X212174632Y-51660054D01*
X212035065Y-51673800D01*
X211941735Y-51673800D01*
X211802168Y-51660054D01*
X211623092Y-51605732D01*
X211458055Y-51517518D01*
X211313399Y-51398801D01*
X211194682Y-51254145D01*
X211106468Y-51089108D01*
X211052146Y-50910032D01*
X211033804Y-50723800D01*
X211052146Y-50537568D01*
X211106468Y-50358492D01*
X211162188Y-50254248D01*
X211194681Y-50193457D01*
X211194682Y-50193455D01*
X211313399Y-50048799D01*
X211458055Y-49930082D01*
X211623092Y-49841868D01*
X211802168Y-49787546D01*
X211941735Y-49773800D01*
X212035065Y-49773800D01*
X212174632Y-49787546D01*
X212174632Y-49787546D01*
G37*
G36*
X214714632Y-49787546D02*
G01*
X214893708Y-49841868D01*
X215058745Y-49930082D01*
X215203401Y-50048799D01*
X215322118Y-50193455D01*
X215322119Y-50193457D01*
X215354613Y-50254248D01*
X215410332Y-50358492D01*
X215464654Y-50537568D01*
X215482996Y-50723800D01*
X215464654Y-50910032D01*
X215410332Y-51089108D01*
X215322118Y-51254145D01*
X215203401Y-51398801D01*
X215058745Y-51517518D01*
X214893708Y-51605732D01*
X214714632Y-51660054D01*
X214575065Y-51673800D01*
X214481735Y-51673800D01*
X214342168Y-51660054D01*
X214163092Y-51605732D01*
X213998055Y-51517518D01*
X213853399Y-51398801D01*
X213734682Y-51254145D01*
X213646468Y-51089108D01*
X213592146Y-50910032D01*
X213573804Y-50723800D01*
X213592146Y-50537568D01*
X213646468Y-50358492D01*
X213702188Y-50254248D01*
X213734681Y-50193457D01*
X213734682Y-50193455D01*
X213853399Y-50048799D01*
X213998055Y-49930082D01*
X214163092Y-49841868D01*
X214342168Y-49787546D01*
X214481735Y-49773800D01*
X214575065Y-49773800D01*
X214714632Y-49787546D01*
X214714632Y-49787546D01*
G37*
G36*
X218018400Y-51673800D02*
G01*
X216118400Y-51673800D01*
X216118400Y-49773800D01*
X218018400Y-49773800D01*
X218018400Y-51673800D01*
X218018400Y-51673800D01*
G37*
G36*
X197577258Y-48675473D02*
G01*
X197777448Y-48758394D01*
X197957609Y-48878774D01*
X198110826Y-49031991D01*
X198231206Y-49212152D01*
X198231207Y-49212155D01*
X198314127Y-49412342D01*
X198356400Y-49624859D01*
X198356400Y-49841541D01*
X198350492Y-49871240D01*
X198314127Y-50054058D01*
X198231206Y-50254248D01*
X198110826Y-50434409D01*
X197957609Y-50587626D01*
X197777448Y-50708006D01*
X197587675Y-50786612D01*
X197577258Y-50790927D01*
X197364741Y-50833200D01*
X197148059Y-50833200D01*
X196935542Y-50790927D01*
X196925125Y-50786612D01*
X196735352Y-50708006D01*
X196555191Y-50587626D01*
X196401974Y-50434409D01*
X196281594Y-50254248D01*
X196198673Y-50054058D01*
X196162308Y-49871240D01*
X196156400Y-49841541D01*
X196156400Y-49624859D01*
X196198673Y-49412342D01*
X196281593Y-49212155D01*
X196281594Y-49212152D01*
X196401974Y-49031991D01*
X196555191Y-48878774D01*
X196735352Y-48758394D01*
X196935542Y-48675473D01*
X197148059Y-48633200D01*
X197364741Y-48633200D01*
X197577258Y-48675473D01*
X197577258Y-48675473D01*
G37*
G36*
X193077258Y-48675473D02*
G01*
X193277448Y-48758394D01*
X193457609Y-48878774D01*
X193610826Y-49031991D01*
X193731206Y-49212152D01*
X193731207Y-49212155D01*
X193814127Y-49412342D01*
X193856400Y-49624859D01*
X193856400Y-49841541D01*
X193850492Y-49871240D01*
X193814127Y-50054058D01*
X193731206Y-50254248D01*
X193610826Y-50434409D01*
X193457609Y-50587626D01*
X193277448Y-50708006D01*
X193087675Y-50786612D01*
X193077258Y-50790927D01*
X192864741Y-50833200D01*
X192648059Y-50833200D01*
X192435542Y-50790927D01*
X192425125Y-50786612D01*
X192235352Y-50708006D01*
X192055191Y-50587626D01*
X191901974Y-50434409D01*
X191781594Y-50254248D01*
X191698673Y-50054058D01*
X191662308Y-49871240D01*
X191656400Y-49841541D01*
X191656400Y-49624859D01*
X191698673Y-49412342D01*
X191781593Y-49212155D01*
X191781594Y-49212152D01*
X191901974Y-49031991D01*
X192055191Y-48878774D01*
X192235352Y-48758394D01*
X192435542Y-48675473D01*
X192648059Y-48633200D01*
X192864741Y-48633200D01*
X193077258Y-48675473D01*
X193077258Y-48675473D01*
G37*
G36*
X155527500Y-48731560D02*
G01*
X155574336Y-48745767D01*
X155617489Y-48768833D01*
X155655320Y-48799880D01*
X155686367Y-48837711D01*
X155709433Y-48880864D01*
X155723640Y-48927700D01*
X155728800Y-48980086D01*
X155728800Y-49622714D01*
X155723640Y-49675100D01*
X155709433Y-49721936D01*
X155686367Y-49765089D01*
X155655320Y-49802920D01*
X155617489Y-49833967D01*
X155574336Y-49857033D01*
X155527500Y-49871240D01*
X155475114Y-49876400D01*
X154732486Y-49876400D01*
X154680100Y-49871240D01*
X154633264Y-49857033D01*
X154590111Y-49833967D01*
X154552280Y-49802920D01*
X154521233Y-49765089D01*
X154498167Y-49721936D01*
X154483960Y-49675100D01*
X154478800Y-49622714D01*
X154478800Y-48980086D01*
X154483960Y-48927700D01*
X154498167Y-48880864D01*
X154521233Y-48837711D01*
X154552280Y-48799880D01*
X154590111Y-48768833D01*
X154633264Y-48745767D01*
X154680100Y-48731560D01*
X154732486Y-48726400D01*
X155475114Y-48726400D01*
X155527500Y-48731560D01*
X155527500Y-48731560D01*
G37*
G36*
X153777500Y-48731560D02*
G01*
X153824336Y-48745767D01*
X153867489Y-48768833D01*
X153905320Y-48799880D01*
X153936367Y-48837711D01*
X153959433Y-48880864D01*
X153973640Y-48927700D01*
X153978800Y-48980086D01*
X153978800Y-49622714D01*
X153973640Y-49675100D01*
X153959433Y-49721936D01*
X153936367Y-49765089D01*
X153905320Y-49802920D01*
X153867489Y-49833967D01*
X153824336Y-49857033D01*
X153777500Y-49871240D01*
X153725114Y-49876400D01*
X152982486Y-49876400D01*
X152930100Y-49871240D01*
X152883264Y-49857033D01*
X152840111Y-49833967D01*
X152802280Y-49802920D01*
X152771233Y-49765089D01*
X152748167Y-49721936D01*
X152733960Y-49675100D01*
X152728800Y-49622714D01*
X152728800Y-48980086D01*
X152733960Y-48927700D01*
X152748167Y-48880864D01*
X152771233Y-48837711D01*
X152802280Y-48799880D01*
X152840111Y-48768833D01*
X152883264Y-48745767D01*
X152930100Y-48731560D01*
X152982486Y-48726400D01*
X153725114Y-48726400D01*
X153777500Y-48731560D01*
X153777500Y-48731560D01*
G37*
G36*
X217169226Y-46957181D02*
G01*
X217216261Y-46971449D01*
X217259610Y-46994619D01*
X217297602Y-47025798D01*
X217328781Y-47063790D01*
X217351951Y-47107139D01*
X217366219Y-47154174D01*
X217371400Y-47206774D01*
X217371400Y-48297226D01*
X217366219Y-48349826D01*
X217351951Y-48396861D01*
X217328781Y-48440210D01*
X217297602Y-48478202D01*
X217259610Y-48509381D01*
X217216261Y-48532551D01*
X217169226Y-48546819D01*
X217116626Y-48552000D01*
X216276174Y-48552000D01*
X216223574Y-48546819D01*
X216176539Y-48532551D01*
X216133190Y-48509381D01*
X216095198Y-48478202D01*
X216064019Y-48440210D01*
X216040849Y-48396861D01*
X216026581Y-48349826D01*
X216021400Y-48297226D01*
X216021400Y-47206774D01*
X216026581Y-47154174D01*
X216040849Y-47107139D01*
X216064019Y-47063790D01*
X216095198Y-47025798D01*
X216133190Y-46994619D01*
X216176539Y-46971449D01*
X216223574Y-46957181D01*
X216276174Y-46952000D01*
X217116626Y-46952000D01*
X217169226Y-46957181D01*
X217169226Y-46957181D01*
G37*
G36*
X215119226Y-46957181D02*
G01*
X215166261Y-46971449D01*
X215209610Y-46994619D01*
X215247602Y-47025798D01*
X215278781Y-47063790D01*
X215301951Y-47107139D01*
X215316219Y-47154174D01*
X215321400Y-47206774D01*
X215321400Y-48297226D01*
X215316219Y-48349826D01*
X215301951Y-48396861D01*
X215278781Y-48440210D01*
X215247602Y-48478202D01*
X215209610Y-48509381D01*
X215166261Y-48532551D01*
X215119226Y-48546819D01*
X215066626Y-48552000D01*
X214226174Y-48552000D01*
X214173574Y-48546819D01*
X214126539Y-48532551D01*
X214083190Y-48509381D01*
X214045198Y-48478202D01*
X214014019Y-48440210D01*
X213990849Y-48396861D01*
X213976581Y-48349826D01*
X213971400Y-48297226D01*
X213971400Y-47206774D01*
X213976581Y-47154174D01*
X213990849Y-47107139D01*
X214014019Y-47063790D01*
X214045198Y-47025798D01*
X214083190Y-46994619D01*
X214126539Y-46971449D01*
X214173574Y-46957181D01*
X214226174Y-46952000D01*
X215066626Y-46952000D01*
X215119226Y-46957181D01*
X215119226Y-46957181D01*
G37*
G36*
X196281426Y-45991981D02*
G01*
X196328461Y-46006249D01*
X196371810Y-46029419D01*
X196409802Y-46060598D01*
X196440981Y-46098590D01*
X196464151Y-46141939D01*
X196478419Y-46188974D01*
X196483600Y-46241574D01*
X196483600Y-47332026D01*
X196478419Y-47384626D01*
X196464151Y-47431661D01*
X196440981Y-47475010D01*
X196409802Y-47513002D01*
X196371810Y-47544181D01*
X196328461Y-47567351D01*
X196281426Y-47581619D01*
X196228826Y-47586800D01*
X195388374Y-47586800D01*
X195335774Y-47581619D01*
X195288739Y-47567351D01*
X195245390Y-47544181D01*
X195207398Y-47513002D01*
X195176219Y-47475010D01*
X195153049Y-47431661D01*
X195138781Y-47384626D01*
X195133600Y-47332026D01*
X195133600Y-46241574D01*
X195138781Y-46188974D01*
X195153049Y-46141939D01*
X195176219Y-46098590D01*
X195207398Y-46060598D01*
X195245390Y-46029419D01*
X195288739Y-46006249D01*
X195335774Y-45991981D01*
X195388374Y-45986800D01*
X196228826Y-45986800D01*
X196281426Y-45991981D01*
X196281426Y-45991981D01*
G37*
G36*
X194231426Y-45991981D02*
G01*
X194278461Y-46006249D01*
X194321810Y-46029419D01*
X194359802Y-46060598D01*
X194390981Y-46098590D01*
X194414151Y-46141939D01*
X194428419Y-46188974D01*
X194433600Y-46241574D01*
X194433600Y-47332026D01*
X194428419Y-47384626D01*
X194414151Y-47431661D01*
X194390981Y-47475010D01*
X194359802Y-47513002D01*
X194321810Y-47544181D01*
X194278461Y-47567351D01*
X194231426Y-47581619D01*
X194178826Y-47586800D01*
X193338374Y-47586800D01*
X193285774Y-47581619D01*
X193238739Y-47567351D01*
X193195390Y-47544181D01*
X193157398Y-47513002D01*
X193126219Y-47475010D01*
X193103049Y-47431661D01*
X193088781Y-47384626D01*
X193083600Y-47332026D01*
X193083600Y-46241574D01*
X193088781Y-46188974D01*
X193103049Y-46141939D01*
X193126219Y-46098590D01*
X193157398Y-46060598D01*
X193195390Y-46029419D01*
X193238739Y-46006249D01*
X193285774Y-45991981D01*
X193338374Y-45986800D01*
X194178826Y-45986800D01*
X194231426Y-45991981D01*
X194231426Y-45991981D01*
G37*
G36*
X155832000Y-47386000D02*
G01*
X153832000Y-47386000D01*
X153832000Y-46086000D01*
X155832000Y-46086000D01*
X155832000Y-47386000D01*
X155832000Y-47386000D01*
G37*
G36*
X137879000Y-46870800D02*
G01*
X135679000Y-46870800D01*
X135679000Y-44670800D01*
X137879000Y-44670800D01*
X137879000Y-46870800D01*
X137879000Y-46870800D01*
G37*
G36*
X144641979Y-44701560D02*
G01*
X144699858Y-44713073D01*
X144900048Y-44795994D01*
X145080209Y-44916374D01*
X145233426Y-45069591D01*
X145353806Y-45249752D01*
X145353807Y-45249755D01*
X145436727Y-45449942D01*
X145479000Y-45662459D01*
X145479000Y-45879141D01*
X145442905Y-46060598D01*
X145436727Y-46091658D01*
X145353806Y-46291848D01*
X145233426Y-46472009D01*
X145080209Y-46625226D01*
X144900048Y-46745606D01*
X144699858Y-46828527D01*
X144487341Y-46870800D01*
X144270659Y-46870800D01*
X144058142Y-46828527D01*
X143857952Y-46745606D01*
X143677791Y-46625226D01*
X143524574Y-46472009D01*
X143404194Y-46291848D01*
X143321273Y-46091658D01*
X143315095Y-46060598D01*
X143279000Y-45879141D01*
X143279000Y-45662459D01*
X143321273Y-45449942D01*
X143404193Y-45249755D01*
X143404194Y-45249752D01*
X143524574Y-45069591D01*
X143677791Y-44916374D01*
X143857952Y-44795994D01*
X144058142Y-44713073D01*
X144116021Y-44701560D01*
X144270659Y-44670800D01*
X144487341Y-44670800D01*
X144641979Y-44701560D01*
X144641979Y-44701560D01*
G37*
G36*
X201381400Y-46263600D02*
G01*
X199481400Y-46263600D01*
X199481400Y-44363600D01*
X201381400Y-44363600D01*
X201381400Y-46263600D01*
X201381400Y-46263600D01*
G37*
G36*
X153530519Y-44821880D02*
G01*
X153584378Y-44838219D01*
X153634028Y-44864756D01*
X153677537Y-44900463D01*
X153713244Y-44943972D01*
X153739781Y-44993622D01*
X153756120Y-45047481D01*
X153762000Y-45107186D01*
X153762000Y-45824814D01*
X153756120Y-45884519D01*
X153739780Y-45938382D01*
X153719862Y-45975647D01*
X153714235Y-45989230D01*
X153713702Y-45991912D01*
X153703969Y-45999899D01*
X153699025Y-46005353D01*
X153677536Y-46031538D01*
X153634028Y-46067244D01*
X153584378Y-46093781D01*
X153530519Y-46110120D01*
X153470814Y-46116000D01*
X152053186Y-46116000D01*
X151993481Y-46110120D01*
X151939622Y-46093781D01*
X151889972Y-46067244D01*
X151846463Y-46031537D01*
X151810756Y-45988028D01*
X151784219Y-45938378D01*
X151767880Y-45884519D01*
X151762000Y-45824814D01*
X151762000Y-45107186D01*
X151767880Y-45047481D01*
X151784219Y-44993622D01*
X151810756Y-44943972D01*
X151846463Y-44900463D01*
X151889972Y-44864756D01*
X151939622Y-44838219D01*
X151993481Y-44821880D01*
X152053186Y-44816000D01*
X153470814Y-44816000D01*
X153530519Y-44821880D01*
X153530519Y-44821880D01*
G37*
G36*
X155600519Y-43551880D02*
G01*
X155654378Y-43568219D01*
X155704028Y-43594756D01*
X155747537Y-43630463D01*
X155783244Y-43673972D01*
X155809781Y-43723622D01*
X155826120Y-43777481D01*
X155832000Y-43837186D01*
X155832000Y-44554814D01*
X155826120Y-44614519D01*
X155809781Y-44668378D01*
X155783244Y-44718028D01*
X155747537Y-44761537D01*
X155704028Y-44797244D01*
X155654378Y-44823781D01*
X155600519Y-44840120D01*
X155540814Y-44846000D01*
X154123186Y-44846000D01*
X154063481Y-44840120D01*
X154009622Y-44823781D01*
X153959972Y-44797244D01*
X153916463Y-44761537D01*
X153880756Y-44718028D01*
X153854219Y-44668378D01*
X153837880Y-44614519D01*
X153832000Y-44554814D01*
X153832000Y-43837186D01*
X153837880Y-43777481D01*
X153854219Y-43723622D01*
X153880756Y-43673972D01*
X153916463Y-43630463D01*
X153959972Y-43594756D01*
X154009622Y-43568219D01*
X154063481Y-43551880D01*
X154123186Y-43546000D01*
X155540814Y-43546000D01*
X155600519Y-43551880D01*
X155600519Y-43551880D01*
G37*
G36*
X200617632Y-41837346D02*
G01*
X200796708Y-41891668D01*
X200961745Y-41979882D01*
X201106401Y-42098599D01*
X201225118Y-42243255D01*
X201313332Y-42408292D01*
X201367654Y-42587368D01*
X201385996Y-42773600D01*
X201367654Y-42959832D01*
X201313332Y-43138908D01*
X201225118Y-43303945D01*
X201106401Y-43448601D01*
X200961745Y-43567318D01*
X200796708Y-43655532D01*
X200617632Y-43709854D01*
X200478065Y-43723600D01*
X200384735Y-43723600D01*
X200245168Y-43709854D01*
X200066092Y-43655532D01*
X199901055Y-43567318D01*
X199756399Y-43448601D01*
X199637682Y-43303945D01*
X199549468Y-43138908D01*
X199495146Y-42959832D01*
X199476804Y-42773600D01*
X199495146Y-42587368D01*
X199549468Y-42408292D01*
X199637682Y-42243255D01*
X199756399Y-42098599D01*
X199901055Y-41979882D01*
X200066092Y-41891668D01*
X200245168Y-41837346D01*
X200384735Y-41823600D01*
X200478065Y-41823600D01*
X200617632Y-41837346D01*
X200617632Y-41837346D01*
G37*
G36*
X200617632Y-39297346D02*
G01*
X200796708Y-39351668D01*
X200961745Y-39439882D01*
X201106401Y-39558599D01*
X201225118Y-39703255D01*
X201313332Y-39868292D01*
X201367654Y-40047368D01*
X201385996Y-40233600D01*
X201367654Y-40419832D01*
X201313332Y-40598908D01*
X201225118Y-40763945D01*
X201106401Y-40908601D01*
X200961745Y-41027318D01*
X200796708Y-41115532D01*
X200617632Y-41169854D01*
X200478065Y-41183600D01*
X200384735Y-41183600D01*
X200245168Y-41169854D01*
X200066092Y-41115532D01*
X199901055Y-41027318D01*
X199756399Y-40908601D01*
X199637682Y-40763945D01*
X199549468Y-40598908D01*
X199495146Y-40419832D01*
X199476804Y-40233600D01*
X199495146Y-40047368D01*
X199549468Y-39868292D01*
X199637682Y-39703255D01*
X199756399Y-39558599D01*
X199901055Y-39439882D01*
X200066092Y-39351668D01*
X200245168Y-39297346D01*
X200384735Y-39283600D01*
X200478065Y-39283600D01*
X200617632Y-39297346D01*
X200617632Y-39297346D01*
G37*
G36*
X132830057Y-29829945D02*
G01*
X133042575Y-29872217D01*
X133643138Y-30120979D01*
X134183627Y-30482122D01*
X134643278Y-30941773D01*
X135004421Y-31482262D01*
X135253183Y-32082825D01*
X135380000Y-32720380D01*
X135380000Y-33370420D01*
X135253183Y-34007975D01*
X135004421Y-34608538D01*
X134643278Y-35149027D01*
X134183627Y-35608678D01*
X133643138Y-35969821D01*
X133042575Y-36218583D01*
X132830057Y-36260855D01*
X132405022Y-36345400D01*
X131754978Y-36345400D01*
X131329943Y-36260855D01*
X131117425Y-36218583D01*
X130516862Y-35969821D01*
X129976373Y-35608678D01*
X129516722Y-35149027D01*
X129155579Y-34608538D01*
X128906817Y-34007975D01*
X128780000Y-33370420D01*
X128780000Y-32720380D01*
X128906817Y-32082825D01*
X129155579Y-31482262D01*
X129516722Y-30941773D01*
X129976373Y-30482122D01*
X130516862Y-30120979D01*
X131117425Y-29872217D01*
X131329943Y-29829945D01*
X131754978Y-29745400D01*
X132405022Y-29745400D01*
X132830057Y-29829945D01*
X132830057Y-29829945D01*
G37*
G36*
X219113857Y-29423545D02*
G01*
X219326375Y-29465817D01*
X219926938Y-29714579D01*
X220467427Y-30075722D01*
X220927078Y-30535373D01*
X221288221Y-31075862D01*
X221536983Y-31676425D01*
X221663800Y-32313980D01*
X221663800Y-32964020D01*
X221536983Y-33601575D01*
X221288221Y-34202138D01*
X220927078Y-34742627D01*
X220467427Y-35202278D01*
X219926938Y-35563421D01*
X219326375Y-35812183D01*
X219113857Y-35854455D01*
X218688822Y-35939000D01*
X218038778Y-35939000D01*
X217613743Y-35854455D01*
X217401225Y-35812183D01*
X216800662Y-35563421D01*
X216260173Y-35202278D01*
X215800522Y-34742627D01*
X215439379Y-34202138D01*
X215190617Y-33601575D01*
X215063800Y-32964020D01*
X215063800Y-32313980D01*
X215190617Y-31676425D01*
X215439379Y-31075862D01*
X215800522Y-30535373D01*
X216260173Y-30075722D01*
X216800662Y-29714579D01*
X217401225Y-29465817D01*
X217613743Y-29423545D01*
X218038778Y-29339000D01*
X218688822Y-29339000D01*
X219113857Y-29423545D01*
X219113857Y-29423545D01*
G37*
M02*
