G04 #@! TF.GenerationSoftware,KiCad,Pcbnew,(5.1.2)-1*
G04 #@! TF.CreationDate,2020-11-05T23:01:01+01:00*
G04 #@! TF.ProjectId,szakdolgozat,737a616b-646f-46c6-976f-7a61742e6b69,rev?*
G04 #@! TF.SameCoordinates,Original*
G04 #@! TF.FileFunction,Legend,Top*
G04 #@! TF.FilePolarity,Positive*
%FSLAX46Y46*%
G04 Gerber Fmt 4.6, Leading zero omitted, Abs format (unit mm)*
G04 Created by KiCad (PCBNEW (5.1.2)-1) date 2020-11-05 23:01:01*
%MOMM*%
%LPD*%
G04 APERTURE LIST*
%ADD10C,0.150000*%
%ADD11C,0.010000*%
%ADD12C,0.120000*%
G04 APERTURE END LIST*
D10*
X141841580Y-33372323D02*
X142127295Y-33467561D01*
X142603485Y-33467561D01*
X142793961Y-33372323D01*
X142889200Y-33277085D01*
X142984438Y-33086609D01*
X142984438Y-32896133D01*
X142889200Y-32705657D01*
X142793961Y-32610419D01*
X142603485Y-32515180D01*
X142222533Y-32419942D01*
X142032057Y-32324704D01*
X141936819Y-32229466D01*
X141841580Y-32038990D01*
X141841580Y-31848514D01*
X141936819Y-31658038D01*
X142032057Y-31562800D01*
X142222533Y-31467561D01*
X142698723Y-31467561D01*
X142984438Y-31562800D01*
X143651104Y-31467561D02*
X144127295Y-33467561D01*
X144508247Y-32038990D01*
X144889200Y-33467561D01*
X145365390Y-31467561D01*
X146032057Y-32896133D02*
X146984438Y-32896133D01*
X145841580Y-33467561D02*
X146508247Y-31467561D01*
X147174914Y-33467561D01*
X147841580Y-33467561D02*
X147841580Y-31467561D01*
X148984438Y-33467561D01*
X148984438Y-31467561D01*
X152603485Y-33277085D02*
X152508247Y-33372323D01*
X152222533Y-33467561D01*
X152032057Y-33467561D01*
X151746342Y-33372323D01*
X151555866Y-33181847D01*
X151460628Y-32991371D01*
X151365390Y-32610419D01*
X151365390Y-32324704D01*
X151460628Y-31943752D01*
X151555866Y-31753276D01*
X151746342Y-31562800D01*
X152032057Y-31467561D01*
X152222533Y-31467561D01*
X152508247Y-31562800D01*
X152603485Y-31658038D01*
X153746342Y-33467561D02*
X153555866Y-33372323D01*
X153460628Y-33181847D01*
X153460628Y-31467561D01*
X154508247Y-33467561D02*
X154508247Y-32134228D01*
X154508247Y-31467561D02*
X154413009Y-31562800D01*
X154508247Y-31658038D01*
X154603485Y-31562800D01*
X154508247Y-31467561D01*
X154508247Y-31658038D01*
X156222533Y-33372323D02*
X156032057Y-33467561D01*
X155651104Y-33467561D01*
X155460628Y-33372323D01*
X155365390Y-33181847D01*
X155365390Y-32419942D01*
X155460628Y-32229466D01*
X155651104Y-32134228D01*
X156032057Y-32134228D01*
X156222533Y-32229466D01*
X156317771Y-32419942D01*
X156317771Y-32610419D01*
X155365390Y-32800895D01*
X157174914Y-32134228D02*
X157174914Y-33467561D01*
X157174914Y-32324704D02*
X157270152Y-32229466D01*
X157460628Y-32134228D01*
X157746342Y-32134228D01*
X157936819Y-32229466D01*
X158032057Y-32419942D01*
X158032057Y-33467561D01*
X158698723Y-32134228D02*
X159460628Y-32134228D01*
X158984438Y-31467561D02*
X158984438Y-33181847D01*
X159079676Y-33372323D01*
X159270152Y-33467561D01*
X159460628Y-33467561D01*
X162793961Y-33467561D02*
X162127295Y-32515180D01*
X161651104Y-33467561D02*
X161651104Y-31467561D01*
X162413009Y-31467561D01*
X162603485Y-31562800D01*
X162698723Y-31658038D01*
X162793961Y-31848514D01*
X162793961Y-32134228D01*
X162698723Y-32324704D01*
X162603485Y-32419942D01*
X162413009Y-32515180D01*
X161651104Y-32515180D01*
X164413009Y-33372323D02*
X164222533Y-33467561D01*
X163841580Y-33467561D01*
X163651104Y-33372323D01*
X163555866Y-33181847D01*
X163555866Y-32419942D01*
X163651104Y-32229466D01*
X163841580Y-32134228D01*
X164222533Y-32134228D01*
X164413009Y-32229466D01*
X164508247Y-32419942D01*
X164508247Y-32610419D01*
X163555866Y-32800895D01*
X165174914Y-32134228D02*
X165651104Y-33467561D01*
X166127295Y-32134228D01*
X167270152Y-31467561D02*
X167460628Y-31467561D01*
X167651104Y-31562800D01*
X167746342Y-31658038D01*
X167841580Y-31848514D01*
X167936819Y-32229466D01*
X167936819Y-32705657D01*
X167841580Y-33086609D01*
X167746342Y-33277085D01*
X167651104Y-33372323D01*
X167460628Y-33467561D01*
X167270152Y-33467561D01*
X167079676Y-33372323D01*
X166984438Y-33277085D01*
X166889200Y-33086609D01*
X166793961Y-32705657D01*
X166793961Y-32229466D01*
X166889200Y-31848514D01*
X166984438Y-31658038D01*
X167079676Y-31562800D01*
X167270152Y-31467561D01*
X182344180Y-32419942D02*
X182629895Y-32515180D01*
X182725133Y-32610419D01*
X182820371Y-32800895D01*
X182820371Y-33086609D01*
X182725133Y-33277085D01*
X182629895Y-33372323D01*
X182439419Y-33467561D01*
X181677514Y-33467561D01*
X181677514Y-31467561D01*
X182344180Y-31467561D01*
X182534657Y-31562800D01*
X182629895Y-31658038D01*
X182725133Y-31848514D01*
X182725133Y-32038990D01*
X182629895Y-32229466D01*
X182534657Y-32324704D01*
X182344180Y-32419942D01*
X181677514Y-32419942D01*
X183677514Y-33467561D02*
X183677514Y-31467561D01*
X184344180Y-32896133D01*
X185010847Y-31467561D01*
X185010847Y-33467561D01*
X186058466Y-31467561D02*
X185867990Y-31848514D01*
X188344180Y-31658038D02*
X188439419Y-31562800D01*
X188629895Y-31467561D01*
X189106085Y-31467561D01*
X189296561Y-31562800D01*
X189391800Y-31658038D01*
X189487038Y-31848514D01*
X189487038Y-32038990D01*
X189391800Y-32324704D01*
X188248942Y-33467561D01*
X189487038Y-33467561D01*
X190725133Y-31467561D02*
X190915609Y-31467561D01*
X191106085Y-31562800D01*
X191201323Y-31658038D01*
X191296561Y-31848514D01*
X191391800Y-32229466D01*
X191391800Y-32705657D01*
X191296561Y-33086609D01*
X191201323Y-33277085D01*
X191106085Y-33372323D01*
X190915609Y-33467561D01*
X190725133Y-33467561D01*
X190534657Y-33372323D01*
X190439419Y-33277085D01*
X190344180Y-33086609D01*
X190248942Y-32705657D01*
X190248942Y-32229466D01*
X190344180Y-31848514D01*
X190439419Y-31658038D01*
X190534657Y-31562800D01*
X190725133Y-31467561D01*
X192153704Y-31658038D02*
X192248942Y-31562800D01*
X192439419Y-31467561D01*
X192915609Y-31467561D01*
X193106085Y-31562800D01*
X193201323Y-31658038D01*
X193296561Y-31848514D01*
X193296561Y-32038990D01*
X193201323Y-32324704D01*
X192058466Y-33467561D01*
X193296561Y-33467561D01*
X194534657Y-31467561D02*
X194725133Y-31467561D01*
X194915609Y-31562800D01*
X195010847Y-31658038D01*
X195106085Y-31848514D01*
X195201323Y-32229466D01*
X195201323Y-32705657D01*
X195106085Y-33086609D01*
X195010847Y-33277085D01*
X194915609Y-33372323D01*
X194725133Y-33467561D01*
X194534657Y-33467561D01*
X194344180Y-33372323D01*
X194248942Y-33277085D01*
X194153704Y-33086609D01*
X194058466Y-32705657D01*
X194058466Y-32229466D01*
X194153704Y-31848514D01*
X194248942Y-31658038D01*
X194344180Y-31562800D01*
X194534657Y-31467561D01*
D11*
G36*
X210833803Y-27443022D02*
G01*
X210870577Y-27844542D01*
X210887288Y-28519967D01*
X211107866Y-27913933D01*
X211313653Y-27548900D01*
X211498187Y-27571159D01*
X211635368Y-27944698D01*
X211699092Y-28633503D01*
X211700533Y-28731633D01*
X211754373Y-29494540D01*
X211898864Y-29850444D01*
X212130641Y-29796445D01*
X212430154Y-29359968D01*
X212779697Y-28809785D01*
X213020067Y-28667488D01*
X213157004Y-28933524D01*
X213195617Y-29419550D01*
X213212835Y-29916800D01*
X213267143Y-30031279D01*
X213398123Y-29803543D01*
X213453855Y-29684133D01*
X213599677Y-29406770D01*
X213683960Y-29416501D01*
X213737586Y-29764253D01*
X213771478Y-30207925D01*
X213849205Y-30864982D01*
X213965046Y-31352320D01*
X214030416Y-31485167D01*
X214109692Y-31835078D01*
X214054007Y-32420447D01*
X214028439Y-32543529D01*
X213944338Y-33175311D01*
X214035291Y-33497001D01*
X214047598Y-33505710D01*
X214154302Y-33792335D01*
X214004836Y-34271472D01*
X213636074Y-34830119D01*
X213602413Y-34869967D01*
X213296663Y-35392397D01*
X213115047Y-35956378D01*
X213069065Y-36359908D01*
X213183547Y-36612068D01*
X213548364Y-36819451D01*
X213986209Y-36989628D01*
X214740611Y-37293929D01*
X215119092Y-37529818D01*
X215152837Y-37744965D01*
X214873032Y-37987045D01*
X214704779Y-38088115D01*
X214169168Y-38501037D01*
X213782176Y-38978358D01*
X213772389Y-38996880D01*
X213482222Y-39448846D01*
X213244253Y-39690981D01*
X213081785Y-40001581D01*
X213107804Y-40167231D01*
X213095414Y-40363395D01*
X212809055Y-40457560D01*
X212269657Y-40479133D01*
X211623786Y-40496913D01*
X211136040Y-40541600D01*
X211029928Y-40563500D01*
X210623290Y-40567327D01*
X210218867Y-40478766D01*
X209601190Y-40345102D01*
X209034303Y-40288565D01*
X208631410Y-40216861D01*
X210522337Y-40216861D01*
X210730394Y-40250756D01*
X211004929Y-40211840D01*
X211008207Y-40139585D01*
X210724914Y-40089056D01*
X210602512Y-40122874D01*
X210522337Y-40216861D01*
X208631410Y-40216861D01*
X208274719Y-40153380D01*
X207573432Y-39845023D01*
X207072836Y-39437702D01*
X206933081Y-39193529D01*
X206548810Y-38617004D01*
X205827386Y-38268285D01*
X204756884Y-38142318D01*
X204457258Y-38144394D01*
X203200048Y-38172510D01*
X202287586Y-38179748D01*
X201641625Y-38162199D01*
X201183920Y-38115950D01*
X200836225Y-38037090D01*
X200593130Y-37951248D01*
X199963227Y-37701582D01*
X200210201Y-37480271D01*
X201796743Y-37480271D01*
X202007377Y-37758379D01*
X202360858Y-37904137D01*
X202843240Y-37871051D01*
X203088946Y-37745387D01*
X203504249Y-37573147D01*
X204180934Y-37527011D01*
X204978758Y-37599258D01*
X205757477Y-37782169D01*
X206091367Y-37910665D01*
X206735448Y-38295681D01*
X207271180Y-38767036D01*
X207361367Y-38878274D01*
X207782722Y-39342930D01*
X208205025Y-39647530D01*
X208208033Y-39648879D01*
X208589183Y-39716085D01*
X209257234Y-39742734D01*
X210100273Y-39734152D01*
X211006387Y-39695668D01*
X211863661Y-39632609D01*
X212560182Y-39550303D01*
X212984035Y-39454077D01*
X213046793Y-39418534D01*
X213011700Y-39213220D01*
X212685992Y-38936376D01*
X212623459Y-38898888D01*
X212018033Y-38550661D01*
X212705950Y-38662939D01*
X213227457Y-38685000D01*
X213373090Y-38549393D01*
X213124656Y-38297835D01*
X212917617Y-38177616D01*
X212441367Y-37928075D01*
X212949088Y-38027851D01*
X213470638Y-38062117D01*
X214034240Y-38006408D01*
X214483946Y-37887402D01*
X214663867Y-37734512D01*
X214481220Y-37587098D01*
X214021936Y-37395829D01*
X213793128Y-37321929D01*
X213091694Y-37172498D01*
X212539444Y-37232048D01*
X212311462Y-37314104D01*
X211885499Y-37536678D01*
X211700756Y-37724641D01*
X211700533Y-37729122D01*
X211523389Y-37923137D01*
X211090535Y-37993529D01*
X210549839Y-37944493D01*
X210049167Y-37780219D01*
X209886147Y-37677678D01*
X209465510Y-37264195D01*
X209458412Y-37171003D01*
X209858108Y-37171003D01*
X209869709Y-37392461D01*
X210007200Y-37515800D01*
X210319084Y-37630029D01*
X210410292Y-37606596D01*
X210371650Y-37398750D01*
X210261200Y-37261800D01*
X209970557Y-37126193D01*
X209858108Y-37171003D01*
X209458412Y-37171003D01*
X209442552Y-36962782D01*
X210489662Y-36962782D01*
X210508670Y-37192322D01*
X210735905Y-37427273D01*
X211178325Y-37688085D01*
X211384883Y-37693829D01*
X211300288Y-37468251D01*
X211118450Y-37262976D01*
X210750518Y-36987250D01*
X210496616Y-36956570D01*
X210489662Y-36962782D01*
X209442552Y-36962782D01*
X209442243Y-36958729D01*
X209822638Y-36707225D01*
X210007200Y-36637416D01*
X210292024Y-36483981D01*
X210864954Y-36483981D01*
X211048829Y-36777529D01*
X211107867Y-36838466D01*
X211446044Y-37017640D01*
X211881478Y-37088574D01*
X212233975Y-37039844D01*
X212335533Y-36916314D01*
X212154473Y-36745674D01*
X211707646Y-36549515D01*
X211594700Y-36512792D01*
X211048466Y-36394696D01*
X210864954Y-36483981D01*
X210292024Y-36483981D01*
X210448521Y-36399676D01*
X210641840Y-36129406D01*
X210642200Y-36119260D01*
X210740664Y-35872452D01*
X211292043Y-35872452D01*
X211518557Y-36146561D01*
X211647617Y-36228846D01*
X211990943Y-36412520D01*
X212229538Y-36405053D01*
X212567044Y-36235180D01*
X212861651Y-35974920D01*
X212772350Y-35758233D01*
X212338565Y-35628958D01*
X212005541Y-35610800D01*
X211461187Y-35682097D01*
X211292043Y-35872452D01*
X210740664Y-35872452D01*
X210749248Y-35850937D01*
X210828738Y-35822467D01*
X210987873Y-35637247D01*
X211171964Y-35169928D01*
X211218789Y-35003575D01*
X211533458Y-35003575D01*
X211594700Y-35187467D01*
X211723511Y-35349130D01*
X211913476Y-35371564D01*
X212292095Y-35244074D01*
X212642794Y-35099552D01*
X213192571Y-34778281D01*
X213574426Y-34395508D01*
X213595943Y-34358719D01*
X213748328Y-34031012D01*
X213680491Y-33945224D01*
X213332604Y-34087708D01*
X213047645Y-34233662D01*
X212508827Y-34459163D01*
X212083442Y-34551162D01*
X211677148Y-34688179D01*
X211533458Y-35003575D01*
X211218789Y-35003575D01*
X211244275Y-34913035D01*
X211364085Y-34109293D01*
X211360544Y-34076217D01*
X211700637Y-34076217D01*
X211744290Y-34289471D01*
X211938396Y-34302829D01*
X212377305Y-34110045D01*
X212554128Y-34019717D01*
X213074260Y-33608136D01*
X213526485Y-33018836D01*
X213790885Y-32422410D01*
X213817200Y-32222901D01*
X213674106Y-32229030D01*
X213298555Y-32468540D01*
X212771143Y-32889839D01*
X212758970Y-32900306D01*
X212216999Y-33404612D01*
X211835359Y-33831472D01*
X211700637Y-34076217D01*
X211360544Y-34076217D01*
X211276122Y-33287649D01*
X211192430Y-32938983D01*
X211182677Y-32895766D01*
X211501248Y-32895766D01*
X211629978Y-33141355D01*
X211753207Y-33250880D01*
X211888219Y-33226025D01*
X212159037Y-33012689D01*
X212398289Y-32806217D01*
X212826553Y-32305557D01*
X213231030Y-31626962D01*
X213519726Y-30945481D01*
X213605533Y-30509053D01*
X213496397Y-30492138D01*
X213224878Y-30755526D01*
X213129696Y-30872671D01*
X212631964Y-31462240D01*
X212087257Y-32042510D01*
X212071363Y-32058249D01*
X211629093Y-32555126D01*
X211501248Y-32895766D01*
X211182677Y-32895766D01*
X211039777Y-32262574D01*
X211034612Y-31998344D01*
X211277200Y-31998344D01*
X211383198Y-32217736D01*
X211668215Y-32105492D01*
X212082788Y-31686351D01*
X212201102Y-31536217D01*
X212591586Y-30846443D01*
X212849613Y-30078641D01*
X212863987Y-30001633D01*
X213004758Y-29154967D01*
X212655964Y-29788581D01*
X212280367Y-30400951D01*
X211832828Y-31043568D01*
X211792184Y-31097375D01*
X211463565Y-31580499D01*
X211286897Y-31942041D01*
X211277200Y-31998344D01*
X211034612Y-31998344D01*
X211031506Y-31839464D01*
X211168392Y-31524721D01*
X211200228Y-31479625D01*
X211436120Y-30981550D01*
X211488867Y-30672473D01*
X211440546Y-30482306D01*
X211266442Y-30612788D01*
X210999602Y-30977512D01*
X210514720Y-31610729D01*
X209943421Y-32256474D01*
X209835436Y-32366601D01*
X209519510Y-32698709D01*
X209321527Y-33002653D01*
X209213728Y-33386730D01*
X209168358Y-33959236D01*
X209157658Y-34828469D01*
X209157292Y-35012434D01*
X209134752Y-35914741D01*
X209077097Y-36676385D01*
X208994668Y-37183652D01*
X208948867Y-37304133D01*
X208777714Y-37476352D01*
X208740441Y-37357050D01*
X208614460Y-37231859D01*
X208207985Y-37149732D01*
X207472762Y-37105128D01*
X206435479Y-37092467D01*
X204964699Y-37049847D01*
X203838897Y-36924665D01*
X203237940Y-36776404D01*
X202656825Y-36619603D01*
X202220764Y-36584375D01*
X202011810Y-36660575D01*
X202112015Y-36838058D01*
X202205852Y-36904017D01*
X202350490Y-37048967D01*
X202107096Y-37089225D01*
X201815787Y-37211634D01*
X201796743Y-37480271D01*
X200210201Y-37480271D01*
X200893630Y-36867858D01*
X201722760Y-36263648D01*
X202447548Y-36048890D01*
X203108237Y-36215159D01*
X203327239Y-36358365D01*
X203723406Y-36496261D01*
X204419366Y-36597117D01*
X205292961Y-36658098D01*
X206222037Y-36676369D01*
X207084436Y-36649096D01*
X207758002Y-36573442D01*
X208090923Y-36468915D01*
X208219167Y-36327161D01*
X208260948Y-36063857D01*
X208209792Y-35600575D01*
X208059227Y-34858892D01*
X207901706Y-34176461D01*
X207506798Y-32503604D01*
X207914680Y-32503604D01*
X208048094Y-33413988D01*
X208210324Y-34004024D01*
X208401638Y-34802664D01*
X208513527Y-35594655D01*
X208525533Y-35856107D01*
X208574289Y-36373727D01*
X208695524Y-36653200D01*
X208737200Y-36669133D01*
X208841479Y-36470920D01*
X208917607Y-35929317D01*
X208955537Y-35123882D01*
X208957739Y-34922883D01*
X209001068Y-33825407D01*
X209130183Y-33032625D01*
X209359630Y-32438362D01*
X209600527Y-31943617D01*
X209634648Y-31626382D01*
X209462899Y-31295277D01*
X209365702Y-31156674D01*
X209362351Y-31149529D01*
X209895029Y-31149529D01*
X209951598Y-31458067D01*
X210216308Y-31550290D01*
X210277157Y-31534425D01*
X210516750Y-31310201D01*
X210817396Y-30852794D01*
X210883697Y-30729502D01*
X211154224Y-30035449D01*
X211353199Y-29229571D01*
X211380720Y-29049133D01*
X211502365Y-28096633D01*
X210958606Y-29252800D01*
X210607788Y-29943630D01*
X210271029Y-30517446D01*
X210084455Y-30774045D01*
X209895029Y-31149529D01*
X209362351Y-31149529D01*
X209111609Y-30614947D01*
X209126962Y-30537073D01*
X209372200Y-30537073D01*
X209483821Y-30738857D01*
X209753446Y-30642508D01*
X210083217Y-30287156D01*
X210114955Y-30240072D01*
X210323940Y-29738811D01*
X210490468Y-29019937D01*
X210545027Y-28599655D01*
X210578003Y-28037914D01*
X210559553Y-27754622D01*
X210511221Y-27779133D01*
X210353319Y-28140307D01*
X210088818Y-28735379D01*
X209874362Y-29214156D01*
X209601232Y-29855248D01*
X209418851Y-30347051D01*
X209372200Y-30537073D01*
X209126962Y-30537073D01*
X209172236Y-30307445D01*
X209301824Y-29894302D01*
X209354398Y-29305225D01*
X209354044Y-29260800D01*
X209342371Y-28519967D01*
X209065179Y-29272373D01*
X208784590Y-29955719D01*
X208431506Y-30719572D01*
X208339260Y-30904357D01*
X208009590Y-31718631D01*
X207914680Y-32503604D01*
X207506798Y-32503604D01*
X207406265Y-32077742D01*
X208154157Y-30510521D01*
X208531974Y-29668983D01*
X208847295Y-28876518D01*
X209040618Y-28284433D01*
X209057104Y-28214432D01*
X209177203Y-27755927D01*
X209300301Y-27659103D01*
X209474264Y-27844016D01*
X209774685Y-28154075D01*
X210004086Y-28092720D01*
X210225746Y-27637426D01*
X210250496Y-27567718D01*
X210480298Y-27130362D01*
X210689753Y-27095502D01*
X210833803Y-27443022D01*
X210833803Y-27443022D01*
G37*
X210833803Y-27443022D02*
X210870577Y-27844542D01*
X210887288Y-28519967D01*
X211107866Y-27913933D01*
X211313653Y-27548900D01*
X211498187Y-27571159D01*
X211635368Y-27944698D01*
X211699092Y-28633503D01*
X211700533Y-28731633D01*
X211754373Y-29494540D01*
X211898864Y-29850444D01*
X212130641Y-29796445D01*
X212430154Y-29359968D01*
X212779697Y-28809785D01*
X213020067Y-28667488D01*
X213157004Y-28933524D01*
X213195617Y-29419550D01*
X213212835Y-29916800D01*
X213267143Y-30031279D01*
X213398123Y-29803543D01*
X213453855Y-29684133D01*
X213599677Y-29406770D01*
X213683960Y-29416501D01*
X213737586Y-29764253D01*
X213771478Y-30207925D01*
X213849205Y-30864982D01*
X213965046Y-31352320D01*
X214030416Y-31485167D01*
X214109692Y-31835078D01*
X214054007Y-32420447D01*
X214028439Y-32543529D01*
X213944338Y-33175311D01*
X214035291Y-33497001D01*
X214047598Y-33505710D01*
X214154302Y-33792335D01*
X214004836Y-34271472D01*
X213636074Y-34830119D01*
X213602413Y-34869967D01*
X213296663Y-35392397D01*
X213115047Y-35956378D01*
X213069065Y-36359908D01*
X213183547Y-36612068D01*
X213548364Y-36819451D01*
X213986209Y-36989628D01*
X214740611Y-37293929D01*
X215119092Y-37529818D01*
X215152837Y-37744965D01*
X214873032Y-37987045D01*
X214704779Y-38088115D01*
X214169168Y-38501037D01*
X213782176Y-38978358D01*
X213772389Y-38996880D01*
X213482222Y-39448846D01*
X213244253Y-39690981D01*
X213081785Y-40001581D01*
X213107804Y-40167231D01*
X213095414Y-40363395D01*
X212809055Y-40457560D01*
X212269657Y-40479133D01*
X211623786Y-40496913D01*
X211136040Y-40541600D01*
X211029928Y-40563500D01*
X210623290Y-40567327D01*
X210218867Y-40478766D01*
X209601190Y-40345102D01*
X209034303Y-40288565D01*
X208631410Y-40216861D01*
X210522337Y-40216861D01*
X210730394Y-40250756D01*
X211004929Y-40211840D01*
X211008207Y-40139585D01*
X210724914Y-40089056D01*
X210602512Y-40122874D01*
X210522337Y-40216861D01*
X208631410Y-40216861D01*
X208274719Y-40153380D01*
X207573432Y-39845023D01*
X207072836Y-39437702D01*
X206933081Y-39193529D01*
X206548810Y-38617004D01*
X205827386Y-38268285D01*
X204756884Y-38142318D01*
X204457258Y-38144394D01*
X203200048Y-38172510D01*
X202287586Y-38179748D01*
X201641625Y-38162199D01*
X201183920Y-38115950D01*
X200836225Y-38037090D01*
X200593130Y-37951248D01*
X199963227Y-37701582D01*
X200210201Y-37480271D01*
X201796743Y-37480271D01*
X202007377Y-37758379D01*
X202360858Y-37904137D01*
X202843240Y-37871051D01*
X203088946Y-37745387D01*
X203504249Y-37573147D01*
X204180934Y-37527011D01*
X204978758Y-37599258D01*
X205757477Y-37782169D01*
X206091367Y-37910665D01*
X206735448Y-38295681D01*
X207271180Y-38767036D01*
X207361367Y-38878274D01*
X207782722Y-39342930D01*
X208205025Y-39647530D01*
X208208033Y-39648879D01*
X208589183Y-39716085D01*
X209257234Y-39742734D01*
X210100273Y-39734152D01*
X211006387Y-39695668D01*
X211863661Y-39632609D01*
X212560182Y-39550303D01*
X212984035Y-39454077D01*
X213046793Y-39418534D01*
X213011700Y-39213220D01*
X212685992Y-38936376D01*
X212623459Y-38898888D01*
X212018033Y-38550661D01*
X212705950Y-38662939D01*
X213227457Y-38685000D01*
X213373090Y-38549393D01*
X213124656Y-38297835D01*
X212917617Y-38177616D01*
X212441367Y-37928075D01*
X212949088Y-38027851D01*
X213470638Y-38062117D01*
X214034240Y-38006408D01*
X214483946Y-37887402D01*
X214663867Y-37734512D01*
X214481220Y-37587098D01*
X214021936Y-37395829D01*
X213793128Y-37321929D01*
X213091694Y-37172498D01*
X212539444Y-37232048D01*
X212311462Y-37314104D01*
X211885499Y-37536678D01*
X211700756Y-37724641D01*
X211700533Y-37729122D01*
X211523389Y-37923137D01*
X211090535Y-37993529D01*
X210549839Y-37944493D01*
X210049167Y-37780219D01*
X209886147Y-37677678D01*
X209465510Y-37264195D01*
X209458412Y-37171003D01*
X209858108Y-37171003D01*
X209869709Y-37392461D01*
X210007200Y-37515800D01*
X210319084Y-37630029D01*
X210410292Y-37606596D01*
X210371650Y-37398750D01*
X210261200Y-37261800D01*
X209970557Y-37126193D01*
X209858108Y-37171003D01*
X209458412Y-37171003D01*
X209442552Y-36962782D01*
X210489662Y-36962782D01*
X210508670Y-37192322D01*
X210735905Y-37427273D01*
X211178325Y-37688085D01*
X211384883Y-37693829D01*
X211300288Y-37468251D01*
X211118450Y-37262976D01*
X210750518Y-36987250D01*
X210496616Y-36956570D01*
X210489662Y-36962782D01*
X209442552Y-36962782D01*
X209442243Y-36958729D01*
X209822638Y-36707225D01*
X210007200Y-36637416D01*
X210292024Y-36483981D01*
X210864954Y-36483981D01*
X211048829Y-36777529D01*
X211107867Y-36838466D01*
X211446044Y-37017640D01*
X211881478Y-37088574D01*
X212233975Y-37039844D01*
X212335533Y-36916314D01*
X212154473Y-36745674D01*
X211707646Y-36549515D01*
X211594700Y-36512792D01*
X211048466Y-36394696D01*
X210864954Y-36483981D01*
X210292024Y-36483981D01*
X210448521Y-36399676D01*
X210641840Y-36129406D01*
X210642200Y-36119260D01*
X210740664Y-35872452D01*
X211292043Y-35872452D01*
X211518557Y-36146561D01*
X211647617Y-36228846D01*
X211990943Y-36412520D01*
X212229538Y-36405053D01*
X212567044Y-36235180D01*
X212861651Y-35974920D01*
X212772350Y-35758233D01*
X212338565Y-35628958D01*
X212005541Y-35610800D01*
X211461187Y-35682097D01*
X211292043Y-35872452D01*
X210740664Y-35872452D01*
X210749248Y-35850937D01*
X210828738Y-35822467D01*
X210987873Y-35637247D01*
X211171964Y-35169928D01*
X211218789Y-35003575D01*
X211533458Y-35003575D01*
X211594700Y-35187467D01*
X211723511Y-35349130D01*
X211913476Y-35371564D01*
X212292095Y-35244074D01*
X212642794Y-35099552D01*
X213192571Y-34778281D01*
X213574426Y-34395508D01*
X213595943Y-34358719D01*
X213748328Y-34031012D01*
X213680491Y-33945224D01*
X213332604Y-34087708D01*
X213047645Y-34233662D01*
X212508827Y-34459163D01*
X212083442Y-34551162D01*
X211677148Y-34688179D01*
X211533458Y-35003575D01*
X211218789Y-35003575D01*
X211244275Y-34913035D01*
X211364085Y-34109293D01*
X211360544Y-34076217D01*
X211700637Y-34076217D01*
X211744290Y-34289471D01*
X211938396Y-34302829D01*
X212377305Y-34110045D01*
X212554128Y-34019717D01*
X213074260Y-33608136D01*
X213526485Y-33018836D01*
X213790885Y-32422410D01*
X213817200Y-32222901D01*
X213674106Y-32229030D01*
X213298555Y-32468540D01*
X212771143Y-32889839D01*
X212758970Y-32900306D01*
X212216999Y-33404612D01*
X211835359Y-33831472D01*
X211700637Y-34076217D01*
X211360544Y-34076217D01*
X211276122Y-33287649D01*
X211192430Y-32938983D01*
X211182677Y-32895766D01*
X211501248Y-32895766D01*
X211629978Y-33141355D01*
X211753207Y-33250880D01*
X211888219Y-33226025D01*
X212159037Y-33012689D01*
X212398289Y-32806217D01*
X212826553Y-32305557D01*
X213231030Y-31626962D01*
X213519726Y-30945481D01*
X213605533Y-30509053D01*
X213496397Y-30492138D01*
X213224878Y-30755526D01*
X213129696Y-30872671D01*
X212631964Y-31462240D01*
X212087257Y-32042510D01*
X212071363Y-32058249D01*
X211629093Y-32555126D01*
X211501248Y-32895766D01*
X211182677Y-32895766D01*
X211039777Y-32262574D01*
X211034612Y-31998344D01*
X211277200Y-31998344D01*
X211383198Y-32217736D01*
X211668215Y-32105492D01*
X212082788Y-31686351D01*
X212201102Y-31536217D01*
X212591586Y-30846443D01*
X212849613Y-30078641D01*
X212863987Y-30001633D01*
X213004758Y-29154967D01*
X212655964Y-29788581D01*
X212280367Y-30400951D01*
X211832828Y-31043568D01*
X211792184Y-31097375D01*
X211463565Y-31580499D01*
X211286897Y-31942041D01*
X211277200Y-31998344D01*
X211034612Y-31998344D01*
X211031506Y-31839464D01*
X211168392Y-31524721D01*
X211200228Y-31479625D01*
X211436120Y-30981550D01*
X211488867Y-30672473D01*
X211440546Y-30482306D01*
X211266442Y-30612788D01*
X210999602Y-30977512D01*
X210514720Y-31610729D01*
X209943421Y-32256474D01*
X209835436Y-32366601D01*
X209519510Y-32698709D01*
X209321527Y-33002653D01*
X209213728Y-33386730D01*
X209168358Y-33959236D01*
X209157658Y-34828469D01*
X209157292Y-35012434D01*
X209134752Y-35914741D01*
X209077097Y-36676385D01*
X208994668Y-37183652D01*
X208948867Y-37304133D01*
X208777714Y-37476352D01*
X208740441Y-37357050D01*
X208614460Y-37231859D01*
X208207985Y-37149732D01*
X207472762Y-37105128D01*
X206435479Y-37092467D01*
X204964699Y-37049847D01*
X203838897Y-36924665D01*
X203237940Y-36776404D01*
X202656825Y-36619603D01*
X202220764Y-36584375D01*
X202011810Y-36660575D01*
X202112015Y-36838058D01*
X202205852Y-36904017D01*
X202350490Y-37048967D01*
X202107096Y-37089225D01*
X201815787Y-37211634D01*
X201796743Y-37480271D01*
X200210201Y-37480271D01*
X200893630Y-36867858D01*
X201722760Y-36263648D01*
X202447548Y-36048890D01*
X203108237Y-36215159D01*
X203327239Y-36358365D01*
X203723406Y-36496261D01*
X204419366Y-36597117D01*
X205292961Y-36658098D01*
X206222037Y-36676369D01*
X207084436Y-36649096D01*
X207758002Y-36573442D01*
X208090923Y-36468915D01*
X208219167Y-36327161D01*
X208260948Y-36063857D01*
X208209792Y-35600575D01*
X208059227Y-34858892D01*
X207901706Y-34176461D01*
X207506798Y-32503604D01*
X207914680Y-32503604D01*
X208048094Y-33413988D01*
X208210324Y-34004024D01*
X208401638Y-34802664D01*
X208513527Y-35594655D01*
X208525533Y-35856107D01*
X208574289Y-36373727D01*
X208695524Y-36653200D01*
X208737200Y-36669133D01*
X208841479Y-36470920D01*
X208917607Y-35929317D01*
X208955537Y-35123882D01*
X208957739Y-34922883D01*
X209001068Y-33825407D01*
X209130183Y-33032625D01*
X209359630Y-32438362D01*
X209600527Y-31943617D01*
X209634648Y-31626382D01*
X209462899Y-31295277D01*
X209365702Y-31156674D01*
X209362351Y-31149529D01*
X209895029Y-31149529D01*
X209951598Y-31458067D01*
X210216308Y-31550290D01*
X210277157Y-31534425D01*
X210516750Y-31310201D01*
X210817396Y-30852794D01*
X210883697Y-30729502D01*
X211154224Y-30035449D01*
X211353199Y-29229571D01*
X211380720Y-29049133D01*
X211502365Y-28096633D01*
X210958606Y-29252800D01*
X210607788Y-29943630D01*
X210271029Y-30517446D01*
X210084455Y-30774045D01*
X209895029Y-31149529D01*
X209362351Y-31149529D01*
X209111609Y-30614947D01*
X209126962Y-30537073D01*
X209372200Y-30537073D01*
X209483821Y-30738857D01*
X209753446Y-30642508D01*
X210083217Y-30287156D01*
X210114955Y-30240072D01*
X210323940Y-29738811D01*
X210490468Y-29019937D01*
X210545027Y-28599655D01*
X210578003Y-28037914D01*
X210559553Y-27754622D01*
X210511221Y-27779133D01*
X210353319Y-28140307D01*
X210088818Y-28735379D01*
X209874362Y-29214156D01*
X209601232Y-29855248D01*
X209418851Y-30347051D01*
X209372200Y-30537073D01*
X209126962Y-30537073D01*
X209172236Y-30307445D01*
X209301824Y-29894302D01*
X209354398Y-29305225D01*
X209354044Y-29260800D01*
X209342371Y-28519967D01*
X209065179Y-29272373D01*
X208784590Y-29955719D01*
X208431506Y-30719572D01*
X208339260Y-30904357D01*
X208009590Y-31718631D01*
X207914680Y-32503604D01*
X207506798Y-32503604D01*
X207406265Y-32077742D01*
X208154157Y-30510521D01*
X208531974Y-29668983D01*
X208847295Y-28876518D01*
X209040618Y-28284433D01*
X209057104Y-28214432D01*
X209177203Y-27755927D01*
X209300301Y-27659103D01*
X209474264Y-27844016D01*
X209774685Y-28154075D01*
X210004086Y-28092720D01*
X210225746Y-27637426D01*
X210250496Y-27567718D01*
X210480298Y-27130362D01*
X210689753Y-27095502D01*
X210833803Y-27443022D01*
D12*
X166396600Y-90380452D02*
X166396600Y-89857948D01*
X167816600Y-90380452D02*
X167816600Y-89857948D01*
X167130600Y-73489000D02*
X167130600Y-74269000D01*
X167130600Y-74269000D02*
X168130600Y-74269000D01*
X185370600Y-73489000D02*
X185370600Y-74269000D01*
X185370600Y-74269000D02*
X184370600Y-74269000D01*
X167130600Y-48524000D02*
X185370600Y-48524000D01*
X185370600Y-48524000D02*
X185370600Y-54944000D01*
X167130600Y-48524000D02*
X167130600Y-54944000D01*
X167130600Y-54944000D02*
X166750600Y-54944000D01*
X201761400Y-46643600D02*
X200431400Y-46643600D01*
X201761400Y-45313600D02*
X201761400Y-46643600D01*
X201761400Y-44043600D02*
X199101400Y-44043600D01*
X199101400Y-44043600D02*
X199101400Y-38903600D01*
X201761400Y-44043600D02*
X201761400Y-38903600D01*
X201761400Y-38903600D02*
X199101400Y-38903600D01*
X147471200Y-81769852D02*
X147471200Y-81247348D01*
X146051200Y-81769852D02*
X146051200Y-81247348D01*
X149852748Y-79909600D02*
X150375252Y-79909600D01*
X149852748Y-81329600D02*
X150375252Y-81329600D01*
X142156548Y-91796800D02*
X142679052Y-91796800D01*
X142156548Y-93216800D02*
X142679052Y-93216800D01*
X175285652Y-80773200D02*
X174763148Y-80773200D01*
X175285652Y-82193200D02*
X174763148Y-82193200D01*
X182785652Y-82193200D02*
X182263148Y-82193200D01*
X182785652Y-80773200D02*
X182263148Y-80773200D01*
X157157052Y-59615000D02*
X156634548Y-59615000D01*
X157157052Y-61035000D02*
X156634548Y-61035000D01*
X215932652Y-47042000D02*
X215410148Y-47042000D01*
X215932652Y-48462000D02*
X215410148Y-48462000D01*
X136791800Y-81024400D02*
X139251800Y-81024400D01*
X139251800Y-81024400D02*
X139251800Y-79554400D01*
X139251800Y-79554400D02*
X136791800Y-79554400D01*
X173912200Y-79104600D02*
X173912200Y-76644600D01*
X172442200Y-79104600D02*
X173912200Y-79104600D01*
X172442200Y-76644600D02*
X172442200Y-79104600D01*
X214153400Y-65961400D02*
X212383400Y-65961400D01*
X212383400Y-65961400D02*
X212383400Y-85981400D01*
X212383400Y-85981400D02*
X217923400Y-85981400D01*
X217923400Y-85981400D02*
X217923400Y-65961400D01*
X217923400Y-65961400D02*
X216153400Y-65961400D01*
X216153400Y-65961400D02*
G75*
G02X214153400Y-65961400I-1000000J0D01*
G01*
X137749866Y-78831799D02*
X137407332Y-78831799D01*
X137749866Y-77811799D02*
X137407332Y-77811799D01*
X220927200Y-67189533D02*
X220927200Y-67532067D01*
X221947200Y-67189533D02*
X221947200Y-67532067D01*
X207535400Y-69196133D02*
X207535400Y-69538667D01*
X206515400Y-69196133D02*
X206515400Y-69538667D01*
X194154133Y-68607400D02*
X194496667Y-68607400D01*
X194154133Y-67587400D02*
X194496667Y-67587400D01*
X207535400Y-78848133D02*
X207535400Y-79190667D01*
X206515400Y-78848133D02*
X206515400Y-79190667D01*
X194154133Y-76985400D02*
X194496667Y-76985400D01*
X194154133Y-78005400D02*
X194496667Y-78005400D01*
X158421800Y-57359733D02*
X158421800Y-57702267D01*
X157401800Y-57359733D02*
X157401800Y-57702267D01*
X188639267Y-60454000D02*
X188296733Y-60454000D01*
X188639267Y-59434000D02*
X188296733Y-59434000D01*
X213544333Y-59387200D02*
X213886867Y-59387200D01*
X213544333Y-58367200D02*
X213886867Y-58367200D01*
X154057533Y-48791400D02*
X154400067Y-48791400D01*
X154057533Y-49811400D02*
X154400067Y-49811400D01*
X175439800Y-77615867D02*
X175439800Y-77273333D01*
X174419800Y-77615867D02*
X174419800Y-77273333D01*
X154400067Y-50620200D02*
X154057533Y-50620200D01*
X154400067Y-51640200D02*
X154057533Y-51640200D01*
X143317800Y-87493200D02*
X141517800Y-87493200D01*
X141517800Y-90713200D02*
X143967800Y-90713200D01*
X203833400Y-66767400D02*
X202183400Y-66767400D01*
X203833400Y-74507400D02*
X203833400Y-66767400D01*
X198533400Y-74507400D02*
X203833400Y-74507400D01*
X198533400Y-66767400D02*
X198533400Y-74507400D01*
X200183400Y-66767400D02*
X198533400Y-66767400D01*
X202183400Y-66767400D02*
G75*
G02X200183400Y-66767400I-1000000J0D01*
G01*
X202183400Y-76165400D02*
G75*
G02X200183400Y-76165400I-1000000J0D01*
G01*
X200183400Y-76165400D02*
X198533400Y-76165400D01*
X198533400Y-76165400D02*
X198533400Y-83905400D01*
X198533400Y-83905400D02*
X203833400Y-83905400D01*
X203833400Y-83905400D02*
X203833400Y-76165400D01*
X203833400Y-76165400D02*
X202183400Y-76165400D01*
X129737600Y-80016400D02*
X132397600Y-80016400D01*
X129737600Y-57096400D02*
X129737600Y-80016400D01*
X132397600Y-57096400D02*
X132397600Y-80016400D01*
X129737600Y-57096400D02*
X132397600Y-57096400D01*
X129737600Y-55826400D02*
X129737600Y-54496400D01*
X129737600Y-54496400D02*
X131067600Y-54496400D01*
X143595400Y-85099200D02*
X143595400Y-82439200D01*
X138455400Y-85099200D02*
X143595400Y-85099200D01*
X138455400Y-82439200D02*
X143595400Y-82439200D01*
X138455400Y-85099200D02*
X138455400Y-82439200D01*
X137185400Y-85099200D02*
X135855400Y-85099200D01*
X135855400Y-85099200D02*
X135855400Y-83769200D01*
X203958334Y-88175850D02*
G75*
G02X205827200Y-88235239I968866J1053850D01*
G01*
X148179000Y-45770800D02*
G75*
G03X148179000Y-45770800I-7600000J0D01*
G01*
X167285652Y-82193200D02*
X166763148Y-82193200D01*
X167285652Y-80773200D02*
X166763148Y-80773200D01*
X180516600Y-90380452D02*
X180516600Y-89857948D01*
X179096600Y-90380452D02*
X179096600Y-89857948D01*
X165276600Y-90380452D02*
X165276600Y-89857948D01*
X163856600Y-90380452D02*
X163856600Y-89857948D01*
X136640800Y-59495200D02*
X135240800Y-59495200D01*
X135240800Y-61815200D02*
X137140800Y-61815200D01*
X135240800Y-75785200D02*
X137140800Y-75785200D01*
X136640800Y-73465200D02*
X135240800Y-73465200D01*
X185468800Y-80982667D02*
X185468800Y-80640133D01*
X186488800Y-80982667D02*
X186488800Y-80640133D01*
X174242000Y-89947933D02*
X174242000Y-90290467D01*
X175262000Y-89947933D02*
X175262000Y-90290467D01*
X182856600Y-89947933D02*
X182856600Y-90290467D01*
X181836600Y-89947933D02*
X181836600Y-90290467D01*
X184376600Y-89947933D02*
X184376600Y-90290467D01*
X185396600Y-89947933D02*
X185396600Y-90290467D01*
X177776600Y-89947933D02*
X177776600Y-90290467D01*
X176756600Y-89947933D02*
X176756600Y-90290467D01*
X171676600Y-89947933D02*
X171676600Y-90290467D01*
X172696600Y-89947933D02*
X172696600Y-90290467D01*
X169136600Y-90290467D02*
X169136600Y-89947933D01*
X170156600Y-90290467D02*
X170156600Y-89947933D01*
X148278800Y-88549400D02*
X149538800Y-88549400D01*
X155098800Y-88549400D02*
X153838800Y-88549400D01*
X148278800Y-84789400D02*
X148278800Y-88549400D01*
X155098800Y-82539400D02*
X155098800Y-88549400D01*
X203038400Y-49393800D02*
X203038400Y-52053800D01*
X215798400Y-49393800D02*
X203038400Y-49393800D01*
X215798400Y-52053800D02*
X203038400Y-52053800D01*
X215798400Y-49393800D02*
X215798400Y-52053800D01*
X217068400Y-49393800D02*
X218398400Y-49393800D01*
X218398400Y-49393800D02*
X218398400Y-50723800D01*
X132397600Y-83956400D02*
X129737600Y-83956400D01*
X132397600Y-86556400D02*
X132397600Y-83956400D01*
X129737600Y-86556400D02*
X129737600Y-83956400D01*
X132397600Y-86556400D02*
X129737600Y-86556400D01*
X132397600Y-87826400D02*
X132397600Y-89156400D01*
X132397600Y-89156400D02*
X131067600Y-89156400D01*
X135026600Y-88329400D02*
X135976600Y-88329400D01*
X135026600Y-90929400D02*
X135026600Y-88329400D01*
X137276600Y-88329400D02*
X138076600Y-88329400D01*
X210506000Y-88332000D02*
X210506000Y-90992000D01*
X218186000Y-88332000D02*
X210506000Y-88332000D01*
X218186000Y-90992000D02*
X210506000Y-90992000D01*
X218186000Y-88332000D02*
X218186000Y-90992000D01*
X219456000Y-88332000D02*
X220786000Y-88332000D01*
X220786000Y-88332000D02*
X220786000Y-89662000D01*
X221123200Y-60461200D02*
X223783200Y-60461200D01*
X221123200Y-55321200D02*
X221123200Y-60461200D01*
X223783200Y-55321200D02*
X223783200Y-60461200D01*
X221123200Y-55321200D02*
X223783200Y-55321200D01*
X221123200Y-54051200D02*
X221123200Y-52721200D01*
X221123200Y-52721200D02*
X222453200Y-52721200D01*
X183424400Y-83734000D02*
X180474400Y-83734000D01*
X181624400Y-86954000D02*
X183424400Y-86954000D01*
X174124400Y-86954000D02*
X175924400Y-86954000D01*
X175924400Y-83734000D02*
X172974400Y-83734000D01*
X166124400Y-86954000D02*
X167924400Y-86954000D01*
X167924400Y-83734000D02*
X164974400Y-83734000D01*
X216461600Y-96950000D02*
X216461600Y-117050000D01*
X138461600Y-96950000D02*
X216461600Y-96950000D01*
X138461600Y-117050000D02*
X138461600Y-96950000D01*
X216461600Y-117050000D02*
X138461600Y-117050000D01*
X156282000Y-47266000D02*
X156282000Y-43666000D01*
X156273741Y-47277875D02*
G75*
G02X151982000Y-46286000I-1841741J1811875D01*
G01*
X156259684Y-43657555D02*
G75*
G03X151982000Y-44686000I-1827684J-1808445D01*
G01*
X194522348Y-47496800D02*
X195044852Y-47496800D01*
X194522348Y-46076800D02*
X195044852Y-46076800D01*
X192711000Y-83065252D02*
X192711000Y-82542748D01*
X194131000Y-83065252D02*
X194131000Y-82542748D01*
X191756400Y-50733200D02*
X191756400Y-55233200D01*
X195756400Y-49483200D02*
X194256400Y-49483200D01*
X198256400Y-55233200D02*
X198256400Y-50733200D01*
X194256400Y-56483200D02*
X195756400Y-56483200D01*
X194256400Y-93592600D02*
X195756400Y-93592600D01*
X198256400Y-92342600D02*
X198256400Y-87842600D01*
X195756400Y-86592600D02*
X194256400Y-86592600D01*
X191756400Y-87842600D02*
X191756400Y-92342600D01*
D10*
X166965333Y-93117942D02*
X166917714Y-93165561D01*
X166774857Y-93213180D01*
X166679619Y-93213180D01*
X166536761Y-93165561D01*
X166441523Y-93070323D01*
X166393904Y-92975085D01*
X166346285Y-92784609D01*
X166346285Y-92641752D01*
X166393904Y-92451276D01*
X166441523Y-92356038D01*
X166536761Y-92260800D01*
X166679619Y-92213180D01*
X166774857Y-92213180D01*
X166917714Y-92260800D01*
X166965333Y-92308419D01*
X167441523Y-93213180D02*
X167632000Y-93213180D01*
X167727238Y-93165561D01*
X167774857Y-93117942D01*
X167870095Y-92975085D01*
X167917714Y-92784609D01*
X167917714Y-92403657D01*
X167870095Y-92308419D01*
X167822476Y-92260800D01*
X167727238Y-92213180D01*
X167536761Y-92213180D01*
X167441523Y-92260800D01*
X167393904Y-92308419D01*
X167346285Y-92403657D01*
X167346285Y-92641752D01*
X167393904Y-92736990D01*
X167441523Y-92784609D01*
X167536761Y-92832228D01*
X167727238Y-92832228D01*
X167822476Y-92784609D01*
X167870095Y-92736990D01*
X167917714Y-92641752D01*
X175514095Y-46543980D02*
X175514095Y-47353504D01*
X175561714Y-47448742D01*
X175609333Y-47496361D01*
X175704571Y-47543980D01*
X175895047Y-47543980D01*
X175990285Y-47496361D01*
X176037904Y-47448742D01*
X176085523Y-47353504D01*
X176085523Y-46543980D01*
X176466476Y-46543980D02*
X177133142Y-46543980D01*
X176704571Y-47543980D01*
X196270666Y-41971980D02*
X196270666Y-42686266D01*
X196223047Y-42829123D01*
X196127809Y-42924361D01*
X195984952Y-42971980D01*
X195889714Y-42971980D01*
X196746857Y-42971980D02*
X196746857Y-41971980D01*
X197127809Y-41971980D01*
X197223047Y-42019600D01*
X197270666Y-42067219D01*
X197318285Y-42162457D01*
X197318285Y-42305314D01*
X197270666Y-42400552D01*
X197223047Y-42448171D01*
X197127809Y-42495790D01*
X196746857Y-42495790D01*
X198270666Y-42971980D02*
X197699238Y-42971980D01*
X197984952Y-42971980D02*
X197984952Y-41971980D01*
X197889714Y-42114838D01*
X197794476Y-42210076D01*
X197699238Y-42257695D01*
X144613333Y-81027542D02*
X144565714Y-81075161D01*
X144422857Y-81122780D01*
X144327619Y-81122780D01*
X144184761Y-81075161D01*
X144089523Y-80979923D01*
X144041904Y-80884685D01*
X143994285Y-80694209D01*
X143994285Y-80551352D01*
X144041904Y-80360876D01*
X144089523Y-80265638D01*
X144184761Y-80170400D01*
X144327619Y-80122780D01*
X144422857Y-80122780D01*
X144565714Y-80170400D01*
X144613333Y-80218019D01*
X144994285Y-80218019D02*
X145041904Y-80170400D01*
X145137142Y-80122780D01*
X145375238Y-80122780D01*
X145470476Y-80170400D01*
X145518095Y-80218019D01*
X145565714Y-80313257D01*
X145565714Y-80408495D01*
X145518095Y-80551352D01*
X144946666Y-81122780D01*
X145565714Y-81122780D01*
X150252133Y-79274942D02*
X150204514Y-79322561D01*
X150061657Y-79370180D01*
X149966419Y-79370180D01*
X149823561Y-79322561D01*
X149728323Y-79227323D01*
X149680704Y-79132085D01*
X149633085Y-78941609D01*
X149633085Y-78798752D01*
X149680704Y-78608276D01*
X149728323Y-78513038D01*
X149823561Y-78417800D01*
X149966419Y-78370180D01*
X150061657Y-78370180D01*
X150204514Y-78417800D01*
X150252133Y-78465419D01*
X150585466Y-78370180D02*
X151204514Y-78370180D01*
X150871180Y-78751133D01*
X151014038Y-78751133D01*
X151109276Y-78798752D01*
X151156895Y-78846371D01*
X151204514Y-78941609D01*
X151204514Y-79179704D01*
X151156895Y-79274942D01*
X151109276Y-79322561D01*
X151014038Y-79370180D01*
X150728323Y-79370180D01*
X150633085Y-79322561D01*
X150585466Y-79274942D01*
X142225733Y-94768942D02*
X142178114Y-94816561D01*
X142035257Y-94864180D01*
X141940019Y-94864180D01*
X141797161Y-94816561D01*
X141701923Y-94721323D01*
X141654304Y-94626085D01*
X141606685Y-94435609D01*
X141606685Y-94292752D01*
X141654304Y-94102276D01*
X141701923Y-94007038D01*
X141797161Y-93911800D01*
X141940019Y-93864180D01*
X142035257Y-93864180D01*
X142178114Y-93911800D01*
X142225733Y-93959419D01*
X143082876Y-94197514D02*
X143082876Y-94864180D01*
X142844780Y-93816561D02*
X142606685Y-94530847D01*
X143225733Y-94530847D01*
X175906133Y-80214742D02*
X175858514Y-80262361D01*
X175715657Y-80309980D01*
X175620419Y-80309980D01*
X175477561Y-80262361D01*
X175382323Y-80167123D01*
X175334704Y-80071885D01*
X175287085Y-79881409D01*
X175287085Y-79738552D01*
X175334704Y-79548076D01*
X175382323Y-79452838D01*
X175477561Y-79357600D01*
X175620419Y-79309980D01*
X175715657Y-79309980D01*
X175858514Y-79357600D01*
X175906133Y-79405219D01*
X176763276Y-79309980D02*
X176572800Y-79309980D01*
X176477561Y-79357600D01*
X176429942Y-79405219D01*
X176334704Y-79548076D01*
X176287085Y-79738552D01*
X176287085Y-80119504D01*
X176334704Y-80214742D01*
X176382323Y-80262361D01*
X176477561Y-80309980D01*
X176668038Y-80309980D01*
X176763276Y-80262361D01*
X176810895Y-80214742D01*
X176858514Y-80119504D01*
X176858514Y-79881409D01*
X176810895Y-79786171D01*
X176763276Y-79738552D01*
X176668038Y-79690933D01*
X176477561Y-79690933D01*
X176382323Y-79738552D01*
X176334704Y-79786171D01*
X176287085Y-79881409D01*
X183119733Y-80011542D02*
X183072114Y-80059161D01*
X182929257Y-80106780D01*
X182834019Y-80106780D01*
X182691161Y-80059161D01*
X182595923Y-79963923D01*
X182548304Y-79868685D01*
X182500685Y-79678209D01*
X182500685Y-79535352D01*
X182548304Y-79344876D01*
X182595923Y-79249638D01*
X182691161Y-79154400D01*
X182834019Y-79106780D01*
X182929257Y-79106780D01*
X183072114Y-79154400D01*
X183119733Y-79202019D01*
X183453066Y-79106780D02*
X184119733Y-79106780D01*
X183691161Y-80106780D01*
X155490942Y-62409342D02*
X155443323Y-62456961D01*
X155300466Y-62504580D01*
X155205228Y-62504580D01*
X155062371Y-62456961D01*
X154967133Y-62361723D01*
X154919514Y-62266485D01*
X154871895Y-62076009D01*
X154871895Y-61933152D01*
X154919514Y-61742676D01*
X154967133Y-61647438D01*
X155062371Y-61552200D01*
X155205228Y-61504580D01*
X155300466Y-61504580D01*
X155443323Y-61552200D01*
X155490942Y-61599819D01*
X156443323Y-62504580D02*
X155871895Y-62504580D01*
X156157609Y-62504580D02*
X156157609Y-61504580D01*
X156062371Y-61647438D01*
X155967133Y-61742676D01*
X155871895Y-61790295D01*
X156776657Y-61504580D02*
X157395704Y-61504580D01*
X157062371Y-61885533D01*
X157205228Y-61885533D01*
X157300466Y-61933152D01*
X157348085Y-61980771D01*
X157395704Y-62076009D01*
X157395704Y-62314104D01*
X157348085Y-62409342D01*
X157300466Y-62456961D01*
X157205228Y-62504580D01*
X156919514Y-62504580D01*
X156824276Y-62456961D01*
X156776657Y-62409342D01*
X215028542Y-45492942D02*
X214980923Y-45540561D01*
X214838066Y-45588180D01*
X214742828Y-45588180D01*
X214599971Y-45540561D01*
X214504733Y-45445323D01*
X214457114Y-45350085D01*
X214409495Y-45159609D01*
X214409495Y-45016752D01*
X214457114Y-44826276D01*
X214504733Y-44731038D01*
X214599971Y-44635800D01*
X214742828Y-44588180D01*
X214838066Y-44588180D01*
X214980923Y-44635800D01*
X215028542Y-44683419D01*
X215980923Y-45588180D02*
X215409495Y-45588180D01*
X215695209Y-45588180D02*
X215695209Y-44588180D01*
X215599971Y-44731038D01*
X215504733Y-44826276D01*
X215409495Y-44873895D01*
X216838066Y-44921514D02*
X216838066Y-45588180D01*
X216599971Y-44540561D02*
X216361876Y-45254847D01*
X216980923Y-45254847D01*
X134161304Y-80817980D02*
X134161304Y-79817980D01*
X134399400Y-79817980D01*
X134542257Y-79865600D01*
X134637495Y-79960838D01*
X134685114Y-80056076D01*
X134732733Y-80246552D01*
X134732733Y-80389409D01*
X134685114Y-80579885D01*
X134637495Y-80675123D01*
X134542257Y-80770361D01*
X134399400Y-80817980D01*
X134161304Y-80817980D01*
X135685114Y-80817980D02*
X135113685Y-80817980D01*
X135399400Y-80817980D02*
X135399400Y-79817980D01*
X135304161Y-79960838D01*
X135208923Y-80056076D01*
X135113685Y-80103695D01*
X170584904Y-78023980D02*
X170584904Y-77023980D01*
X170823000Y-77023980D01*
X170965857Y-77071600D01*
X171061095Y-77166838D01*
X171108714Y-77262076D01*
X171156333Y-77452552D01*
X171156333Y-77595409D01*
X171108714Y-77785885D01*
X171061095Y-77881123D01*
X170965857Y-77976361D01*
X170823000Y-78023980D01*
X170584904Y-78023980D01*
X172013476Y-77357314D02*
X172013476Y-78023980D01*
X171775380Y-76976361D02*
X171537285Y-77690647D01*
X172156333Y-77690647D01*
X214415304Y-65413780D02*
X214415304Y-64413780D01*
X214986733Y-65413780D02*
X214558161Y-64842352D01*
X214986733Y-64413780D02*
X214415304Y-64985209D01*
X215939114Y-65413780D02*
X215367685Y-65413780D01*
X215653400Y-65413780D02*
X215653400Y-64413780D01*
X215558161Y-64556638D01*
X215462923Y-64651876D01*
X215367685Y-64699495D01*
X137425133Y-77261980D02*
X137091800Y-76785790D01*
X136853704Y-77261980D02*
X136853704Y-76261980D01*
X137234657Y-76261980D01*
X137329895Y-76309600D01*
X137377514Y-76357219D01*
X137425133Y-76452457D01*
X137425133Y-76595314D01*
X137377514Y-76690552D01*
X137329895Y-76738171D01*
X137234657Y-76785790D01*
X136853704Y-76785790D01*
X138377514Y-77261980D02*
X137806085Y-77261980D01*
X138091800Y-77261980D02*
X138091800Y-76261980D01*
X137996561Y-76404838D01*
X137901323Y-76500076D01*
X137806085Y-76547695D01*
X221245133Y-65374780D02*
X220911800Y-64898590D01*
X220673704Y-65374780D02*
X220673704Y-64374780D01*
X221054657Y-64374780D01*
X221149895Y-64422400D01*
X221197514Y-64470019D01*
X221245133Y-64565257D01*
X221245133Y-64708114D01*
X221197514Y-64803352D01*
X221149895Y-64850971D01*
X221054657Y-64898590D01*
X220673704Y-64898590D01*
X221578466Y-64374780D02*
X222197514Y-64374780D01*
X221864180Y-64755733D01*
X222007038Y-64755733D01*
X222102276Y-64803352D01*
X222149895Y-64850971D01*
X222197514Y-64946209D01*
X222197514Y-65184304D01*
X222149895Y-65279542D01*
X222102276Y-65327161D01*
X222007038Y-65374780D01*
X221721323Y-65374780D01*
X221626085Y-65327161D01*
X221578466Y-65279542D01*
X208722933Y-68727580D02*
X208389600Y-68251390D01*
X208151504Y-68727580D02*
X208151504Y-67727580D01*
X208532457Y-67727580D01*
X208627695Y-67775200D01*
X208675314Y-67822819D01*
X208722933Y-67918057D01*
X208722933Y-68060914D01*
X208675314Y-68156152D01*
X208627695Y-68203771D01*
X208532457Y-68251390D01*
X208151504Y-68251390D01*
X209627695Y-67727580D02*
X209151504Y-67727580D01*
X209103885Y-68203771D01*
X209151504Y-68156152D01*
X209246742Y-68108533D01*
X209484838Y-68108533D01*
X209580076Y-68156152D01*
X209627695Y-68203771D01*
X209675314Y-68299009D01*
X209675314Y-68537104D01*
X209627695Y-68632342D01*
X209580076Y-68679961D01*
X209484838Y-68727580D01*
X209246742Y-68727580D01*
X209151504Y-68679961D01*
X209103885Y-68632342D01*
X194158733Y-67119780D02*
X193825400Y-66643590D01*
X193587304Y-67119780D02*
X193587304Y-66119780D01*
X193968257Y-66119780D01*
X194063495Y-66167400D01*
X194111114Y-66215019D01*
X194158733Y-66310257D01*
X194158733Y-66453114D01*
X194111114Y-66548352D01*
X194063495Y-66595971D01*
X193968257Y-66643590D01*
X193587304Y-66643590D01*
X195015876Y-66119780D02*
X194825400Y-66119780D01*
X194730161Y-66167400D01*
X194682542Y-66215019D01*
X194587304Y-66357876D01*
X194539685Y-66548352D01*
X194539685Y-66929304D01*
X194587304Y-67024542D01*
X194634923Y-67072161D01*
X194730161Y-67119780D01*
X194920638Y-67119780D01*
X195015876Y-67072161D01*
X195063495Y-67024542D01*
X195111114Y-66929304D01*
X195111114Y-66691209D01*
X195063495Y-66595971D01*
X195015876Y-66548352D01*
X194920638Y-66500733D01*
X194730161Y-66500733D01*
X194634923Y-66548352D01*
X194587304Y-66595971D01*
X194539685Y-66691209D01*
X207941942Y-82037180D02*
X207608609Y-81560990D01*
X207370514Y-82037180D02*
X207370514Y-81037180D01*
X207751466Y-81037180D01*
X207846704Y-81084800D01*
X207894323Y-81132419D01*
X207941942Y-81227657D01*
X207941942Y-81370514D01*
X207894323Y-81465752D01*
X207846704Y-81513371D01*
X207751466Y-81560990D01*
X207370514Y-81560990D01*
X208894323Y-82037180D02*
X208322895Y-82037180D01*
X208608609Y-82037180D02*
X208608609Y-81037180D01*
X208513371Y-81180038D01*
X208418133Y-81275276D01*
X208322895Y-81322895D01*
X209275276Y-81132419D02*
X209322895Y-81084800D01*
X209418133Y-81037180D01*
X209656228Y-81037180D01*
X209751466Y-81084800D01*
X209799085Y-81132419D01*
X209846704Y-81227657D01*
X209846704Y-81322895D01*
X209799085Y-81465752D01*
X209227657Y-82037180D01*
X209846704Y-82037180D01*
X193682542Y-76517780D02*
X193349209Y-76041590D01*
X193111114Y-76517780D02*
X193111114Y-75517780D01*
X193492066Y-75517780D01*
X193587304Y-75565400D01*
X193634923Y-75613019D01*
X193682542Y-75708257D01*
X193682542Y-75851114D01*
X193634923Y-75946352D01*
X193587304Y-75993971D01*
X193492066Y-76041590D01*
X193111114Y-76041590D01*
X194634923Y-76517780D02*
X194063495Y-76517780D01*
X194349209Y-76517780D02*
X194349209Y-75517780D01*
X194253971Y-75660638D01*
X194158733Y-75755876D01*
X194063495Y-75803495D01*
X194968257Y-75517780D02*
X195587304Y-75517780D01*
X195253971Y-75898733D01*
X195396828Y-75898733D01*
X195492066Y-75946352D01*
X195539685Y-75993971D01*
X195587304Y-76089209D01*
X195587304Y-76327304D01*
X195539685Y-76422542D01*
X195492066Y-76470161D01*
X195396828Y-76517780D01*
X195111114Y-76517780D01*
X195015876Y-76470161D01*
X194968257Y-76422542D01*
X154957542Y-56078380D02*
X154624209Y-55602190D01*
X154386114Y-56078380D02*
X154386114Y-55078380D01*
X154767066Y-55078380D01*
X154862304Y-55126000D01*
X154909923Y-55173619D01*
X154957542Y-55268857D01*
X154957542Y-55411714D01*
X154909923Y-55506952D01*
X154862304Y-55554571D01*
X154767066Y-55602190D01*
X154386114Y-55602190D01*
X155909923Y-56078380D02*
X155338495Y-56078380D01*
X155624209Y-56078380D02*
X155624209Y-55078380D01*
X155528971Y-55221238D01*
X155433733Y-55316476D01*
X155338495Y-55364095D01*
X156767066Y-55411714D02*
X156767066Y-56078380D01*
X156528971Y-55030761D02*
X156290876Y-55745047D01*
X156909923Y-55745047D01*
X191304942Y-60040780D02*
X190971609Y-59564590D01*
X190733514Y-60040780D02*
X190733514Y-59040780D01*
X191114466Y-59040780D01*
X191209704Y-59088400D01*
X191257323Y-59136019D01*
X191304942Y-59231257D01*
X191304942Y-59374114D01*
X191257323Y-59469352D01*
X191209704Y-59516971D01*
X191114466Y-59564590D01*
X190733514Y-59564590D01*
X192257323Y-60040780D02*
X191685895Y-60040780D01*
X191971609Y-60040780D02*
X191971609Y-59040780D01*
X191876371Y-59183638D01*
X191781133Y-59278876D01*
X191685895Y-59326495D01*
X193162085Y-59040780D02*
X192685895Y-59040780D01*
X192638276Y-59516971D01*
X192685895Y-59469352D01*
X192781133Y-59421733D01*
X193019228Y-59421733D01*
X193114466Y-59469352D01*
X193162085Y-59516971D01*
X193209704Y-59612209D01*
X193209704Y-59850304D01*
X193162085Y-59945542D01*
X193114466Y-59993161D01*
X193019228Y-60040780D01*
X192781133Y-60040780D01*
X192685895Y-59993161D01*
X192638276Y-59945542D01*
X213072742Y-57899580D02*
X212739409Y-57423390D01*
X212501314Y-57899580D02*
X212501314Y-56899580D01*
X212882266Y-56899580D01*
X212977504Y-56947200D01*
X213025123Y-56994819D01*
X213072742Y-57090057D01*
X213072742Y-57232914D01*
X213025123Y-57328152D01*
X212977504Y-57375771D01*
X212882266Y-57423390D01*
X212501314Y-57423390D01*
X214025123Y-57899580D02*
X213453695Y-57899580D01*
X213739409Y-57899580D02*
X213739409Y-56899580D01*
X213644171Y-57042438D01*
X213548933Y-57137676D01*
X213453695Y-57185295D01*
X214882266Y-56899580D02*
X214691790Y-56899580D01*
X214596552Y-56947200D01*
X214548933Y-56994819D01*
X214453695Y-57137676D01*
X214406076Y-57328152D01*
X214406076Y-57709104D01*
X214453695Y-57804342D01*
X214501314Y-57851961D01*
X214596552Y-57899580D01*
X214787028Y-57899580D01*
X214882266Y-57851961D01*
X214929885Y-57804342D01*
X214977504Y-57709104D01*
X214977504Y-57471009D01*
X214929885Y-57375771D01*
X214882266Y-57328152D01*
X214787028Y-57280533D01*
X214596552Y-57280533D01*
X214501314Y-57328152D01*
X214453695Y-57375771D01*
X214406076Y-57471009D01*
X156913342Y-49829980D02*
X156580009Y-49353790D01*
X156341914Y-49829980D02*
X156341914Y-48829980D01*
X156722866Y-48829980D01*
X156818104Y-48877600D01*
X156865723Y-48925219D01*
X156913342Y-49020457D01*
X156913342Y-49163314D01*
X156865723Y-49258552D01*
X156818104Y-49306171D01*
X156722866Y-49353790D01*
X156341914Y-49353790D01*
X157865723Y-49829980D02*
X157294295Y-49829980D01*
X157580009Y-49829980D02*
X157580009Y-48829980D01*
X157484771Y-48972838D01*
X157389533Y-49068076D01*
X157294295Y-49115695D01*
X158199057Y-48829980D02*
X158865723Y-48829980D01*
X158437152Y-49829980D01*
X176522142Y-78150980D02*
X176188809Y-77674790D01*
X175950714Y-78150980D02*
X175950714Y-77150980D01*
X176331666Y-77150980D01*
X176426904Y-77198600D01*
X176474523Y-77246219D01*
X176522142Y-77341457D01*
X176522142Y-77484314D01*
X176474523Y-77579552D01*
X176426904Y-77627171D01*
X176331666Y-77674790D01*
X175950714Y-77674790D01*
X177474523Y-78150980D02*
X176903095Y-78150980D01*
X177188809Y-78150980D02*
X177188809Y-77150980D01*
X177093571Y-77293838D01*
X176998333Y-77389076D01*
X176903095Y-77436695D01*
X178045952Y-77579552D02*
X177950714Y-77531933D01*
X177903095Y-77484314D01*
X177855476Y-77389076D01*
X177855476Y-77341457D01*
X177903095Y-77246219D01*
X177950714Y-77198600D01*
X178045952Y-77150980D01*
X178236428Y-77150980D01*
X178331666Y-77198600D01*
X178379285Y-77246219D01*
X178426904Y-77341457D01*
X178426904Y-77389076D01*
X178379285Y-77484314D01*
X178331666Y-77531933D01*
X178236428Y-77579552D01*
X178045952Y-77579552D01*
X177950714Y-77627171D01*
X177903095Y-77674790D01*
X177855476Y-77770028D01*
X177855476Y-77960504D01*
X177903095Y-78055742D01*
X177950714Y-78103361D01*
X178045952Y-78150980D01*
X178236428Y-78150980D01*
X178331666Y-78103361D01*
X178379285Y-78055742D01*
X178426904Y-77960504D01*
X178426904Y-77770028D01*
X178379285Y-77674790D01*
X178331666Y-77627171D01*
X178236428Y-77579552D01*
X156862542Y-51633380D02*
X156529209Y-51157190D01*
X156291114Y-51633380D02*
X156291114Y-50633380D01*
X156672066Y-50633380D01*
X156767304Y-50681000D01*
X156814923Y-50728619D01*
X156862542Y-50823857D01*
X156862542Y-50966714D01*
X156814923Y-51061952D01*
X156767304Y-51109571D01*
X156672066Y-51157190D01*
X156291114Y-51157190D01*
X157243495Y-50728619D02*
X157291114Y-50681000D01*
X157386352Y-50633380D01*
X157624447Y-50633380D01*
X157719685Y-50681000D01*
X157767304Y-50728619D01*
X157814923Y-50823857D01*
X157814923Y-50919095D01*
X157767304Y-51061952D01*
X157195876Y-51633380D01*
X157814923Y-51633380D01*
X158433971Y-50633380D02*
X158529209Y-50633380D01*
X158624447Y-50681000D01*
X158672066Y-50728619D01*
X158719685Y-50823857D01*
X158767304Y-51014333D01*
X158767304Y-51252428D01*
X158719685Y-51442904D01*
X158672066Y-51538142D01*
X158624447Y-51585761D01*
X158529209Y-51633380D01*
X158433971Y-51633380D01*
X158338733Y-51585761D01*
X158291114Y-51538142D01*
X158243495Y-51442904D01*
X158195876Y-51252428D01*
X158195876Y-51014333D01*
X158243495Y-50823857D01*
X158291114Y-50728619D01*
X158338733Y-50681000D01*
X158433971Y-50633380D01*
X140741495Y-85990180D02*
X140741495Y-86799704D01*
X140789114Y-86894942D01*
X140836733Y-86942561D01*
X140931971Y-86990180D01*
X141122447Y-86990180D01*
X141217685Y-86942561D01*
X141265304Y-86894942D01*
X141312923Y-86799704D01*
X141312923Y-85990180D01*
X141741495Y-86085419D02*
X141789114Y-86037800D01*
X141884352Y-85990180D01*
X142122447Y-85990180D01*
X142217685Y-86037800D01*
X142265304Y-86085419D01*
X142312923Y-86180657D01*
X142312923Y-86275895D01*
X142265304Y-86418752D01*
X141693876Y-86990180D01*
X142312923Y-86990180D01*
X200421495Y-65219780D02*
X200421495Y-66029304D01*
X200469114Y-66124542D01*
X200516733Y-66172161D01*
X200611971Y-66219780D01*
X200802447Y-66219780D01*
X200897685Y-66172161D01*
X200945304Y-66124542D01*
X200992923Y-66029304D01*
X200992923Y-65219780D01*
X201945304Y-65219780D02*
X201469114Y-65219780D01*
X201421495Y-65695971D01*
X201469114Y-65648352D01*
X201564352Y-65600733D01*
X201802447Y-65600733D01*
X201897685Y-65648352D01*
X201945304Y-65695971D01*
X201992923Y-65791209D01*
X201992923Y-66029304D01*
X201945304Y-66124542D01*
X201897685Y-66172161D01*
X201802447Y-66219780D01*
X201564352Y-66219780D01*
X201469114Y-66172161D01*
X201421495Y-66124542D01*
X200431495Y-74890380D02*
X200431495Y-75699904D01*
X200479114Y-75795142D01*
X200526733Y-75842761D01*
X200621971Y-75890380D01*
X200812447Y-75890380D01*
X200907685Y-75842761D01*
X200955304Y-75795142D01*
X201002923Y-75699904D01*
X201002923Y-74890380D01*
X201907685Y-74890380D02*
X201717209Y-74890380D01*
X201621971Y-74938000D01*
X201574352Y-74985619D01*
X201479114Y-75128476D01*
X201431495Y-75318952D01*
X201431495Y-75699904D01*
X201479114Y-75795142D01*
X201526733Y-75842761D01*
X201621971Y-75890380D01*
X201812447Y-75890380D01*
X201907685Y-75842761D01*
X201955304Y-75795142D01*
X202002923Y-75699904D01*
X202002923Y-75461809D01*
X201955304Y-75366571D01*
X201907685Y-75318952D01*
X201812447Y-75271333D01*
X201621971Y-75271333D01*
X201526733Y-75318952D01*
X201479114Y-75366571D01*
X201431495Y-75461809D01*
X130734266Y-52948780D02*
X130734266Y-53663066D01*
X130686647Y-53805923D01*
X130591409Y-53901161D01*
X130448552Y-53948780D01*
X130353314Y-53948780D01*
X131162838Y-53044019D02*
X131210457Y-52996400D01*
X131305695Y-52948780D01*
X131543790Y-52948780D01*
X131639028Y-52996400D01*
X131686647Y-53044019D01*
X131734266Y-53139257D01*
X131734266Y-53234495D01*
X131686647Y-53377352D01*
X131115219Y-53948780D01*
X131734266Y-53948780D01*
X134307780Y-84602533D02*
X135022066Y-84602533D01*
X135164923Y-84650152D01*
X135260161Y-84745390D01*
X135307780Y-84888247D01*
X135307780Y-84983485D01*
X135307780Y-84126342D02*
X134307780Y-84126342D01*
X134307780Y-83745390D01*
X134355400Y-83650152D01*
X134403019Y-83602533D01*
X134498257Y-83554914D01*
X134641114Y-83554914D01*
X134736352Y-83602533D01*
X134783971Y-83650152D01*
X134831590Y-83745390D01*
X134831590Y-84126342D01*
X134403019Y-83173961D02*
X134355400Y-83126342D01*
X134307780Y-83031104D01*
X134307780Y-82793009D01*
X134355400Y-82697771D01*
X134403019Y-82650152D01*
X134498257Y-82602533D01*
X134593495Y-82602533D01*
X134736352Y-82650152D01*
X135307780Y-83221580D01*
X135307780Y-82602533D01*
X206830704Y-88793580D02*
X206830704Y-87793580D01*
X207068800Y-87793580D01*
X207211657Y-87841200D01*
X207306895Y-87936438D01*
X207354514Y-88031676D01*
X207402133Y-88222152D01*
X207402133Y-88365009D01*
X207354514Y-88555485D01*
X207306895Y-88650723D01*
X207211657Y-88745961D01*
X207068800Y-88793580D01*
X206830704Y-88793580D01*
X207735466Y-87793580D02*
X208354514Y-87793580D01*
X208021180Y-88174533D01*
X208164038Y-88174533D01*
X208259276Y-88222152D01*
X208306895Y-88269771D01*
X208354514Y-88365009D01*
X208354514Y-88603104D01*
X208306895Y-88698342D01*
X208259276Y-88745961D01*
X208164038Y-88793580D01*
X207878323Y-88793580D01*
X207783085Y-88745961D01*
X207735466Y-88698342D01*
X204638304Y-91708266D02*
X205114495Y-91708266D01*
X204543066Y-91993980D02*
X204876400Y-90993980D01*
X205209733Y-91993980D01*
X139708047Y-36809371D02*
X139850904Y-36856990D01*
X139898523Y-36904609D01*
X139946142Y-36999847D01*
X139946142Y-37142704D01*
X139898523Y-37237942D01*
X139850904Y-37285561D01*
X139755666Y-37333180D01*
X139374714Y-37333180D01*
X139374714Y-36333180D01*
X139708047Y-36333180D01*
X139803285Y-36380800D01*
X139850904Y-36428419D01*
X139898523Y-36523657D01*
X139898523Y-36618895D01*
X139850904Y-36714133D01*
X139803285Y-36761752D01*
X139708047Y-36809371D01*
X139374714Y-36809371D01*
X140279476Y-36333180D02*
X140946142Y-36333180D01*
X140279476Y-37333180D01*
X140946142Y-37333180D01*
X141850904Y-37333180D02*
X141279476Y-37333180D01*
X141565190Y-37333180D02*
X141565190Y-36333180D01*
X141469952Y-36476038D01*
X141374714Y-36571276D01*
X141279476Y-36618895D01*
X136388047Y-43302228D02*
X137149952Y-43302228D01*
X136769000Y-43683180D02*
X136769000Y-42921276D01*
X167905133Y-80087742D02*
X167857514Y-80135361D01*
X167714657Y-80182980D01*
X167619419Y-80182980D01*
X167476561Y-80135361D01*
X167381323Y-80040123D01*
X167333704Y-79944885D01*
X167286085Y-79754409D01*
X167286085Y-79611552D01*
X167333704Y-79421076D01*
X167381323Y-79325838D01*
X167476561Y-79230600D01*
X167619419Y-79182980D01*
X167714657Y-79182980D01*
X167857514Y-79230600D01*
X167905133Y-79278219D01*
X168809895Y-79182980D02*
X168333704Y-79182980D01*
X168286085Y-79659171D01*
X168333704Y-79611552D01*
X168428942Y-79563933D01*
X168667038Y-79563933D01*
X168762276Y-79611552D01*
X168809895Y-79659171D01*
X168857514Y-79754409D01*
X168857514Y-79992504D01*
X168809895Y-80087742D01*
X168762276Y-80135361D01*
X168667038Y-80182980D01*
X168428942Y-80182980D01*
X168333704Y-80135361D01*
X168286085Y-80087742D01*
X179665333Y-87910942D02*
X179617714Y-87958561D01*
X179474857Y-88006180D01*
X179379619Y-88006180D01*
X179236761Y-87958561D01*
X179141523Y-87863323D01*
X179093904Y-87768085D01*
X179046285Y-87577609D01*
X179046285Y-87434752D01*
X179093904Y-87244276D01*
X179141523Y-87149038D01*
X179236761Y-87053800D01*
X179379619Y-87006180D01*
X179474857Y-87006180D01*
X179617714Y-87053800D01*
X179665333Y-87101419D01*
X180236761Y-87434752D02*
X180141523Y-87387133D01*
X180093904Y-87339514D01*
X180046285Y-87244276D01*
X180046285Y-87196657D01*
X180093904Y-87101419D01*
X180141523Y-87053800D01*
X180236761Y-87006180D01*
X180427238Y-87006180D01*
X180522476Y-87053800D01*
X180570095Y-87101419D01*
X180617714Y-87196657D01*
X180617714Y-87244276D01*
X180570095Y-87339514D01*
X180522476Y-87387133D01*
X180427238Y-87434752D01*
X180236761Y-87434752D01*
X180141523Y-87482371D01*
X180093904Y-87529990D01*
X180046285Y-87625228D01*
X180046285Y-87815704D01*
X180093904Y-87910942D01*
X180141523Y-87958561D01*
X180236761Y-88006180D01*
X180427238Y-88006180D01*
X180522476Y-87958561D01*
X180570095Y-87910942D01*
X180617714Y-87815704D01*
X180617714Y-87625228D01*
X180570095Y-87529990D01*
X180522476Y-87482371D01*
X180427238Y-87434752D01*
X161129742Y-89714342D02*
X161082123Y-89761961D01*
X160939266Y-89809580D01*
X160844028Y-89809580D01*
X160701171Y-89761961D01*
X160605933Y-89666723D01*
X160558314Y-89571485D01*
X160510695Y-89381009D01*
X160510695Y-89238152D01*
X160558314Y-89047676D01*
X160605933Y-88952438D01*
X160701171Y-88857200D01*
X160844028Y-88809580D01*
X160939266Y-88809580D01*
X161082123Y-88857200D01*
X161129742Y-88904819D01*
X162082123Y-89809580D02*
X161510695Y-89809580D01*
X161796409Y-89809580D02*
X161796409Y-88809580D01*
X161701171Y-88952438D01*
X161605933Y-89047676D01*
X161510695Y-89095295D01*
X162701171Y-88809580D02*
X162796409Y-88809580D01*
X162891647Y-88857200D01*
X162939266Y-88904819D01*
X162986885Y-89000057D01*
X163034504Y-89190533D01*
X163034504Y-89428628D01*
X162986885Y-89619104D01*
X162939266Y-89714342D01*
X162891647Y-89761961D01*
X162796409Y-89809580D01*
X162701171Y-89809580D01*
X162605933Y-89761961D01*
X162558314Y-89714342D01*
X162510695Y-89619104D01*
X162463076Y-89428628D01*
X162463076Y-89190533D01*
X162510695Y-89000057D01*
X162558314Y-88904819D01*
X162605933Y-88857200D01*
X162701171Y-88809580D01*
X133450104Y-58491380D02*
X133450104Y-57491380D01*
X133688200Y-57491380D01*
X133831057Y-57539000D01*
X133926295Y-57634238D01*
X133973914Y-57729476D01*
X134021533Y-57919952D01*
X134021533Y-58062809D01*
X133973914Y-58253285D01*
X133926295Y-58348523D01*
X133831057Y-58443761D01*
X133688200Y-58491380D01*
X133450104Y-58491380D01*
X134878676Y-57491380D02*
X134688200Y-57491380D01*
X134592961Y-57539000D01*
X134545342Y-57586619D01*
X134450104Y-57729476D01*
X134402485Y-57919952D01*
X134402485Y-58300904D01*
X134450104Y-58396142D01*
X134497723Y-58443761D01*
X134592961Y-58491380D01*
X134783438Y-58491380D01*
X134878676Y-58443761D01*
X134926295Y-58396142D01*
X134973914Y-58300904D01*
X134973914Y-58062809D01*
X134926295Y-57967571D01*
X134878676Y-57919952D01*
X134783438Y-57872333D01*
X134592961Y-57872333D01*
X134497723Y-57919952D01*
X134450104Y-57967571D01*
X134402485Y-58062809D01*
X134186704Y-72893180D02*
X134186704Y-71893180D01*
X134424800Y-71893180D01*
X134567657Y-71940800D01*
X134662895Y-72036038D01*
X134710514Y-72131276D01*
X134758133Y-72321752D01*
X134758133Y-72464609D01*
X134710514Y-72655085D01*
X134662895Y-72750323D01*
X134567657Y-72845561D01*
X134424800Y-72893180D01*
X134186704Y-72893180D01*
X135091466Y-71893180D02*
X135758133Y-71893180D01*
X135329561Y-72893180D01*
X187818733Y-82189580D02*
X187485400Y-81713390D01*
X187247304Y-82189580D02*
X187247304Y-81189580D01*
X187628257Y-81189580D01*
X187723495Y-81237200D01*
X187771114Y-81284819D01*
X187818733Y-81380057D01*
X187818733Y-81522914D01*
X187771114Y-81618152D01*
X187723495Y-81665771D01*
X187628257Y-81713390D01*
X187247304Y-81713390D01*
X188675876Y-81522914D02*
X188675876Y-82189580D01*
X188437780Y-81141961D02*
X188199685Y-81856247D01*
X188818733Y-81856247D01*
X174737733Y-95041980D02*
X174404400Y-94565790D01*
X174166304Y-95041980D02*
X174166304Y-94041980D01*
X174547257Y-94041980D01*
X174642495Y-94089600D01*
X174690114Y-94137219D01*
X174737733Y-94232457D01*
X174737733Y-94375314D01*
X174690114Y-94470552D01*
X174642495Y-94518171D01*
X174547257Y-94565790D01*
X174166304Y-94565790D01*
X175071066Y-94041980D02*
X175737733Y-94041980D01*
X175309161Y-95041980D01*
X182256133Y-94305380D02*
X181922800Y-93829190D01*
X181684704Y-94305380D02*
X181684704Y-93305380D01*
X182065657Y-93305380D01*
X182160895Y-93353000D01*
X182208514Y-93400619D01*
X182256133Y-93495857D01*
X182256133Y-93638714D01*
X182208514Y-93733952D01*
X182160895Y-93781571D01*
X182065657Y-93829190D01*
X181684704Y-93829190D01*
X182827561Y-93733952D02*
X182732323Y-93686333D01*
X182684704Y-93638714D01*
X182637085Y-93543476D01*
X182637085Y-93495857D01*
X182684704Y-93400619D01*
X182732323Y-93353000D01*
X182827561Y-93305380D01*
X183018038Y-93305380D01*
X183113276Y-93353000D01*
X183160895Y-93400619D01*
X183208514Y-93495857D01*
X183208514Y-93543476D01*
X183160895Y-93638714D01*
X183113276Y-93686333D01*
X183018038Y-93733952D01*
X182827561Y-93733952D01*
X182732323Y-93781571D01*
X182684704Y-93829190D01*
X182637085Y-93924428D01*
X182637085Y-94114904D01*
X182684704Y-94210142D01*
X182732323Y-94257761D01*
X182827561Y-94305380D01*
X183018038Y-94305380D01*
X183113276Y-94257761D01*
X183160895Y-94210142D01*
X183208514Y-94114904D01*
X183208514Y-93924428D01*
X183160895Y-93829190D01*
X183113276Y-93781571D01*
X183018038Y-93733952D01*
X184770733Y-88006180D02*
X184437400Y-87529990D01*
X184199304Y-88006180D02*
X184199304Y-87006180D01*
X184580257Y-87006180D01*
X184675495Y-87053800D01*
X184723114Y-87101419D01*
X184770733Y-87196657D01*
X184770733Y-87339514D01*
X184723114Y-87434752D01*
X184675495Y-87482371D01*
X184580257Y-87529990D01*
X184199304Y-87529990D01*
X185246923Y-88006180D02*
X185437400Y-88006180D01*
X185532638Y-87958561D01*
X185580257Y-87910942D01*
X185675495Y-87768085D01*
X185723114Y-87577609D01*
X185723114Y-87196657D01*
X185675495Y-87101419D01*
X185627876Y-87053800D01*
X185532638Y-87006180D01*
X185342161Y-87006180D01*
X185246923Y-87053800D01*
X185199304Y-87101419D01*
X185151685Y-87196657D01*
X185151685Y-87434752D01*
X185199304Y-87529990D01*
X185246923Y-87577609D01*
X185342161Y-87625228D01*
X185532638Y-87625228D01*
X185627876Y-87577609D01*
X185675495Y-87529990D01*
X185723114Y-87434752D01*
X177030142Y-95041980D02*
X176696809Y-94565790D01*
X176458714Y-95041980D02*
X176458714Y-94041980D01*
X176839666Y-94041980D01*
X176934904Y-94089600D01*
X176982523Y-94137219D01*
X177030142Y-94232457D01*
X177030142Y-94375314D01*
X176982523Y-94470552D01*
X176934904Y-94518171D01*
X176839666Y-94565790D01*
X176458714Y-94565790D01*
X177982523Y-95041980D02*
X177411095Y-95041980D01*
X177696809Y-95041980D02*
X177696809Y-94041980D01*
X177601571Y-94184838D01*
X177506333Y-94280076D01*
X177411095Y-94327695D01*
X178601571Y-94041980D02*
X178696809Y-94041980D01*
X178792047Y-94089600D01*
X178839666Y-94137219D01*
X178887285Y-94232457D01*
X178934904Y-94422933D01*
X178934904Y-94661028D01*
X178887285Y-94851504D01*
X178839666Y-94946742D01*
X178792047Y-94994361D01*
X178696809Y-95041980D01*
X178601571Y-95041980D01*
X178506333Y-94994361D01*
X178458714Y-94946742D01*
X178411095Y-94851504D01*
X178363476Y-94661028D01*
X178363476Y-94422933D01*
X178411095Y-94232457D01*
X178458714Y-94137219D01*
X178506333Y-94089600D01*
X178601571Y-94041980D01*
X172178742Y-93086180D02*
X171845409Y-92609990D01*
X171607314Y-93086180D02*
X171607314Y-92086180D01*
X171988266Y-92086180D01*
X172083504Y-92133800D01*
X172131123Y-92181419D01*
X172178742Y-92276657D01*
X172178742Y-92419514D01*
X172131123Y-92514752D01*
X172083504Y-92562371D01*
X171988266Y-92609990D01*
X171607314Y-92609990D01*
X173131123Y-93086180D02*
X172559695Y-93086180D01*
X172845409Y-93086180D02*
X172845409Y-92086180D01*
X172750171Y-92229038D01*
X172654933Y-92324276D01*
X172559695Y-92371895D01*
X174083504Y-93086180D02*
X173512076Y-93086180D01*
X173797790Y-93086180D02*
X173797790Y-92086180D01*
X173702552Y-92229038D01*
X173607314Y-92324276D01*
X173512076Y-92371895D01*
X169156142Y-93060780D02*
X168822809Y-92584590D01*
X168584714Y-93060780D02*
X168584714Y-92060780D01*
X168965666Y-92060780D01*
X169060904Y-92108400D01*
X169108523Y-92156019D01*
X169156142Y-92251257D01*
X169156142Y-92394114D01*
X169108523Y-92489352D01*
X169060904Y-92536971D01*
X168965666Y-92584590D01*
X168584714Y-92584590D01*
X169537095Y-92156019D02*
X169584714Y-92108400D01*
X169679952Y-92060780D01*
X169918047Y-92060780D01*
X170013285Y-92108400D01*
X170060904Y-92156019D01*
X170108523Y-92251257D01*
X170108523Y-92346495D01*
X170060904Y-92489352D01*
X169489476Y-93060780D01*
X170108523Y-93060780D01*
X171060904Y-93060780D02*
X170489476Y-93060780D01*
X170775190Y-93060780D02*
X170775190Y-92060780D01*
X170679952Y-92203638D01*
X170584714Y-92298876D01*
X170489476Y-92346495D01*
X153492295Y-80579980D02*
X153492295Y-81389504D01*
X153539914Y-81484742D01*
X153587533Y-81532361D01*
X153682771Y-81579980D01*
X153873247Y-81579980D01*
X153968485Y-81532361D01*
X154016104Y-81484742D01*
X154063723Y-81389504D01*
X154063723Y-80579980D01*
X155063723Y-81579980D02*
X154492295Y-81579980D01*
X154778009Y-81579980D02*
X154778009Y-80579980D01*
X154682771Y-80722838D01*
X154587533Y-80818076D01*
X154492295Y-80865695D01*
X210210495Y-52995580D02*
X210210495Y-53805104D01*
X210258114Y-53900342D01*
X210305733Y-53947961D01*
X210400971Y-53995580D01*
X210591447Y-53995580D01*
X210686685Y-53947961D01*
X210734304Y-53900342D01*
X210781923Y-53805104D01*
X210781923Y-52995580D01*
X211400971Y-53424152D02*
X211305733Y-53376533D01*
X211258114Y-53328914D01*
X211210495Y-53233676D01*
X211210495Y-53186057D01*
X211258114Y-53090819D01*
X211305733Y-53043200D01*
X211400971Y-52995580D01*
X211591447Y-52995580D01*
X211686685Y-53043200D01*
X211734304Y-53090819D01*
X211781923Y-53186057D01*
X211781923Y-53233676D01*
X211734304Y-53328914D01*
X211686685Y-53376533D01*
X211591447Y-53424152D01*
X211400971Y-53424152D01*
X211305733Y-53471771D01*
X211258114Y-53519390D01*
X211210495Y-53614628D01*
X211210495Y-53805104D01*
X211258114Y-53900342D01*
X211305733Y-53947961D01*
X211400971Y-53995580D01*
X211591447Y-53995580D01*
X211686685Y-53947961D01*
X211734304Y-53900342D01*
X211781923Y-53805104D01*
X211781923Y-53614628D01*
X211734304Y-53519390D01*
X211686685Y-53471771D01*
X211591447Y-53424152D01*
X130734266Y-89608780D02*
X130734266Y-90323066D01*
X130686647Y-90465923D01*
X130591409Y-90561161D01*
X130448552Y-90608780D01*
X130353314Y-90608780D01*
X131734266Y-90608780D02*
X131162838Y-90608780D01*
X131448552Y-90608780D02*
X131448552Y-89608780D01*
X131353314Y-89751638D01*
X131258076Y-89846876D01*
X131162838Y-89894495D01*
X133889761Y-89803219D02*
X133794523Y-89755600D01*
X133699285Y-89660361D01*
X133556428Y-89517504D01*
X133461190Y-89469885D01*
X133365952Y-89469885D01*
X133413571Y-89707980D02*
X133318333Y-89660361D01*
X133223095Y-89565123D01*
X133175476Y-89374647D01*
X133175476Y-89041314D01*
X133223095Y-88850838D01*
X133318333Y-88755600D01*
X133413571Y-88707980D01*
X133604047Y-88707980D01*
X133699285Y-88755600D01*
X133794523Y-88850838D01*
X133842142Y-89041314D01*
X133842142Y-89374647D01*
X133794523Y-89565123D01*
X133699285Y-89660361D01*
X133604047Y-89707980D01*
X133413571Y-89707980D01*
X134794523Y-89707980D02*
X134223095Y-89707980D01*
X134508809Y-89707980D02*
X134508809Y-88707980D01*
X134413571Y-88850838D01*
X134318333Y-88946076D01*
X134223095Y-88993695D01*
X222094466Y-89165180D02*
X222094466Y-89879466D01*
X222046847Y-90022323D01*
X221951609Y-90117561D01*
X221808752Y-90165180D01*
X221713514Y-90165180D01*
X222475419Y-89165180D02*
X223094466Y-89165180D01*
X222761133Y-89546133D01*
X222903990Y-89546133D01*
X222999228Y-89593752D01*
X223046847Y-89641371D01*
X223094466Y-89736609D01*
X223094466Y-89974704D01*
X223046847Y-90069942D01*
X222999228Y-90117561D01*
X222903990Y-90165180D01*
X222618276Y-90165180D01*
X222523038Y-90117561D01*
X222475419Y-90069942D01*
X131318095Y-29297780D02*
X131318095Y-28297780D01*
X131318095Y-28773971D02*
X131889523Y-28773971D01*
X131889523Y-29297780D02*
X131889523Y-28297780D01*
X132889523Y-29297780D02*
X132318095Y-29297780D01*
X132603809Y-29297780D02*
X132603809Y-28297780D01*
X132508571Y-28440638D01*
X132413333Y-28535876D01*
X132318095Y-28583495D01*
X218821095Y-116572180D02*
X218821095Y-115572180D01*
X218821095Y-116048371D02*
X219392523Y-116048371D01*
X219392523Y-116572180D02*
X219392523Y-115572180D01*
X219821095Y-115667419D02*
X219868714Y-115619800D01*
X219963952Y-115572180D01*
X220202047Y-115572180D01*
X220297285Y-115619800D01*
X220344904Y-115667419D01*
X220392523Y-115762657D01*
X220392523Y-115857895D01*
X220344904Y-116000752D01*
X219773476Y-116572180D01*
X220392523Y-116572180D01*
X217601895Y-28891380D02*
X217601895Y-27891380D01*
X217601895Y-28367571D02*
X218173323Y-28367571D01*
X218173323Y-28891380D02*
X218173323Y-27891380D01*
X218554276Y-27891380D02*
X219173323Y-27891380D01*
X218839990Y-28272333D01*
X218982847Y-28272333D01*
X219078085Y-28319952D01*
X219125704Y-28367571D01*
X219173323Y-28462809D01*
X219173323Y-28700904D01*
X219125704Y-28796142D01*
X219078085Y-28843761D01*
X218982847Y-28891380D01*
X218697133Y-28891380D01*
X218601895Y-28843761D01*
X218554276Y-28796142D01*
X131724495Y-116978580D02*
X131724495Y-115978580D01*
X131724495Y-116454771D02*
X132295923Y-116454771D01*
X132295923Y-116978580D02*
X132295923Y-115978580D01*
X133200685Y-116311914D02*
X133200685Y-116978580D01*
X132962590Y-115930961D02*
X132724495Y-116645247D01*
X133343542Y-116645247D01*
X222145266Y-50785780D02*
X222145266Y-51500066D01*
X222097647Y-51642923D01*
X222002409Y-51738161D01*
X221859552Y-51785780D01*
X221764314Y-51785780D01*
X223050028Y-51119114D02*
X223050028Y-51785780D01*
X222811933Y-50738161D02*
X222573838Y-51452447D01*
X223192885Y-51452447D01*
X184124695Y-82713580D02*
X184124695Y-83523104D01*
X184172314Y-83618342D01*
X184219933Y-83665961D01*
X184315171Y-83713580D01*
X184505647Y-83713580D01*
X184600885Y-83665961D01*
X184648504Y-83618342D01*
X184696123Y-83523104D01*
X184696123Y-82713580D01*
X185077076Y-82713580D02*
X185696123Y-82713580D01*
X185362790Y-83094533D01*
X185505647Y-83094533D01*
X185600885Y-83142152D01*
X185648504Y-83189771D01*
X185696123Y-83285009D01*
X185696123Y-83523104D01*
X185648504Y-83618342D01*
X185600885Y-83665961D01*
X185505647Y-83713580D01*
X185219933Y-83713580D01*
X185124695Y-83665961D01*
X185077076Y-83618342D01*
X174625095Y-82484980D02*
X174625095Y-83294504D01*
X174672714Y-83389742D01*
X174720333Y-83437361D01*
X174815571Y-83484980D01*
X175006047Y-83484980D01*
X175101285Y-83437361D01*
X175148904Y-83389742D01*
X175196523Y-83294504D01*
X175196523Y-82484980D01*
X176101285Y-82818314D02*
X176101285Y-83484980D01*
X175863190Y-82437361D02*
X175625095Y-83151647D01*
X176244142Y-83151647D01*
X166116095Y-82510380D02*
X166116095Y-83319904D01*
X166163714Y-83415142D01*
X166211333Y-83462761D01*
X166306571Y-83510380D01*
X166497047Y-83510380D01*
X166592285Y-83462761D01*
X166639904Y-83415142D01*
X166687523Y-83319904D01*
X166687523Y-82510380D01*
X167211333Y-83510380D02*
X167401809Y-83510380D01*
X167497047Y-83462761D01*
X167544666Y-83415142D01*
X167639904Y-83272285D01*
X167687523Y-83081809D01*
X167687523Y-82700857D01*
X167639904Y-82605619D01*
X167592285Y-82558000D01*
X167497047Y-82510380D01*
X167306571Y-82510380D01*
X167211333Y-82558000D01*
X167163714Y-82605619D01*
X167116095Y-82700857D01*
X167116095Y-82938952D01*
X167163714Y-83034190D01*
X167211333Y-83081809D01*
X167306571Y-83129428D01*
X167497047Y-83129428D01*
X167592285Y-83081809D01*
X167639904Y-83034190D01*
X167687523Y-82938952D01*
X176675885Y-105928571D02*
X176818742Y-105976190D01*
X176866361Y-106023809D01*
X176913980Y-106119047D01*
X176913980Y-106261904D01*
X176866361Y-106357142D01*
X176818742Y-106404761D01*
X176723504Y-106452380D01*
X176342552Y-106452380D01*
X176342552Y-105452380D01*
X176675885Y-105452380D01*
X176771123Y-105500000D01*
X176818742Y-105547619D01*
X176866361Y-105642857D01*
X176866361Y-105738095D01*
X176818742Y-105833333D01*
X176771123Y-105880952D01*
X176675885Y-105928571D01*
X176342552Y-105928571D01*
X177199695Y-105452380D02*
X177771123Y-105452380D01*
X177485409Y-106452380D02*
X177485409Y-105452380D01*
X178628266Y-106452380D02*
X178056838Y-106452380D01*
X178342552Y-106452380D02*
X178342552Y-105452380D01*
X178247314Y-105595238D01*
X178152076Y-105690476D01*
X178056838Y-105738095D01*
X153955761Y-42152819D02*
X153860523Y-42105200D01*
X153765285Y-42009961D01*
X153622428Y-41867104D01*
X153527190Y-41819485D01*
X153431952Y-41819485D01*
X153479571Y-42057580D02*
X153384333Y-42009961D01*
X153289095Y-41914723D01*
X153241476Y-41724247D01*
X153241476Y-41390914D01*
X153289095Y-41200438D01*
X153384333Y-41105200D01*
X153479571Y-41057580D01*
X153670047Y-41057580D01*
X153765285Y-41105200D01*
X153860523Y-41200438D01*
X153908142Y-41390914D01*
X153908142Y-41724247D01*
X153860523Y-41914723D01*
X153765285Y-42009961D01*
X153670047Y-42057580D01*
X153479571Y-42057580D01*
X154289095Y-41152819D02*
X154336714Y-41105200D01*
X154431952Y-41057580D01*
X154670047Y-41057580D01*
X154765285Y-41105200D01*
X154812904Y-41152819D01*
X154860523Y-41248057D01*
X154860523Y-41343295D01*
X154812904Y-41486152D01*
X154241476Y-42057580D01*
X154860523Y-42057580D01*
X194140742Y-45493942D02*
X194093123Y-45541561D01*
X193950266Y-45589180D01*
X193855028Y-45589180D01*
X193712171Y-45541561D01*
X193616933Y-45446323D01*
X193569314Y-45351085D01*
X193521695Y-45160609D01*
X193521695Y-45017752D01*
X193569314Y-44827276D01*
X193616933Y-44732038D01*
X193712171Y-44636800D01*
X193855028Y-44589180D01*
X193950266Y-44589180D01*
X194093123Y-44636800D01*
X194140742Y-44684419D01*
X195093123Y-45589180D02*
X194521695Y-45589180D01*
X194807409Y-45589180D02*
X194807409Y-44589180D01*
X194712171Y-44732038D01*
X194616933Y-44827276D01*
X194521695Y-44874895D01*
X195997885Y-44589180D02*
X195521695Y-44589180D01*
X195474076Y-45065371D01*
X195521695Y-45017752D01*
X195616933Y-44970133D01*
X195855028Y-44970133D01*
X195950266Y-45017752D01*
X195997885Y-45065371D01*
X196045504Y-45160609D01*
X196045504Y-45398704D01*
X195997885Y-45493942D01*
X195950266Y-45541561D01*
X195855028Y-45589180D01*
X195616933Y-45589180D01*
X195521695Y-45541561D01*
X195474076Y-45493942D01*
X192854342Y-79401942D02*
X192806723Y-79449561D01*
X192663866Y-79497180D01*
X192568628Y-79497180D01*
X192425771Y-79449561D01*
X192330533Y-79354323D01*
X192282914Y-79259085D01*
X192235295Y-79068609D01*
X192235295Y-78925752D01*
X192282914Y-78735276D01*
X192330533Y-78640038D01*
X192425771Y-78544800D01*
X192568628Y-78497180D01*
X192663866Y-78497180D01*
X192806723Y-78544800D01*
X192854342Y-78592419D01*
X193806723Y-79497180D02*
X193235295Y-79497180D01*
X193521009Y-79497180D02*
X193521009Y-78497180D01*
X193425771Y-78640038D01*
X193330533Y-78735276D01*
X193235295Y-78782895D01*
X194663866Y-78497180D02*
X194473390Y-78497180D01*
X194378152Y-78544800D01*
X194330533Y-78592419D01*
X194235295Y-78735276D01*
X194187676Y-78925752D01*
X194187676Y-79306704D01*
X194235295Y-79401942D01*
X194282914Y-79449561D01*
X194378152Y-79497180D01*
X194568628Y-79497180D01*
X194663866Y-79449561D01*
X194711485Y-79401942D01*
X194759104Y-79306704D01*
X194759104Y-79068609D01*
X194711485Y-78973371D01*
X194663866Y-78925752D01*
X194568628Y-78878133D01*
X194378152Y-78878133D01*
X194282914Y-78925752D01*
X194235295Y-78973371D01*
X194187676Y-79068609D01*
X193840266Y-53262161D02*
X193983123Y-53309780D01*
X194221219Y-53309780D01*
X194316457Y-53262161D01*
X194364076Y-53214542D01*
X194411695Y-53119304D01*
X194411695Y-53024066D01*
X194364076Y-52928828D01*
X194316457Y-52881209D01*
X194221219Y-52833590D01*
X194030742Y-52785971D01*
X193935504Y-52738352D01*
X193887885Y-52690733D01*
X193840266Y-52595495D01*
X193840266Y-52500257D01*
X193887885Y-52405019D01*
X193935504Y-52357400D01*
X194030742Y-52309780D01*
X194268838Y-52309780D01*
X194411695Y-52357400D01*
X194745028Y-52309780D02*
X194983123Y-53309780D01*
X195173600Y-52595495D01*
X195364076Y-53309780D01*
X195602171Y-52309780D01*
X196506933Y-53309780D02*
X195935504Y-53309780D01*
X196221219Y-53309780D02*
X196221219Y-52309780D01*
X196125980Y-52452638D01*
X196030742Y-52547876D01*
X195935504Y-52595495D01*
X193840266Y-90574761D02*
X193983123Y-90622380D01*
X194221219Y-90622380D01*
X194316457Y-90574761D01*
X194364076Y-90527142D01*
X194411695Y-90431904D01*
X194411695Y-90336666D01*
X194364076Y-90241428D01*
X194316457Y-90193809D01*
X194221219Y-90146190D01*
X194030742Y-90098571D01*
X193935504Y-90050952D01*
X193887885Y-90003333D01*
X193840266Y-89908095D01*
X193840266Y-89812857D01*
X193887885Y-89717619D01*
X193935504Y-89670000D01*
X194030742Y-89622380D01*
X194268838Y-89622380D01*
X194411695Y-89670000D01*
X194745028Y-89622380D02*
X194983123Y-90622380D01*
X195173600Y-89908095D01*
X195364076Y-90622380D01*
X195602171Y-89622380D01*
X195935504Y-89717619D02*
X195983123Y-89670000D01*
X196078361Y-89622380D01*
X196316457Y-89622380D01*
X196411695Y-89670000D01*
X196459314Y-89717619D01*
X196506933Y-89812857D01*
X196506933Y-89908095D01*
X196459314Y-90050952D01*
X195887885Y-90622380D01*
X196506933Y-90622380D01*
M02*
