G04 #@! TF.GenerationSoftware,KiCad,Pcbnew,(5.1.2)-1*
G04 #@! TF.CreationDate,2020-11-05T23:01:01+01:00*
G04 #@! TF.ProjectId,szakdolgozat,737a616b-646f-46c6-976f-7a61742e6b69,rev?*
G04 #@! TF.SameCoordinates,Original*
G04 #@! TF.FileFunction,Soldermask,Bot*
G04 #@! TF.FilePolarity,Negative*
%FSLAX46Y46*%
G04 Gerber Fmt 4.6, Leading zero omitted, Abs format (unit mm)*
G04 Created by KiCad (PCBNEW (5.1.2)-1) date 2020-11-05 23:01:01*
%MOMM*%
%LPD*%
G04 APERTURE LIST*
%ADD10C,0.100000*%
G04 APERTURE END LIST*
D10*
G36*
X133236457Y-117510745D02*
G01*
X133448975Y-117553017D01*
X134049538Y-117801779D01*
X134590027Y-118162922D01*
X135049678Y-118622573D01*
X135410821Y-119163062D01*
X135659583Y-119763625D01*
X135786400Y-120401180D01*
X135786400Y-121051220D01*
X135659583Y-121688775D01*
X135410821Y-122289338D01*
X135049678Y-122829827D01*
X134590027Y-123289478D01*
X134049538Y-123650621D01*
X133448975Y-123899383D01*
X133236457Y-123941655D01*
X132811422Y-124026200D01*
X132161378Y-124026200D01*
X131736343Y-123941655D01*
X131523825Y-123899383D01*
X130923262Y-123650621D01*
X130382773Y-123289478D01*
X129923122Y-122829827D01*
X129561979Y-122289338D01*
X129313217Y-121688775D01*
X129186400Y-121051220D01*
X129186400Y-120401180D01*
X129313217Y-119763625D01*
X129561979Y-119163062D01*
X129923122Y-118622573D01*
X130382773Y-118162922D01*
X130923262Y-117801779D01*
X131523825Y-117553017D01*
X131736343Y-117510745D01*
X132161378Y-117426200D01*
X132811422Y-117426200D01*
X133236457Y-117510745D01*
X133236457Y-117510745D01*
G37*
G36*
X220333057Y-117104345D02*
G01*
X220545575Y-117146617D01*
X221146138Y-117395379D01*
X221686627Y-117756522D01*
X222146278Y-118216173D01*
X222507421Y-118756662D01*
X222756183Y-119357225D01*
X222883000Y-119994780D01*
X222883000Y-120644820D01*
X222756183Y-121282375D01*
X222507421Y-121882938D01*
X222146278Y-122423427D01*
X221686627Y-122883078D01*
X221146138Y-123244221D01*
X220545575Y-123492983D01*
X220333057Y-123535255D01*
X219908022Y-123619800D01*
X219257978Y-123619800D01*
X218832943Y-123535255D01*
X218620425Y-123492983D01*
X218019862Y-123244221D01*
X217479373Y-122883078D01*
X217019722Y-122423427D01*
X216658579Y-121882938D01*
X216409817Y-121282375D01*
X216283000Y-120644820D01*
X216283000Y-119994780D01*
X216409817Y-119357225D01*
X216658579Y-118756662D01*
X217019722Y-118216173D01*
X217479373Y-117756522D01*
X218019862Y-117395379D01*
X218620425Y-117146617D01*
X218832943Y-117104345D01*
X219257978Y-117019800D01*
X219908022Y-117019800D01*
X220333057Y-117104345D01*
X220333057Y-117104345D01*
G37*
G36*
X215311600Y-108850000D02*
G01*
X211611600Y-108850000D01*
X211611600Y-105150000D01*
X215311600Y-105150000D01*
X215311600Y-108850000D01*
X215311600Y-108850000D01*
G37*
G36*
X142001225Y-105221095D02*
G01*
X142337906Y-105360552D01*
X142640906Y-105563011D01*
X142898589Y-105820694D01*
X143101048Y-106123694D01*
X143240505Y-106460375D01*
X143311600Y-106817792D01*
X143311600Y-107182208D01*
X143240505Y-107539625D01*
X143101048Y-107876306D01*
X142898589Y-108179306D01*
X142640906Y-108436989D01*
X142337906Y-108639448D01*
X142001225Y-108778905D01*
X141643809Y-108850000D01*
X141279391Y-108850000D01*
X140921975Y-108778905D01*
X140585294Y-108639448D01*
X140282294Y-108436989D01*
X140024611Y-108179306D01*
X139822152Y-107876306D01*
X139682695Y-107539625D01*
X139611600Y-107182208D01*
X139611600Y-106817792D01*
X139682695Y-106460375D01*
X139822152Y-106123694D01*
X140024611Y-105820694D01*
X140282294Y-105563011D01*
X140585294Y-105360552D01*
X140921975Y-105221095D01*
X141279391Y-105150000D01*
X141643809Y-105150000D01*
X142001225Y-105221095D01*
X142001225Y-105221095D01*
G37*
G36*
X205312472Y-105365330D02*
G01*
X205621852Y-105493479D01*
X205900287Y-105679523D01*
X206137077Y-105916313D01*
X206323121Y-106194748D01*
X206451270Y-106504128D01*
X206516600Y-106832565D01*
X206516600Y-107167435D01*
X206451270Y-107495872D01*
X206323121Y-107805252D01*
X206137077Y-108083687D01*
X205900287Y-108320477D01*
X205621852Y-108506521D01*
X205312472Y-108634670D01*
X204984035Y-108700000D01*
X204649165Y-108700000D01*
X204320728Y-108634670D01*
X204011348Y-108506521D01*
X203732913Y-108320477D01*
X203496123Y-108083687D01*
X203310079Y-107805252D01*
X203181930Y-107495872D01*
X203116600Y-107167435D01*
X203116600Y-106832565D01*
X203181930Y-106504128D01*
X203310079Y-106194748D01*
X203496123Y-105916313D01*
X203732913Y-105679523D01*
X204011348Y-105493479D01*
X204320728Y-105365330D01*
X204649165Y-105300000D01*
X204984035Y-105300000D01*
X205312472Y-105365330D01*
X205312472Y-105365330D01*
G37*
G36*
X149702472Y-105365330D02*
G01*
X150011852Y-105493479D01*
X150290287Y-105679523D01*
X150527077Y-105916313D01*
X150713121Y-106194748D01*
X150841270Y-106504128D01*
X150906600Y-106832565D01*
X150906600Y-107167435D01*
X150841270Y-107495872D01*
X150713121Y-107805252D01*
X150527077Y-108083687D01*
X150290287Y-108320477D01*
X150011852Y-108506521D01*
X149702472Y-108634670D01*
X149374035Y-108700000D01*
X149039165Y-108700000D01*
X148710728Y-108634670D01*
X148401348Y-108506521D01*
X148122913Y-108320477D01*
X147886123Y-108083687D01*
X147700079Y-107805252D01*
X147571930Y-107495872D01*
X147506600Y-107167435D01*
X147506600Y-106832565D01*
X147571930Y-106504128D01*
X147700079Y-106194748D01*
X147886123Y-105916313D01*
X148122913Y-105679523D01*
X148401348Y-105493479D01*
X148710728Y-105365330D01*
X149039165Y-105300000D01*
X149374035Y-105300000D01*
X149702472Y-105365330D01*
X149702472Y-105365330D01*
G37*
G36*
X197577258Y-92284873D02*
G01*
X197777448Y-92367794D01*
X197957609Y-92488174D01*
X198110826Y-92641391D01*
X198231206Y-92821552D01*
X198314127Y-93021742D01*
X198356400Y-93234261D01*
X198356400Y-93450939D01*
X198314127Y-93663458D01*
X198231206Y-93863648D01*
X198110826Y-94043809D01*
X197957609Y-94197026D01*
X197777448Y-94317406D01*
X197577258Y-94400327D01*
X197364741Y-94442600D01*
X197148059Y-94442600D01*
X196935542Y-94400327D01*
X196735352Y-94317406D01*
X196555191Y-94197026D01*
X196401974Y-94043809D01*
X196281594Y-93863648D01*
X196198673Y-93663458D01*
X196156400Y-93450939D01*
X196156400Y-93234261D01*
X196198673Y-93021742D01*
X196281594Y-92821552D01*
X196401974Y-92641391D01*
X196555191Y-92488174D01*
X196735352Y-92367794D01*
X196935542Y-92284873D01*
X197148059Y-92242600D01*
X197364741Y-92242600D01*
X197577258Y-92284873D01*
X197577258Y-92284873D01*
G37*
G36*
X193077258Y-92284873D02*
G01*
X193277448Y-92367794D01*
X193457609Y-92488174D01*
X193610826Y-92641391D01*
X193731206Y-92821552D01*
X193814127Y-93021742D01*
X193856400Y-93234261D01*
X193856400Y-93450939D01*
X193814127Y-93663458D01*
X193731206Y-93863648D01*
X193610826Y-94043809D01*
X193457609Y-94197026D01*
X193277448Y-94317406D01*
X193077258Y-94400327D01*
X192864741Y-94442600D01*
X192648059Y-94442600D01*
X192435542Y-94400327D01*
X192235352Y-94317406D01*
X192055191Y-94197026D01*
X191901974Y-94043809D01*
X191781594Y-93863648D01*
X191698673Y-93663458D01*
X191656400Y-93450939D01*
X191656400Y-93234261D01*
X191698673Y-93021742D01*
X191781594Y-92821552D01*
X191901974Y-92641391D01*
X192055191Y-92488174D01*
X192235352Y-92367794D01*
X192435542Y-92284873D01*
X192648059Y-92242600D01*
X192864741Y-92242600D01*
X193077258Y-92284873D01*
X193077258Y-92284873D01*
G37*
G36*
X205123234Y-88676470D02*
G01*
X205217485Y-88705061D01*
X205311736Y-88733651D01*
X205485458Y-88826508D01*
X205637728Y-88951472D01*
X205762692Y-89103742D01*
X205855549Y-89277464D01*
X205884139Y-89371715D01*
X205912730Y-89465966D01*
X205932038Y-89662000D01*
X205913696Y-89848231D01*
X205912730Y-89858033D01*
X205855549Y-90046536D01*
X205762692Y-90220258D01*
X205637728Y-90372528D01*
X205485458Y-90497492D01*
X205311736Y-90590349D01*
X205285676Y-90598254D01*
X205123234Y-90647530D01*
X204976320Y-90662000D01*
X204878080Y-90662000D01*
X204731166Y-90647530D01*
X204568724Y-90598254D01*
X204542664Y-90590349D01*
X204368942Y-90497492D01*
X204216672Y-90372528D01*
X204091708Y-90220258D01*
X203998851Y-90046536D01*
X203941670Y-89858033D01*
X203940705Y-89848231D01*
X203922362Y-89662000D01*
X203941670Y-89465966D01*
X203970261Y-89371715D01*
X203998851Y-89277464D01*
X204091708Y-89103742D01*
X204216672Y-88951472D01*
X204368942Y-88826508D01*
X204542664Y-88733651D01*
X204636915Y-88705061D01*
X204731166Y-88676470D01*
X204878080Y-88662000D01*
X204976320Y-88662000D01*
X205123234Y-88676470D01*
X205123234Y-88676470D01*
G37*
G36*
X212022232Y-88725746D02*
G01*
X212201308Y-88780068D01*
X212366345Y-88868282D01*
X212511001Y-88986999D01*
X212629718Y-89131655D01*
X212629719Y-89131657D01*
X212707655Y-89277464D01*
X212717932Y-89296692D01*
X212772254Y-89475768D01*
X212790596Y-89662000D01*
X212772254Y-89848232D01*
X212717932Y-90027308D01*
X212717930Y-90027311D01*
X212717930Y-90027312D01*
X212659123Y-90137333D01*
X212629718Y-90192345D01*
X212511001Y-90337001D01*
X212366345Y-90455718D01*
X212201308Y-90543932D01*
X212022232Y-90598254D01*
X211882665Y-90612000D01*
X211789335Y-90612000D01*
X211649768Y-90598254D01*
X211470692Y-90543932D01*
X211305655Y-90455718D01*
X211160999Y-90337001D01*
X211042282Y-90192345D01*
X211012877Y-90137333D01*
X210954070Y-90027312D01*
X210954070Y-90027311D01*
X210954068Y-90027308D01*
X210899746Y-89848232D01*
X210881404Y-89662000D01*
X210899746Y-89475768D01*
X210954068Y-89296692D01*
X210964346Y-89277464D01*
X211042281Y-89131657D01*
X211042282Y-89131655D01*
X211160999Y-88986999D01*
X211305655Y-88868282D01*
X211470692Y-88780068D01*
X211649768Y-88725746D01*
X211789335Y-88712000D01*
X211882665Y-88712000D01*
X212022232Y-88725746D01*
X212022232Y-88725746D01*
G37*
G36*
X214562232Y-88725746D02*
G01*
X214741308Y-88780068D01*
X214906345Y-88868282D01*
X215051001Y-88986999D01*
X215169718Y-89131655D01*
X215169719Y-89131657D01*
X215247655Y-89277464D01*
X215257932Y-89296692D01*
X215312254Y-89475768D01*
X215330596Y-89662000D01*
X215312254Y-89848232D01*
X215257932Y-90027308D01*
X215257930Y-90027311D01*
X215257930Y-90027312D01*
X215199123Y-90137333D01*
X215169718Y-90192345D01*
X215051001Y-90337001D01*
X214906345Y-90455718D01*
X214741308Y-90543932D01*
X214562232Y-90598254D01*
X214422665Y-90612000D01*
X214329335Y-90612000D01*
X214189768Y-90598254D01*
X214010692Y-90543932D01*
X213845655Y-90455718D01*
X213700999Y-90337001D01*
X213582282Y-90192345D01*
X213552877Y-90137333D01*
X213494070Y-90027312D01*
X213494070Y-90027311D01*
X213494068Y-90027308D01*
X213439746Y-89848232D01*
X213421404Y-89662000D01*
X213439746Y-89475768D01*
X213494068Y-89296692D01*
X213504346Y-89277464D01*
X213582281Y-89131657D01*
X213582282Y-89131655D01*
X213700999Y-88986999D01*
X213845655Y-88868282D01*
X214010692Y-88780068D01*
X214189768Y-88725746D01*
X214329335Y-88712000D01*
X214422665Y-88712000D01*
X214562232Y-88725746D01*
X214562232Y-88725746D01*
G37*
G36*
X217102232Y-88725746D02*
G01*
X217281308Y-88780068D01*
X217446345Y-88868282D01*
X217591001Y-88986999D01*
X217709718Y-89131655D01*
X217709719Y-89131657D01*
X217787655Y-89277464D01*
X217797932Y-89296692D01*
X217852254Y-89475768D01*
X217870596Y-89662000D01*
X217852254Y-89848232D01*
X217797932Y-90027308D01*
X217797930Y-90027311D01*
X217797930Y-90027312D01*
X217739123Y-90137333D01*
X217709718Y-90192345D01*
X217591001Y-90337001D01*
X217446345Y-90455718D01*
X217281308Y-90543932D01*
X217102232Y-90598254D01*
X216962665Y-90612000D01*
X216869335Y-90612000D01*
X216729768Y-90598254D01*
X216550692Y-90543932D01*
X216385655Y-90455718D01*
X216240999Y-90337001D01*
X216122282Y-90192345D01*
X216092877Y-90137333D01*
X216034070Y-90027312D01*
X216034070Y-90027311D01*
X216034068Y-90027308D01*
X215979746Y-89848232D01*
X215961404Y-89662000D01*
X215979746Y-89475768D01*
X216034068Y-89296692D01*
X216044346Y-89277464D01*
X216122281Y-89131657D01*
X216122282Y-89131655D01*
X216240999Y-88986999D01*
X216385655Y-88868282D01*
X216550692Y-88780068D01*
X216729768Y-88725746D01*
X216869335Y-88712000D01*
X216962665Y-88712000D01*
X217102232Y-88725746D01*
X217102232Y-88725746D01*
G37*
G36*
X220406000Y-90612000D02*
G01*
X218506000Y-90612000D01*
X218506000Y-88712000D01*
X220406000Y-88712000D01*
X220406000Y-90612000D01*
X220406000Y-90612000D01*
G37*
G36*
X132017600Y-88776400D02*
G01*
X130117600Y-88776400D01*
X130117600Y-86876400D01*
X132017600Y-86876400D01*
X132017600Y-88776400D01*
X132017600Y-88776400D01*
G37*
G36*
X205927200Y-88122000D02*
G01*
X203927200Y-88122000D01*
X203927200Y-86122000D01*
X205927200Y-86122000D01*
X205927200Y-88122000D01*
X205927200Y-88122000D01*
G37*
G36*
X197577258Y-85784873D02*
G01*
X197777448Y-85867794D01*
X197957609Y-85988174D01*
X198110826Y-86141391D01*
X198231206Y-86321552D01*
X198314127Y-86521742D01*
X198356400Y-86734261D01*
X198356400Y-86950939D01*
X198314127Y-87163458D01*
X198231206Y-87363648D01*
X198110826Y-87543809D01*
X197957609Y-87697026D01*
X197777448Y-87817406D01*
X197577258Y-87900327D01*
X197364741Y-87942600D01*
X197148059Y-87942600D01*
X196935542Y-87900327D01*
X196735352Y-87817406D01*
X196555191Y-87697026D01*
X196401974Y-87543809D01*
X196281594Y-87363648D01*
X196198673Y-87163458D01*
X196156400Y-86950939D01*
X196156400Y-86734261D01*
X196198673Y-86521742D01*
X196281594Y-86321552D01*
X196401974Y-86141391D01*
X196555191Y-85988174D01*
X196735352Y-85867794D01*
X196935542Y-85784873D01*
X197148059Y-85742600D01*
X197364741Y-85742600D01*
X197577258Y-85784873D01*
X197577258Y-85784873D01*
G37*
G36*
X193077258Y-85784873D02*
G01*
X193277448Y-85867794D01*
X193457609Y-85988174D01*
X193610826Y-86141391D01*
X193731206Y-86321552D01*
X193814127Y-86521742D01*
X193856400Y-86734261D01*
X193856400Y-86950939D01*
X193814127Y-87163458D01*
X193731206Y-87363648D01*
X193610826Y-87543809D01*
X193457609Y-87697026D01*
X193277448Y-87817406D01*
X193077258Y-87900327D01*
X192864741Y-87942600D01*
X192648059Y-87942600D01*
X192435542Y-87900327D01*
X192235352Y-87817406D01*
X192055191Y-87697026D01*
X191901974Y-87543809D01*
X191781594Y-87363648D01*
X191698673Y-87163458D01*
X191656400Y-86950939D01*
X191656400Y-86734261D01*
X191698673Y-86521742D01*
X191781594Y-86321552D01*
X191901974Y-86141391D01*
X192055191Y-85988174D01*
X192235352Y-85867794D01*
X192435542Y-85784873D01*
X192648059Y-85742600D01*
X192864741Y-85742600D01*
X193077258Y-85784873D01*
X193077258Y-85784873D01*
G37*
G36*
X131253832Y-84350146D02*
G01*
X131432908Y-84404468D01*
X131597945Y-84492682D01*
X131742601Y-84611399D01*
X131861318Y-84756055D01*
X131949532Y-84921092D01*
X132003854Y-85100168D01*
X132022196Y-85286400D01*
X132003854Y-85472632D01*
X131949532Y-85651708D01*
X131861318Y-85816745D01*
X131742601Y-85961401D01*
X131597945Y-86080118D01*
X131432908Y-86168332D01*
X131253832Y-86222654D01*
X131114265Y-86236400D01*
X131020935Y-86236400D01*
X130881368Y-86222654D01*
X130702292Y-86168332D01*
X130537255Y-86080118D01*
X130392599Y-85961401D01*
X130273882Y-85816745D01*
X130185668Y-85651708D01*
X130131346Y-85472632D01*
X130113004Y-85286400D01*
X130131346Y-85100168D01*
X130185668Y-84921092D01*
X130273882Y-84756055D01*
X130392599Y-84611399D01*
X130537255Y-84492682D01*
X130702292Y-84404468D01*
X130881368Y-84350146D01*
X131020935Y-84336400D01*
X131114265Y-84336400D01*
X131253832Y-84350146D01*
X131253832Y-84350146D01*
G37*
G36*
X134963826Y-84124381D02*
G01*
X135010861Y-84138649D01*
X135054210Y-84161819D01*
X135092202Y-84192998D01*
X135123381Y-84230990D01*
X135146551Y-84274339D01*
X135160819Y-84321374D01*
X135166000Y-84373974D01*
X135166000Y-85214426D01*
X135160819Y-85267026D01*
X135146551Y-85314061D01*
X135123381Y-85357410D01*
X135092202Y-85395402D01*
X135054210Y-85426581D01*
X135010861Y-85449751D01*
X134963826Y-85464019D01*
X134911226Y-85469200D01*
X133820774Y-85469200D01*
X133768174Y-85464019D01*
X133721139Y-85449751D01*
X133677790Y-85426581D01*
X133639798Y-85395402D01*
X133608619Y-85357410D01*
X133585449Y-85314061D01*
X133571181Y-85267026D01*
X133566000Y-85214426D01*
X133566000Y-84373974D01*
X133571181Y-84321374D01*
X133585449Y-84274339D01*
X133608619Y-84230990D01*
X133639798Y-84192998D01*
X133677790Y-84161819D01*
X133721139Y-84138649D01*
X133768174Y-84124381D01*
X133820774Y-84119200D01*
X134911226Y-84119200D01*
X134963826Y-84124381D01*
X134963826Y-84124381D01*
G37*
G36*
X138135400Y-84719200D02*
G01*
X136235400Y-84719200D01*
X136235400Y-82819200D01*
X138135400Y-82819200D01*
X138135400Y-84719200D01*
X138135400Y-84719200D01*
G37*
G36*
X139911632Y-82832946D02*
G01*
X140090708Y-82887268D01*
X140255745Y-82975482D01*
X140400401Y-83094199D01*
X140519118Y-83238855D01*
X140519119Y-83238857D01*
X140582829Y-83358049D01*
X140607332Y-83403892D01*
X140661654Y-83582968D01*
X140679996Y-83769200D01*
X140661654Y-83955432D01*
X140607332Y-84134508D01*
X140607330Y-84134511D01*
X140607330Y-84134512D01*
X140569569Y-84205157D01*
X140519118Y-84299545D01*
X140400401Y-84444201D01*
X140255745Y-84562918D01*
X140090708Y-84651132D01*
X139911632Y-84705454D01*
X139772065Y-84719200D01*
X139678735Y-84719200D01*
X139539168Y-84705454D01*
X139360092Y-84651132D01*
X139195055Y-84562918D01*
X139050399Y-84444201D01*
X138931682Y-84299545D01*
X138881231Y-84205157D01*
X138843470Y-84134512D01*
X138843470Y-84134511D01*
X138843468Y-84134508D01*
X138789146Y-83955432D01*
X138770804Y-83769200D01*
X138789146Y-83582968D01*
X138843468Y-83403892D01*
X138867972Y-83358049D01*
X138931681Y-83238857D01*
X138931682Y-83238855D01*
X139050399Y-83094199D01*
X139195055Y-82975482D01*
X139360092Y-82887268D01*
X139539168Y-82832946D01*
X139678735Y-82819200D01*
X139772065Y-82819200D01*
X139911632Y-82832946D01*
X139911632Y-82832946D01*
G37*
G36*
X142451632Y-82832946D02*
G01*
X142630708Y-82887268D01*
X142795745Y-82975482D01*
X142940401Y-83094199D01*
X143059118Y-83238855D01*
X143059119Y-83238857D01*
X143122829Y-83358049D01*
X143147332Y-83403892D01*
X143201654Y-83582968D01*
X143219996Y-83769200D01*
X143201654Y-83955432D01*
X143147332Y-84134508D01*
X143147330Y-84134511D01*
X143147330Y-84134512D01*
X143109569Y-84205157D01*
X143059118Y-84299545D01*
X142940401Y-84444201D01*
X142795745Y-84562918D01*
X142630708Y-84651132D01*
X142451632Y-84705454D01*
X142312065Y-84719200D01*
X142218735Y-84719200D01*
X142079168Y-84705454D01*
X141900092Y-84651132D01*
X141735055Y-84562918D01*
X141590399Y-84444201D01*
X141471682Y-84299545D01*
X141421231Y-84205157D01*
X141383470Y-84134512D01*
X141383470Y-84134511D01*
X141383468Y-84134508D01*
X141329146Y-83955432D01*
X141310804Y-83769200D01*
X141329146Y-83582968D01*
X141383468Y-83403892D01*
X141407972Y-83358049D01*
X141471681Y-83238857D01*
X141471682Y-83238855D01*
X141590399Y-83094199D01*
X141735055Y-82975482D01*
X141900092Y-82887268D01*
X142079168Y-82832946D01*
X142218735Y-82819200D01*
X142312065Y-82819200D01*
X142451632Y-82832946D01*
X142451632Y-82832946D01*
G37*
G36*
X211576751Y-82822143D02*
G01*
X211722345Y-82882450D01*
X211853371Y-82969999D01*
X211964801Y-83081429D01*
X212052350Y-83212455D01*
X212112657Y-83358049D01*
X212143400Y-83512606D01*
X212143400Y-83670194D01*
X212112657Y-83824751D01*
X212052350Y-83970345D01*
X211964801Y-84101371D01*
X211853371Y-84212801D01*
X211722345Y-84300350D01*
X211576751Y-84360657D01*
X211422194Y-84391400D01*
X211264606Y-84391400D01*
X211110049Y-84360657D01*
X210964455Y-84300350D01*
X210833429Y-84212801D01*
X210721999Y-84101371D01*
X210634450Y-83970345D01*
X210574143Y-83824751D01*
X210543400Y-83670194D01*
X210543400Y-83512606D01*
X210574143Y-83358049D01*
X210634450Y-83212455D01*
X210721999Y-83081429D01*
X210833429Y-82969999D01*
X210964455Y-82882450D01*
X211110049Y-82822143D01*
X211264606Y-82791400D01*
X211422194Y-82791400D01*
X211576751Y-82822143D01*
X211576751Y-82822143D01*
G37*
G36*
X219196751Y-82822143D02*
G01*
X219342345Y-82882450D01*
X219473371Y-82969999D01*
X219584801Y-83081429D01*
X219672350Y-83212455D01*
X219732657Y-83358049D01*
X219763400Y-83512606D01*
X219763400Y-83670194D01*
X219732657Y-83824751D01*
X219672350Y-83970345D01*
X219584801Y-84101371D01*
X219473371Y-84212801D01*
X219342345Y-84300350D01*
X219196751Y-84360657D01*
X219042194Y-84391400D01*
X218884606Y-84391400D01*
X218730049Y-84360657D01*
X218584455Y-84300350D01*
X218453429Y-84212801D01*
X218341999Y-84101371D01*
X218254450Y-83970345D01*
X218194143Y-83824751D01*
X218163400Y-83670194D01*
X218163400Y-83512606D01*
X218194143Y-83358049D01*
X218254450Y-83212455D01*
X218341999Y-83081429D01*
X218453429Y-82969999D01*
X218584455Y-82882450D01*
X218730049Y-82822143D01*
X218884606Y-82791400D01*
X219042194Y-82791400D01*
X219196751Y-82822143D01*
X219196751Y-82822143D01*
G37*
G36*
X205169831Y-81688423D02*
G01*
X205295339Y-81726496D01*
X205339485Y-81739887D01*
X205495831Y-81823456D01*
X205632875Y-81935925D01*
X205745344Y-82072969D01*
X205828913Y-82229315D01*
X205828914Y-82229319D01*
X205880377Y-82398969D01*
X205897754Y-82575400D01*
X205880377Y-82751831D01*
X205859048Y-82822143D01*
X205828913Y-82921485D01*
X205745344Y-83077831D01*
X205632875Y-83214875D01*
X205495831Y-83327344D01*
X205339485Y-83410913D01*
X205312166Y-83419200D01*
X205169831Y-83462377D01*
X205037607Y-83475400D01*
X204949193Y-83475400D01*
X204816969Y-83462377D01*
X204674634Y-83419200D01*
X204647315Y-83410913D01*
X204490969Y-83327344D01*
X204353925Y-83214875D01*
X204241456Y-83077831D01*
X204157887Y-82921485D01*
X204127752Y-82822143D01*
X204106423Y-82751831D01*
X204089046Y-82575400D01*
X204106423Y-82398969D01*
X204157886Y-82229319D01*
X204157887Y-82229315D01*
X204241456Y-82072969D01*
X204353925Y-81935925D01*
X204490969Y-81823456D01*
X204647315Y-81739887D01*
X204691461Y-81726496D01*
X204816969Y-81688423D01*
X204949193Y-81675400D01*
X205037607Y-81675400D01*
X205169831Y-81688423D01*
X205169831Y-81688423D01*
G37*
G36*
X197549831Y-81688423D02*
G01*
X197675339Y-81726496D01*
X197719485Y-81739887D01*
X197875831Y-81823456D01*
X198012875Y-81935925D01*
X198125344Y-82072969D01*
X198208913Y-82229315D01*
X198208914Y-82229319D01*
X198260377Y-82398969D01*
X198277754Y-82575400D01*
X198260377Y-82751831D01*
X198239048Y-82822143D01*
X198208913Y-82921485D01*
X198125344Y-83077831D01*
X198012875Y-83214875D01*
X197875831Y-83327344D01*
X197719485Y-83410913D01*
X197692166Y-83419200D01*
X197549831Y-83462377D01*
X197417607Y-83475400D01*
X197329193Y-83475400D01*
X197196969Y-83462377D01*
X197054634Y-83419200D01*
X197027315Y-83410913D01*
X196870969Y-83327344D01*
X196733925Y-83214875D01*
X196621456Y-83077831D01*
X196537887Y-82921485D01*
X196507752Y-82822143D01*
X196486423Y-82751831D01*
X196469046Y-82575400D01*
X196486423Y-82398969D01*
X196537886Y-82229319D01*
X196537887Y-82229315D01*
X196621456Y-82072969D01*
X196733925Y-81935925D01*
X196870969Y-81823456D01*
X197027315Y-81739887D01*
X197071461Y-81726496D01*
X197196969Y-81688423D01*
X197329193Y-81675400D01*
X197417607Y-81675400D01*
X197549831Y-81688423D01*
X197549831Y-81688423D01*
G37*
G36*
X134963826Y-82074381D02*
G01*
X135010861Y-82088649D01*
X135054210Y-82111819D01*
X135092202Y-82142998D01*
X135123381Y-82180990D01*
X135146551Y-82224339D01*
X135160819Y-82271374D01*
X135166000Y-82323974D01*
X135166000Y-83164426D01*
X135160819Y-83217026D01*
X135146551Y-83264061D01*
X135123381Y-83307410D01*
X135092202Y-83345402D01*
X135054210Y-83376581D01*
X135010861Y-83399751D01*
X134963826Y-83414019D01*
X134911226Y-83419200D01*
X133820774Y-83419200D01*
X133768174Y-83414019D01*
X133721139Y-83399751D01*
X133677790Y-83376581D01*
X133639798Y-83345402D01*
X133608619Y-83307410D01*
X133585449Y-83264061D01*
X133571181Y-83217026D01*
X133566000Y-83164426D01*
X133566000Y-82323974D01*
X133571181Y-82271374D01*
X133585449Y-82224339D01*
X133608619Y-82180990D01*
X133639798Y-82142998D01*
X133677790Y-82111819D01*
X133721139Y-82088649D01*
X133768174Y-82074381D01*
X133820774Y-82069200D01*
X134911226Y-82069200D01*
X134963826Y-82074381D01*
X134963826Y-82074381D01*
G37*
G36*
X211576751Y-80382143D02*
G01*
X211722345Y-80442450D01*
X211853371Y-80529999D01*
X211964801Y-80641429D01*
X212052350Y-80772455D01*
X212112657Y-80918049D01*
X212143400Y-81072606D01*
X212143400Y-81230194D01*
X212112657Y-81384751D01*
X212052350Y-81530345D01*
X211964801Y-81661371D01*
X211853371Y-81772801D01*
X211722345Y-81860350D01*
X211576751Y-81920657D01*
X211422194Y-81951400D01*
X211264606Y-81951400D01*
X211110049Y-81920657D01*
X210964455Y-81860350D01*
X210833429Y-81772801D01*
X210721999Y-81661371D01*
X210634450Y-81530345D01*
X210574143Y-81384751D01*
X210543400Y-81230194D01*
X210543400Y-81072606D01*
X210574143Y-80918049D01*
X210634450Y-80772455D01*
X210721999Y-80641429D01*
X210833429Y-80529999D01*
X210964455Y-80442450D01*
X211110049Y-80382143D01*
X211264606Y-80351400D01*
X211422194Y-80351400D01*
X211576751Y-80382143D01*
X211576751Y-80382143D01*
G37*
G36*
X219196751Y-80382143D02*
G01*
X219342345Y-80442450D01*
X219473371Y-80529999D01*
X219584801Y-80641429D01*
X219672350Y-80772455D01*
X219732657Y-80918049D01*
X219763400Y-81072606D01*
X219763400Y-81230194D01*
X219732657Y-81384751D01*
X219672350Y-81530345D01*
X219584801Y-81661371D01*
X219473371Y-81772801D01*
X219342345Y-81860350D01*
X219196751Y-81920657D01*
X219042194Y-81951400D01*
X218884606Y-81951400D01*
X218730049Y-81920657D01*
X218584455Y-81860350D01*
X218453429Y-81772801D01*
X218341999Y-81661371D01*
X218254450Y-81530345D01*
X218194143Y-81384751D01*
X218163400Y-81230194D01*
X218163400Y-81072606D01*
X218194143Y-80918049D01*
X218254450Y-80772455D01*
X218341999Y-80641429D01*
X218453429Y-80529999D01*
X218584455Y-80442450D01*
X218730049Y-80382143D01*
X218884606Y-80351400D01*
X219042194Y-80351400D01*
X219196751Y-80382143D01*
X219196751Y-80382143D01*
G37*
G36*
X205169831Y-79148423D02*
G01*
X205295339Y-79186496D01*
X205339485Y-79199887D01*
X205495831Y-79283456D01*
X205632875Y-79395925D01*
X205745344Y-79532969D01*
X205828913Y-79689315D01*
X205828914Y-79689319D01*
X205880377Y-79858969D01*
X205897754Y-80035400D01*
X205880377Y-80211831D01*
X205842304Y-80337339D01*
X205828913Y-80381485D01*
X205745344Y-80537831D01*
X205632875Y-80674875D01*
X205495831Y-80787344D01*
X205339485Y-80870913D01*
X205295339Y-80884304D01*
X205169831Y-80922377D01*
X205037607Y-80935400D01*
X204949193Y-80935400D01*
X204816969Y-80922377D01*
X204691461Y-80884304D01*
X204647315Y-80870913D01*
X204490969Y-80787344D01*
X204353925Y-80674875D01*
X204241456Y-80537831D01*
X204157887Y-80381485D01*
X204144496Y-80337339D01*
X204106423Y-80211831D01*
X204089046Y-80035400D01*
X204106423Y-79858969D01*
X204157886Y-79689319D01*
X204157887Y-79689315D01*
X204241456Y-79532969D01*
X204353925Y-79395925D01*
X204490969Y-79283456D01*
X204647315Y-79199887D01*
X204691461Y-79186496D01*
X204816969Y-79148423D01*
X204949193Y-79135400D01*
X205037607Y-79135400D01*
X205169831Y-79148423D01*
X205169831Y-79148423D01*
G37*
G36*
X197549831Y-79148423D02*
G01*
X197675339Y-79186496D01*
X197719485Y-79199887D01*
X197875831Y-79283456D01*
X198012875Y-79395925D01*
X198125344Y-79532969D01*
X198208913Y-79689315D01*
X198208914Y-79689319D01*
X198260377Y-79858969D01*
X198277754Y-80035400D01*
X198260377Y-80211831D01*
X198222304Y-80337339D01*
X198208913Y-80381485D01*
X198125344Y-80537831D01*
X198012875Y-80674875D01*
X197875831Y-80787344D01*
X197719485Y-80870913D01*
X197675339Y-80884304D01*
X197549831Y-80922377D01*
X197417607Y-80935400D01*
X197329193Y-80935400D01*
X197196969Y-80922377D01*
X197071461Y-80884304D01*
X197027315Y-80870913D01*
X196870969Y-80787344D01*
X196733925Y-80674875D01*
X196621456Y-80537831D01*
X196537887Y-80381485D01*
X196524496Y-80337339D01*
X196486423Y-80211831D01*
X196469046Y-80035400D01*
X196486423Y-79858969D01*
X196537886Y-79689319D01*
X196537887Y-79689315D01*
X196621456Y-79532969D01*
X196733925Y-79395925D01*
X196870969Y-79283456D01*
X197027315Y-79199887D01*
X197071461Y-79186496D01*
X197196969Y-79148423D01*
X197329193Y-79135400D01*
X197417607Y-79135400D01*
X197549831Y-79148423D01*
X197549831Y-79148423D01*
G37*
G36*
X131253832Y-77750146D02*
G01*
X131432908Y-77804468D01*
X131597945Y-77892682D01*
X131742601Y-78011399D01*
X131861318Y-78156055D01*
X131949532Y-78321092D01*
X132003854Y-78500168D01*
X132022196Y-78686400D01*
X132003854Y-78872632D01*
X131949532Y-79051708D01*
X131861318Y-79216745D01*
X131742601Y-79361401D01*
X131597945Y-79480118D01*
X131597943Y-79480119D01*
X131499070Y-79532968D01*
X131432908Y-79568332D01*
X131253832Y-79622654D01*
X131114265Y-79636400D01*
X131020935Y-79636400D01*
X130881368Y-79622654D01*
X130702292Y-79568332D01*
X130636131Y-79532968D01*
X130537257Y-79480119D01*
X130537255Y-79480118D01*
X130392599Y-79361401D01*
X130273882Y-79216745D01*
X130185668Y-79051708D01*
X130131346Y-78872632D01*
X130113004Y-78686400D01*
X130131346Y-78500168D01*
X130185668Y-78321092D01*
X130273882Y-78156055D01*
X130392599Y-78011399D01*
X130537255Y-77892682D01*
X130702292Y-77804468D01*
X130881368Y-77750146D01*
X131020935Y-77736400D01*
X131114265Y-77736400D01*
X131253832Y-77750146D01*
X131253832Y-77750146D01*
G37*
G36*
X205169831Y-76608423D02*
G01*
X205295339Y-76646496D01*
X205339485Y-76659887D01*
X205495831Y-76743456D01*
X205632875Y-76855925D01*
X205745344Y-76992969D01*
X205828913Y-77149315D01*
X205828914Y-77149319D01*
X205880377Y-77318969D01*
X205897754Y-77495400D01*
X205880377Y-77671831D01*
X205860790Y-77736400D01*
X205828913Y-77841485D01*
X205745344Y-77997831D01*
X205632875Y-78134875D01*
X205495831Y-78247344D01*
X205339485Y-78330913D01*
X205295339Y-78344304D01*
X205169831Y-78382377D01*
X205037607Y-78395400D01*
X204949193Y-78395400D01*
X204816969Y-78382377D01*
X204691461Y-78344304D01*
X204647315Y-78330913D01*
X204490969Y-78247344D01*
X204353925Y-78134875D01*
X204241456Y-77997831D01*
X204157887Y-77841485D01*
X204126010Y-77736400D01*
X204106423Y-77671831D01*
X204089046Y-77495400D01*
X204106423Y-77318969D01*
X204157886Y-77149319D01*
X204157887Y-77149315D01*
X204241456Y-76992969D01*
X204353925Y-76855925D01*
X204490969Y-76743456D01*
X204647315Y-76659887D01*
X204691461Y-76646496D01*
X204816969Y-76608423D01*
X204949193Y-76595400D01*
X205037607Y-76595400D01*
X205169831Y-76608423D01*
X205169831Y-76608423D01*
G37*
G36*
X198273400Y-78395400D02*
G01*
X196473400Y-78395400D01*
X196473400Y-76595400D01*
X198273400Y-76595400D01*
X198273400Y-78395400D01*
X198273400Y-78395400D01*
G37*
G36*
X131253832Y-75210146D02*
G01*
X131432908Y-75264468D01*
X131597945Y-75352682D01*
X131742601Y-75471399D01*
X131861318Y-75616055D01*
X131949532Y-75781092D01*
X132003854Y-75960168D01*
X132022196Y-76146400D01*
X132003854Y-76332632D01*
X131949532Y-76511708D01*
X131861318Y-76676745D01*
X131742601Y-76821401D01*
X131597945Y-76940118D01*
X131597943Y-76940119D01*
X131499070Y-76992968D01*
X131432908Y-77028332D01*
X131253832Y-77082654D01*
X131114265Y-77096400D01*
X131020935Y-77096400D01*
X130881368Y-77082654D01*
X130702292Y-77028332D01*
X130636131Y-76992968D01*
X130537257Y-76940119D01*
X130537255Y-76940118D01*
X130392599Y-76821401D01*
X130273882Y-76676745D01*
X130185668Y-76511708D01*
X130131346Y-76332632D01*
X130113004Y-76146400D01*
X130131346Y-75960168D01*
X130185668Y-75781092D01*
X130273882Y-75616055D01*
X130392599Y-75471399D01*
X130537255Y-75352682D01*
X130702292Y-75264468D01*
X130881368Y-75210146D01*
X131020935Y-75196400D01*
X131114265Y-75196400D01*
X131253832Y-75210146D01*
X131253832Y-75210146D01*
G37*
G36*
X131253832Y-72670146D02*
G01*
X131432908Y-72724468D01*
X131597945Y-72812682D01*
X131742601Y-72931399D01*
X131861318Y-73076055D01*
X131949532Y-73241092D01*
X132003854Y-73420168D01*
X132022196Y-73606400D01*
X132003854Y-73792632D01*
X131949532Y-73971708D01*
X131949530Y-73971711D01*
X131949530Y-73971712D01*
X131927507Y-74012914D01*
X131861318Y-74136745D01*
X131742601Y-74281401D01*
X131597945Y-74400118D01*
X131432908Y-74488332D01*
X131253832Y-74542654D01*
X131114265Y-74556400D01*
X131020935Y-74556400D01*
X130881368Y-74542654D01*
X130702292Y-74488332D01*
X130537255Y-74400118D01*
X130392599Y-74281401D01*
X130273882Y-74136745D01*
X130207693Y-74012914D01*
X130185670Y-73971712D01*
X130185670Y-73971711D01*
X130185668Y-73971708D01*
X130131346Y-73792632D01*
X130113004Y-73606400D01*
X130131346Y-73420168D01*
X130185668Y-73241092D01*
X130273882Y-73076055D01*
X130392599Y-72931399D01*
X130537255Y-72812682D01*
X130702292Y-72724468D01*
X130881368Y-72670146D01*
X131020935Y-72656400D01*
X131114265Y-72656400D01*
X131253832Y-72670146D01*
X131253832Y-72670146D01*
G37*
G36*
X205169831Y-72290423D02*
G01*
X205295339Y-72328496D01*
X205339485Y-72341887D01*
X205495831Y-72425456D01*
X205632875Y-72537925D01*
X205745344Y-72674969D01*
X205828913Y-72831315D01*
X205828914Y-72831319D01*
X205880377Y-73000969D01*
X205897754Y-73177400D01*
X205880377Y-73353831D01*
X205860254Y-73420168D01*
X205828913Y-73523485D01*
X205745344Y-73679831D01*
X205632875Y-73816875D01*
X205495831Y-73929344D01*
X205339485Y-74012913D01*
X205295339Y-74026304D01*
X205169831Y-74064377D01*
X205037607Y-74077400D01*
X204949193Y-74077400D01*
X204816969Y-74064377D01*
X204691461Y-74026304D01*
X204647315Y-74012913D01*
X204490969Y-73929344D01*
X204353925Y-73816875D01*
X204241456Y-73679831D01*
X204157887Y-73523485D01*
X204126546Y-73420168D01*
X204106423Y-73353831D01*
X204089046Y-73177400D01*
X204106423Y-73000969D01*
X204157886Y-72831319D01*
X204157887Y-72831315D01*
X204241456Y-72674969D01*
X204353925Y-72537925D01*
X204490969Y-72425456D01*
X204647315Y-72341887D01*
X204691461Y-72328496D01*
X204816969Y-72290423D01*
X204949193Y-72277400D01*
X205037607Y-72277400D01*
X205169831Y-72290423D01*
X205169831Y-72290423D01*
G37*
G36*
X197549831Y-72290423D02*
G01*
X197675339Y-72328496D01*
X197719485Y-72341887D01*
X197875831Y-72425456D01*
X198012875Y-72537925D01*
X198125344Y-72674969D01*
X198208913Y-72831315D01*
X198208914Y-72831319D01*
X198260377Y-73000969D01*
X198277754Y-73177400D01*
X198260377Y-73353831D01*
X198240254Y-73420168D01*
X198208913Y-73523485D01*
X198125344Y-73679831D01*
X198012875Y-73816875D01*
X197875831Y-73929344D01*
X197719485Y-74012913D01*
X197675339Y-74026304D01*
X197549831Y-74064377D01*
X197417607Y-74077400D01*
X197329193Y-74077400D01*
X197196969Y-74064377D01*
X197071461Y-74026304D01*
X197027315Y-74012913D01*
X196870969Y-73929344D01*
X196733925Y-73816875D01*
X196621456Y-73679831D01*
X196537887Y-73523485D01*
X196506546Y-73420168D01*
X196486423Y-73353831D01*
X196469046Y-73177400D01*
X196486423Y-73000969D01*
X196537886Y-72831319D01*
X196537887Y-72831315D01*
X196621456Y-72674969D01*
X196733925Y-72537925D01*
X196870969Y-72425456D01*
X197027315Y-72341887D01*
X197071461Y-72328496D01*
X197196969Y-72290423D01*
X197329193Y-72277400D01*
X197417607Y-72277400D01*
X197549831Y-72290423D01*
X197549831Y-72290423D01*
G37*
G36*
X131253832Y-70130146D02*
G01*
X131432908Y-70184468D01*
X131597945Y-70272682D01*
X131742601Y-70391399D01*
X131861318Y-70536055D01*
X131949532Y-70701092D01*
X132003854Y-70880168D01*
X132022196Y-71066400D01*
X132003854Y-71252632D01*
X131949532Y-71431708D01*
X131949530Y-71431711D01*
X131949530Y-71431712D01*
X131927507Y-71472914D01*
X131861318Y-71596745D01*
X131742601Y-71741401D01*
X131597945Y-71860118D01*
X131432908Y-71948332D01*
X131253832Y-72002654D01*
X131114265Y-72016400D01*
X131020935Y-72016400D01*
X130881368Y-72002654D01*
X130702292Y-71948332D01*
X130537255Y-71860118D01*
X130392599Y-71741401D01*
X130273882Y-71596745D01*
X130207693Y-71472914D01*
X130185670Y-71431712D01*
X130185670Y-71431711D01*
X130185668Y-71431708D01*
X130131346Y-71252632D01*
X130113004Y-71066400D01*
X130131346Y-70880168D01*
X130185668Y-70701092D01*
X130273882Y-70536055D01*
X130392599Y-70391399D01*
X130537255Y-70272682D01*
X130702292Y-70184468D01*
X130881368Y-70130146D01*
X131020935Y-70116400D01*
X131114265Y-70116400D01*
X131253832Y-70130146D01*
X131253832Y-70130146D01*
G37*
G36*
X219196751Y-70122143D02*
G01*
X219342345Y-70182450D01*
X219473371Y-70269999D01*
X219584801Y-70381429D01*
X219672350Y-70512455D01*
X219732657Y-70658049D01*
X219763400Y-70812606D01*
X219763400Y-70970194D01*
X219732657Y-71124751D01*
X219672350Y-71270345D01*
X219584801Y-71401371D01*
X219473371Y-71512801D01*
X219342345Y-71600350D01*
X219196751Y-71660657D01*
X219042194Y-71691400D01*
X218884606Y-71691400D01*
X218730049Y-71660657D01*
X218584455Y-71600350D01*
X218453429Y-71512801D01*
X218341999Y-71401371D01*
X218254450Y-71270345D01*
X218194143Y-71124751D01*
X218163400Y-70970194D01*
X218163400Y-70812606D01*
X218194143Y-70658049D01*
X218254450Y-70512455D01*
X218341999Y-70381429D01*
X218453429Y-70269999D01*
X218584455Y-70182450D01*
X218730049Y-70122143D01*
X218884606Y-70091400D01*
X219042194Y-70091400D01*
X219196751Y-70122143D01*
X219196751Y-70122143D01*
G37*
G36*
X211576751Y-70122143D02*
G01*
X211722345Y-70182450D01*
X211853371Y-70269999D01*
X211964801Y-70381429D01*
X212052350Y-70512455D01*
X212112657Y-70658049D01*
X212143400Y-70812606D01*
X212143400Y-70970194D01*
X212112657Y-71124751D01*
X212052350Y-71270345D01*
X211964801Y-71401371D01*
X211853371Y-71512801D01*
X211722345Y-71600350D01*
X211576751Y-71660657D01*
X211422194Y-71691400D01*
X211264606Y-71691400D01*
X211110049Y-71660657D01*
X210964455Y-71600350D01*
X210833429Y-71512801D01*
X210721999Y-71401371D01*
X210634450Y-71270345D01*
X210574143Y-71124751D01*
X210543400Y-70970194D01*
X210543400Y-70812606D01*
X210574143Y-70658049D01*
X210634450Y-70512455D01*
X210721999Y-70381429D01*
X210833429Y-70269999D01*
X210964455Y-70182450D01*
X211110049Y-70122143D01*
X211264606Y-70091400D01*
X211422194Y-70091400D01*
X211576751Y-70122143D01*
X211576751Y-70122143D01*
G37*
G36*
X205169831Y-69750423D02*
G01*
X205295339Y-69788496D01*
X205339485Y-69801887D01*
X205495831Y-69885456D01*
X205632875Y-69997925D01*
X205745344Y-70134969D01*
X205828913Y-70291315D01*
X205828914Y-70291319D01*
X205880377Y-70460969D01*
X205897754Y-70637400D01*
X205880377Y-70813831D01*
X205860254Y-70880168D01*
X205828913Y-70983485D01*
X205745344Y-71139831D01*
X205632875Y-71276875D01*
X205495831Y-71389344D01*
X205339485Y-71472913D01*
X205295339Y-71486304D01*
X205169831Y-71524377D01*
X205037607Y-71537400D01*
X204949193Y-71537400D01*
X204816969Y-71524377D01*
X204691461Y-71486304D01*
X204647315Y-71472913D01*
X204490969Y-71389344D01*
X204353925Y-71276875D01*
X204241456Y-71139831D01*
X204157887Y-70983485D01*
X204126546Y-70880168D01*
X204106423Y-70813831D01*
X204089046Y-70637400D01*
X204106423Y-70460969D01*
X204157886Y-70291319D01*
X204157887Y-70291315D01*
X204241456Y-70134969D01*
X204353925Y-69997925D01*
X204490969Y-69885456D01*
X204647315Y-69801887D01*
X204691461Y-69788496D01*
X204816969Y-69750423D01*
X204949193Y-69737400D01*
X205037607Y-69737400D01*
X205169831Y-69750423D01*
X205169831Y-69750423D01*
G37*
G36*
X197549831Y-69750423D02*
G01*
X197675339Y-69788496D01*
X197719485Y-69801887D01*
X197875831Y-69885456D01*
X198012875Y-69997925D01*
X198125344Y-70134969D01*
X198208913Y-70291315D01*
X198208914Y-70291319D01*
X198260377Y-70460969D01*
X198277754Y-70637400D01*
X198260377Y-70813831D01*
X198240254Y-70880168D01*
X198208913Y-70983485D01*
X198125344Y-71139831D01*
X198012875Y-71276875D01*
X197875831Y-71389344D01*
X197719485Y-71472913D01*
X197675339Y-71486304D01*
X197549831Y-71524377D01*
X197417607Y-71537400D01*
X197329193Y-71537400D01*
X197196969Y-71524377D01*
X197071461Y-71486304D01*
X197027315Y-71472913D01*
X196870969Y-71389344D01*
X196733925Y-71276875D01*
X196621456Y-71139831D01*
X196537887Y-70983485D01*
X196506546Y-70880168D01*
X196486423Y-70813831D01*
X196469046Y-70637400D01*
X196486423Y-70460969D01*
X196537886Y-70291319D01*
X196537887Y-70291315D01*
X196621456Y-70134969D01*
X196733925Y-69997925D01*
X196870969Y-69885456D01*
X197027315Y-69801887D01*
X197071461Y-69788496D01*
X197196969Y-69750423D01*
X197329193Y-69737400D01*
X197417607Y-69737400D01*
X197549831Y-69750423D01*
X197549831Y-69750423D01*
G37*
G36*
X131253832Y-67590146D02*
G01*
X131432908Y-67644468D01*
X131597945Y-67732682D01*
X131742601Y-67851399D01*
X131861318Y-67996055D01*
X131949532Y-68161092D01*
X132003854Y-68340168D01*
X132022196Y-68526400D01*
X132003854Y-68712632D01*
X131949532Y-68891708D01*
X131949530Y-68891711D01*
X131949530Y-68891712D01*
X131927507Y-68932914D01*
X131861318Y-69056745D01*
X131742601Y-69201401D01*
X131597945Y-69320118D01*
X131432908Y-69408332D01*
X131253832Y-69462654D01*
X131114265Y-69476400D01*
X131020935Y-69476400D01*
X130881368Y-69462654D01*
X130702292Y-69408332D01*
X130537255Y-69320118D01*
X130392599Y-69201401D01*
X130273882Y-69056745D01*
X130207693Y-68932914D01*
X130185670Y-68891712D01*
X130185670Y-68891711D01*
X130185668Y-68891708D01*
X130131346Y-68712632D01*
X130113004Y-68526400D01*
X130131346Y-68340168D01*
X130185668Y-68161092D01*
X130273882Y-67996055D01*
X130392599Y-67851399D01*
X130537255Y-67732682D01*
X130702292Y-67644468D01*
X130881368Y-67590146D01*
X131020935Y-67576400D01*
X131114265Y-67576400D01*
X131253832Y-67590146D01*
X131253832Y-67590146D01*
G37*
G36*
X212143400Y-69151400D02*
G01*
X210543400Y-69151400D01*
X210543400Y-67551400D01*
X212143400Y-67551400D01*
X212143400Y-69151400D01*
X212143400Y-69151400D01*
G37*
G36*
X219196751Y-67582143D02*
G01*
X219342345Y-67642450D01*
X219473371Y-67729999D01*
X219584801Y-67841429D01*
X219672350Y-67972455D01*
X219732657Y-68118049D01*
X219763400Y-68272606D01*
X219763400Y-68430194D01*
X219732657Y-68584751D01*
X219672350Y-68730345D01*
X219584801Y-68861371D01*
X219473371Y-68972801D01*
X219342345Y-69060350D01*
X219196751Y-69120657D01*
X219042194Y-69151400D01*
X218884606Y-69151400D01*
X218730049Y-69120657D01*
X218584455Y-69060350D01*
X218453429Y-68972801D01*
X218341999Y-68861371D01*
X218254450Y-68730345D01*
X218194143Y-68584751D01*
X218163400Y-68430194D01*
X218163400Y-68272606D01*
X218194143Y-68118049D01*
X218254450Y-67972455D01*
X218341999Y-67841429D01*
X218453429Y-67729999D01*
X218584455Y-67642450D01*
X218730049Y-67582143D01*
X218884606Y-67551400D01*
X219042194Y-67551400D01*
X219196751Y-67582143D01*
X219196751Y-67582143D01*
G37*
G36*
X205169831Y-67210423D02*
G01*
X205295339Y-67248496D01*
X205339485Y-67261887D01*
X205495831Y-67345456D01*
X205632875Y-67457925D01*
X205745344Y-67594969D01*
X205828913Y-67751315D01*
X205828914Y-67751319D01*
X205880377Y-67920969D01*
X205897754Y-68097400D01*
X205880377Y-68273831D01*
X205860254Y-68340168D01*
X205828913Y-68443485D01*
X205745344Y-68599831D01*
X205632875Y-68736875D01*
X205495831Y-68849344D01*
X205339485Y-68932913D01*
X205295339Y-68946304D01*
X205169831Y-68984377D01*
X205037607Y-68997400D01*
X204949193Y-68997400D01*
X204816969Y-68984377D01*
X204691461Y-68946304D01*
X204647315Y-68932913D01*
X204490969Y-68849344D01*
X204353925Y-68736875D01*
X204241456Y-68599831D01*
X204157887Y-68443485D01*
X204126546Y-68340168D01*
X204106423Y-68273831D01*
X204089046Y-68097400D01*
X204106423Y-67920969D01*
X204157886Y-67751319D01*
X204157887Y-67751315D01*
X204241456Y-67594969D01*
X204353925Y-67457925D01*
X204490969Y-67345456D01*
X204647315Y-67261887D01*
X204691461Y-67248496D01*
X204816969Y-67210423D01*
X204949193Y-67197400D01*
X205037607Y-67197400D01*
X205169831Y-67210423D01*
X205169831Y-67210423D01*
G37*
G36*
X198273400Y-68997400D02*
G01*
X196473400Y-68997400D01*
X196473400Y-67197400D01*
X198273400Y-67197400D01*
X198273400Y-68997400D01*
X198273400Y-68997400D01*
G37*
G36*
X131253832Y-65050146D02*
G01*
X131432908Y-65104468D01*
X131597945Y-65192682D01*
X131742601Y-65311399D01*
X131861318Y-65456055D01*
X131949532Y-65621092D01*
X132003854Y-65800168D01*
X132022196Y-65986400D01*
X132003854Y-66172632D01*
X131949532Y-66351708D01*
X131861318Y-66516745D01*
X131742601Y-66661401D01*
X131597945Y-66780118D01*
X131432908Y-66868332D01*
X131253832Y-66922654D01*
X131114265Y-66936400D01*
X131020935Y-66936400D01*
X130881368Y-66922654D01*
X130702292Y-66868332D01*
X130537255Y-66780118D01*
X130392599Y-66661401D01*
X130273882Y-66516745D01*
X130185668Y-66351708D01*
X130131346Y-66172632D01*
X130113004Y-65986400D01*
X130131346Y-65800168D01*
X130185668Y-65621092D01*
X130273882Y-65456055D01*
X130392599Y-65311399D01*
X130537255Y-65192682D01*
X130702292Y-65104468D01*
X130881368Y-65050146D01*
X131020935Y-65036400D01*
X131114265Y-65036400D01*
X131253832Y-65050146D01*
X131253832Y-65050146D01*
G37*
G36*
X131253832Y-62510146D02*
G01*
X131432908Y-62564468D01*
X131597945Y-62652682D01*
X131742601Y-62771399D01*
X131861318Y-62916055D01*
X131949532Y-63081092D01*
X132003854Y-63260168D01*
X132022196Y-63446400D01*
X132003854Y-63632632D01*
X131949532Y-63811708D01*
X131861318Y-63976745D01*
X131742601Y-64121401D01*
X131597945Y-64240118D01*
X131432908Y-64328332D01*
X131253832Y-64382654D01*
X131114265Y-64396400D01*
X131020935Y-64396400D01*
X130881368Y-64382654D01*
X130702292Y-64328332D01*
X130537255Y-64240118D01*
X130392599Y-64121401D01*
X130273882Y-63976745D01*
X130185668Y-63811708D01*
X130131346Y-63632632D01*
X130113004Y-63446400D01*
X130131346Y-63260168D01*
X130185668Y-63081092D01*
X130273882Y-62916055D01*
X130392599Y-62771399D01*
X130537255Y-62652682D01*
X130702292Y-62564468D01*
X130881368Y-62510146D01*
X131020935Y-62496400D01*
X131114265Y-62496400D01*
X131253832Y-62510146D01*
X131253832Y-62510146D01*
G37*
G36*
X131253832Y-59970146D02*
G01*
X131432908Y-60024468D01*
X131597945Y-60112682D01*
X131742601Y-60231399D01*
X131861318Y-60376055D01*
X131949532Y-60541092D01*
X132003854Y-60720168D01*
X132022196Y-60906400D01*
X132003854Y-61092632D01*
X131949532Y-61271708D01*
X131861318Y-61436745D01*
X131742601Y-61581401D01*
X131597945Y-61700118D01*
X131432908Y-61788332D01*
X131253832Y-61842654D01*
X131114265Y-61856400D01*
X131020935Y-61856400D01*
X130881368Y-61842654D01*
X130702292Y-61788332D01*
X130537255Y-61700118D01*
X130392599Y-61581401D01*
X130273882Y-61436745D01*
X130185668Y-61271708D01*
X130131346Y-61092632D01*
X130113004Y-60906400D01*
X130131346Y-60720168D01*
X130185668Y-60541092D01*
X130273882Y-60376055D01*
X130392599Y-60231399D01*
X130537255Y-60112682D01*
X130702292Y-60024468D01*
X130881368Y-59970146D01*
X131020935Y-59956400D01*
X131114265Y-59956400D01*
X131253832Y-59970146D01*
X131253832Y-59970146D01*
G37*
G36*
X222639432Y-58194946D02*
G01*
X222818508Y-58249268D01*
X222983545Y-58337482D01*
X223128201Y-58456199D01*
X223246918Y-58600855D01*
X223246919Y-58600857D01*
X223316863Y-58731712D01*
X223335132Y-58765892D01*
X223389454Y-58944968D01*
X223407796Y-59131200D01*
X223389454Y-59317432D01*
X223335132Y-59496508D01*
X223246918Y-59661545D01*
X223128201Y-59806201D01*
X222983545Y-59924918D01*
X222818508Y-60013132D01*
X222639432Y-60067454D01*
X222499865Y-60081200D01*
X222406535Y-60081200D01*
X222266968Y-60067454D01*
X222087892Y-60013132D01*
X221922855Y-59924918D01*
X221778199Y-59806201D01*
X221659482Y-59661545D01*
X221571268Y-59496508D01*
X221516946Y-59317432D01*
X221498604Y-59131200D01*
X221516946Y-58944968D01*
X221571268Y-58765892D01*
X221589538Y-58731712D01*
X221659481Y-58600857D01*
X221659482Y-58600855D01*
X221778199Y-58456199D01*
X221922855Y-58337482D01*
X222087892Y-58249268D01*
X222266968Y-58194946D01*
X222406535Y-58181200D01*
X222499865Y-58181200D01*
X222639432Y-58194946D01*
X222639432Y-58194946D01*
G37*
G36*
X131253832Y-57430146D02*
G01*
X131432908Y-57484468D01*
X131597945Y-57572682D01*
X131742601Y-57691399D01*
X131861318Y-57836055D01*
X131949532Y-58001092D01*
X132003854Y-58180168D01*
X132022196Y-58366400D01*
X132003854Y-58552632D01*
X131949532Y-58731708D01*
X131949530Y-58731711D01*
X131949530Y-58731712D01*
X131931260Y-58765892D01*
X131861318Y-58896745D01*
X131742601Y-59041401D01*
X131597945Y-59160118D01*
X131432908Y-59248332D01*
X131253832Y-59302654D01*
X131114265Y-59316400D01*
X131020935Y-59316400D01*
X130881368Y-59302654D01*
X130702292Y-59248332D01*
X130537255Y-59160118D01*
X130392599Y-59041401D01*
X130273882Y-58896745D01*
X130203940Y-58765892D01*
X130185670Y-58731712D01*
X130185670Y-58731711D01*
X130185668Y-58731708D01*
X130131346Y-58552632D01*
X130113004Y-58366400D01*
X130131346Y-58180168D01*
X130185668Y-58001092D01*
X130273882Y-57836055D01*
X130392599Y-57691399D01*
X130537255Y-57572682D01*
X130702292Y-57484468D01*
X130881368Y-57430146D01*
X131020935Y-57416400D01*
X131114265Y-57416400D01*
X131253832Y-57430146D01*
X131253832Y-57430146D01*
G37*
G36*
X161880826Y-57599781D02*
G01*
X161927861Y-57614049D01*
X161971210Y-57637219D01*
X162009202Y-57668398D01*
X162040381Y-57706390D01*
X162063551Y-57749739D01*
X162077819Y-57796774D01*
X162083000Y-57849374D01*
X162083000Y-58939826D01*
X162077819Y-58992426D01*
X162063551Y-59039461D01*
X162040381Y-59082810D01*
X162009202Y-59120802D01*
X161971210Y-59151981D01*
X161927861Y-59175151D01*
X161880826Y-59189419D01*
X161828226Y-59194600D01*
X160987774Y-59194600D01*
X160935174Y-59189419D01*
X160888139Y-59175151D01*
X160844790Y-59151981D01*
X160806798Y-59120802D01*
X160775619Y-59082810D01*
X160752449Y-59039461D01*
X160738181Y-58992426D01*
X160733000Y-58939826D01*
X160733000Y-57849374D01*
X160738181Y-57796774D01*
X160752449Y-57749739D01*
X160775619Y-57706390D01*
X160806798Y-57668398D01*
X160844790Y-57637219D01*
X160888139Y-57614049D01*
X160935174Y-57599781D01*
X160987774Y-57594600D01*
X161828226Y-57594600D01*
X161880826Y-57599781D01*
X161880826Y-57599781D01*
G37*
G36*
X163930826Y-57599781D02*
G01*
X163977861Y-57614049D01*
X164021210Y-57637219D01*
X164059202Y-57668398D01*
X164090381Y-57706390D01*
X164113551Y-57749739D01*
X164127819Y-57796774D01*
X164133000Y-57849374D01*
X164133000Y-58939826D01*
X164127819Y-58992426D01*
X164113551Y-59039461D01*
X164090381Y-59082810D01*
X164059202Y-59120802D01*
X164021210Y-59151981D01*
X163977861Y-59175151D01*
X163930826Y-59189419D01*
X163878226Y-59194600D01*
X163037774Y-59194600D01*
X162985174Y-59189419D01*
X162938139Y-59175151D01*
X162894790Y-59151981D01*
X162856798Y-59120802D01*
X162825619Y-59082810D01*
X162802449Y-59039461D01*
X162788181Y-58992426D01*
X162783000Y-58939826D01*
X162783000Y-57849374D01*
X162788181Y-57796774D01*
X162802449Y-57749739D01*
X162825619Y-57706390D01*
X162856798Y-57668398D01*
X162894790Y-57637219D01*
X162938139Y-57614049D01*
X162985174Y-57599781D01*
X163037774Y-57594600D01*
X163878226Y-57594600D01*
X163930826Y-57599781D01*
X163930826Y-57599781D01*
G37*
G36*
X222639432Y-55654946D02*
G01*
X222818508Y-55709268D01*
X222983545Y-55797482D01*
X223128201Y-55916199D01*
X223246918Y-56060855D01*
X223335132Y-56225892D01*
X223389454Y-56404968D01*
X223407796Y-56591200D01*
X223389454Y-56777432D01*
X223335132Y-56956508D01*
X223246918Y-57121545D01*
X223128201Y-57266201D01*
X222983545Y-57384918D01*
X222818508Y-57473132D01*
X222639432Y-57527454D01*
X222499865Y-57541200D01*
X222406535Y-57541200D01*
X222266968Y-57527454D01*
X222087892Y-57473132D01*
X221922855Y-57384918D01*
X221778199Y-57266201D01*
X221659482Y-57121545D01*
X221571268Y-56956508D01*
X221516946Y-56777432D01*
X221498604Y-56591200D01*
X221516946Y-56404968D01*
X221571268Y-56225892D01*
X221659482Y-56060855D01*
X221778199Y-55916199D01*
X221922855Y-55797482D01*
X222087892Y-55709268D01*
X222266968Y-55654946D01*
X222406535Y-55641200D01*
X222499865Y-55641200D01*
X222639432Y-55654946D01*
X222639432Y-55654946D01*
G37*
G36*
X193077258Y-55175473D02*
G01*
X193277448Y-55258394D01*
X193457609Y-55378774D01*
X193610826Y-55531991D01*
X193731206Y-55712152D01*
X193731207Y-55712155D01*
X193814127Y-55912342D01*
X193843669Y-56060855D01*
X193856400Y-56124861D01*
X193856400Y-56341539D01*
X193814127Y-56554058D01*
X193731206Y-56754248D01*
X193610826Y-56934409D01*
X193457609Y-57087626D01*
X193277448Y-57208006D01*
X193136952Y-57266201D01*
X193077258Y-57290927D01*
X192864741Y-57333200D01*
X192648059Y-57333200D01*
X192435542Y-57290927D01*
X192375848Y-57266201D01*
X192235352Y-57208006D01*
X192055191Y-57087626D01*
X191901974Y-56934409D01*
X191781594Y-56754248D01*
X191698673Y-56554058D01*
X191656400Y-56341539D01*
X191656400Y-56124861D01*
X191669132Y-56060855D01*
X191698673Y-55912342D01*
X191781593Y-55712155D01*
X191781594Y-55712152D01*
X191901974Y-55531991D01*
X192055191Y-55378774D01*
X192235352Y-55258394D01*
X192435542Y-55175473D01*
X192648059Y-55133200D01*
X192864741Y-55133200D01*
X193077258Y-55175473D01*
X193077258Y-55175473D01*
G37*
G36*
X197577258Y-55175473D02*
G01*
X197777448Y-55258394D01*
X197957609Y-55378774D01*
X198110826Y-55531991D01*
X198231206Y-55712152D01*
X198231207Y-55712155D01*
X198314127Y-55912342D01*
X198343669Y-56060855D01*
X198356400Y-56124861D01*
X198356400Y-56341539D01*
X198314127Y-56554058D01*
X198231206Y-56754248D01*
X198110826Y-56934409D01*
X197957609Y-57087626D01*
X197777448Y-57208006D01*
X197636952Y-57266201D01*
X197577258Y-57290927D01*
X197364741Y-57333200D01*
X197148059Y-57333200D01*
X196935542Y-57290927D01*
X196875848Y-57266201D01*
X196735352Y-57208006D01*
X196555191Y-57087626D01*
X196401974Y-56934409D01*
X196281594Y-56754248D01*
X196198673Y-56554058D01*
X196156400Y-56341539D01*
X196156400Y-56124861D01*
X196169132Y-56060855D01*
X196198673Y-55912342D01*
X196281593Y-55712155D01*
X196281594Y-55712152D01*
X196401974Y-55531991D01*
X196555191Y-55378774D01*
X196735352Y-55258394D01*
X196935542Y-55175473D01*
X197148059Y-55133200D01*
X197364741Y-55133200D01*
X197577258Y-55175473D01*
X197577258Y-55175473D01*
G37*
G36*
X163930826Y-55313781D02*
G01*
X163977861Y-55328049D01*
X164021210Y-55351219D01*
X164059202Y-55382398D01*
X164090381Y-55420390D01*
X164113551Y-55463739D01*
X164127819Y-55510774D01*
X164133000Y-55563374D01*
X164133000Y-56653826D01*
X164127819Y-56706426D01*
X164113551Y-56753461D01*
X164090381Y-56796810D01*
X164059202Y-56834802D01*
X164021210Y-56865981D01*
X163977861Y-56889151D01*
X163930826Y-56903419D01*
X163878226Y-56908600D01*
X163037774Y-56908600D01*
X162985174Y-56903419D01*
X162938139Y-56889151D01*
X162894790Y-56865981D01*
X162856798Y-56834802D01*
X162825619Y-56796810D01*
X162802449Y-56753461D01*
X162788181Y-56706426D01*
X162783000Y-56653826D01*
X162783000Y-55563374D01*
X162788181Y-55510774D01*
X162802449Y-55463739D01*
X162825619Y-55420390D01*
X162856798Y-55382398D01*
X162894790Y-55351219D01*
X162938139Y-55328049D01*
X162985174Y-55313781D01*
X163037774Y-55308600D01*
X163878226Y-55308600D01*
X163930826Y-55313781D01*
X163930826Y-55313781D01*
G37*
G36*
X161880826Y-55313781D02*
G01*
X161927861Y-55328049D01*
X161971210Y-55351219D01*
X162009202Y-55382398D01*
X162040381Y-55420390D01*
X162063551Y-55463739D01*
X162077819Y-55510774D01*
X162083000Y-55563374D01*
X162083000Y-56653826D01*
X162077819Y-56706426D01*
X162063551Y-56753461D01*
X162040381Y-56796810D01*
X162009202Y-56834802D01*
X161971210Y-56865981D01*
X161927861Y-56889151D01*
X161880826Y-56903419D01*
X161828226Y-56908600D01*
X160987774Y-56908600D01*
X160935174Y-56903419D01*
X160888139Y-56889151D01*
X160844790Y-56865981D01*
X160806798Y-56834802D01*
X160775619Y-56796810D01*
X160752449Y-56753461D01*
X160738181Y-56706426D01*
X160733000Y-56653826D01*
X160733000Y-55563374D01*
X160738181Y-55510774D01*
X160752449Y-55463739D01*
X160775619Y-55420390D01*
X160806798Y-55382398D01*
X160844790Y-55351219D01*
X160888139Y-55328049D01*
X160935174Y-55313781D01*
X160987774Y-55308600D01*
X161828226Y-55308600D01*
X161880826Y-55313781D01*
X161880826Y-55313781D01*
G37*
G36*
X132017600Y-56776400D02*
G01*
X130117600Y-56776400D01*
X130117600Y-54876400D01*
X132017600Y-54876400D01*
X132017600Y-56776400D01*
X132017600Y-56776400D01*
G37*
G36*
X223403200Y-55001200D02*
G01*
X221503200Y-55001200D01*
X221503200Y-53101200D01*
X223403200Y-53101200D01*
X223403200Y-55001200D01*
X223403200Y-55001200D01*
G37*
G36*
X218018400Y-51673800D02*
G01*
X216118400Y-51673800D01*
X216118400Y-49773800D01*
X218018400Y-49773800D01*
X218018400Y-51673800D01*
X218018400Y-51673800D01*
G37*
G36*
X207094632Y-49787546D02*
G01*
X207273708Y-49841868D01*
X207438745Y-49930082D01*
X207583401Y-50048799D01*
X207702118Y-50193455D01*
X207702119Y-50193457D01*
X207734613Y-50254248D01*
X207790332Y-50358492D01*
X207844654Y-50537568D01*
X207862996Y-50723800D01*
X207844654Y-50910032D01*
X207790332Y-51089108D01*
X207702118Y-51254145D01*
X207583401Y-51398801D01*
X207438745Y-51517518D01*
X207273708Y-51605732D01*
X207094632Y-51660054D01*
X206955065Y-51673800D01*
X206861735Y-51673800D01*
X206722168Y-51660054D01*
X206543092Y-51605732D01*
X206378055Y-51517518D01*
X206233399Y-51398801D01*
X206114682Y-51254145D01*
X206026468Y-51089108D01*
X205972146Y-50910032D01*
X205953804Y-50723800D01*
X205972146Y-50537568D01*
X206026468Y-50358492D01*
X206082188Y-50254248D01*
X206114681Y-50193457D01*
X206114682Y-50193455D01*
X206233399Y-50048799D01*
X206378055Y-49930082D01*
X206543092Y-49841868D01*
X206722168Y-49787546D01*
X206861735Y-49773800D01*
X206955065Y-49773800D01*
X207094632Y-49787546D01*
X207094632Y-49787546D01*
G37*
G36*
X204554632Y-49787546D02*
G01*
X204733708Y-49841868D01*
X204898745Y-49930082D01*
X205043401Y-50048799D01*
X205162118Y-50193455D01*
X205162119Y-50193457D01*
X205194613Y-50254248D01*
X205250332Y-50358492D01*
X205304654Y-50537568D01*
X205322996Y-50723800D01*
X205304654Y-50910032D01*
X205250332Y-51089108D01*
X205162118Y-51254145D01*
X205043401Y-51398801D01*
X204898745Y-51517518D01*
X204733708Y-51605732D01*
X204554632Y-51660054D01*
X204415065Y-51673800D01*
X204321735Y-51673800D01*
X204182168Y-51660054D01*
X204003092Y-51605732D01*
X203838055Y-51517518D01*
X203693399Y-51398801D01*
X203574682Y-51254145D01*
X203486468Y-51089108D01*
X203432146Y-50910032D01*
X203413804Y-50723800D01*
X203432146Y-50537568D01*
X203486468Y-50358492D01*
X203542188Y-50254248D01*
X203574681Y-50193457D01*
X203574682Y-50193455D01*
X203693399Y-50048799D01*
X203838055Y-49930082D01*
X204003092Y-49841868D01*
X204182168Y-49787546D01*
X204321735Y-49773800D01*
X204415065Y-49773800D01*
X204554632Y-49787546D01*
X204554632Y-49787546D01*
G37*
G36*
X209634632Y-49787546D02*
G01*
X209813708Y-49841868D01*
X209978745Y-49930082D01*
X210123401Y-50048799D01*
X210242118Y-50193455D01*
X210242119Y-50193457D01*
X210274613Y-50254248D01*
X210330332Y-50358492D01*
X210384654Y-50537568D01*
X210402996Y-50723800D01*
X210384654Y-50910032D01*
X210330332Y-51089108D01*
X210242118Y-51254145D01*
X210123401Y-51398801D01*
X209978745Y-51517518D01*
X209813708Y-51605732D01*
X209634632Y-51660054D01*
X209495065Y-51673800D01*
X209401735Y-51673800D01*
X209262168Y-51660054D01*
X209083092Y-51605732D01*
X208918055Y-51517518D01*
X208773399Y-51398801D01*
X208654682Y-51254145D01*
X208566468Y-51089108D01*
X208512146Y-50910032D01*
X208493804Y-50723800D01*
X208512146Y-50537568D01*
X208566468Y-50358492D01*
X208622188Y-50254248D01*
X208654681Y-50193457D01*
X208654682Y-50193455D01*
X208773399Y-50048799D01*
X208918055Y-49930082D01*
X209083092Y-49841868D01*
X209262168Y-49787546D01*
X209401735Y-49773800D01*
X209495065Y-49773800D01*
X209634632Y-49787546D01*
X209634632Y-49787546D01*
G37*
G36*
X214714632Y-49787546D02*
G01*
X214893708Y-49841868D01*
X215058745Y-49930082D01*
X215203401Y-50048799D01*
X215322118Y-50193455D01*
X215322119Y-50193457D01*
X215354613Y-50254248D01*
X215410332Y-50358492D01*
X215464654Y-50537568D01*
X215482996Y-50723800D01*
X215464654Y-50910032D01*
X215410332Y-51089108D01*
X215322118Y-51254145D01*
X215203401Y-51398801D01*
X215058745Y-51517518D01*
X214893708Y-51605732D01*
X214714632Y-51660054D01*
X214575065Y-51673800D01*
X214481735Y-51673800D01*
X214342168Y-51660054D01*
X214163092Y-51605732D01*
X213998055Y-51517518D01*
X213853399Y-51398801D01*
X213734682Y-51254145D01*
X213646468Y-51089108D01*
X213592146Y-50910032D01*
X213573804Y-50723800D01*
X213592146Y-50537568D01*
X213646468Y-50358492D01*
X213702188Y-50254248D01*
X213734681Y-50193457D01*
X213734682Y-50193455D01*
X213853399Y-50048799D01*
X213998055Y-49930082D01*
X214163092Y-49841868D01*
X214342168Y-49787546D01*
X214481735Y-49773800D01*
X214575065Y-49773800D01*
X214714632Y-49787546D01*
X214714632Y-49787546D01*
G37*
G36*
X212174632Y-49787546D02*
G01*
X212353708Y-49841868D01*
X212518745Y-49930082D01*
X212663401Y-50048799D01*
X212782118Y-50193455D01*
X212782119Y-50193457D01*
X212814613Y-50254248D01*
X212870332Y-50358492D01*
X212924654Y-50537568D01*
X212942996Y-50723800D01*
X212924654Y-50910032D01*
X212870332Y-51089108D01*
X212782118Y-51254145D01*
X212663401Y-51398801D01*
X212518745Y-51517518D01*
X212353708Y-51605732D01*
X212174632Y-51660054D01*
X212035065Y-51673800D01*
X211941735Y-51673800D01*
X211802168Y-51660054D01*
X211623092Y-51605732D01*
X211458055Y-51517518D01*
X211313399Y-51398801D01*
X211194682Y-51254145D01*
X211106468Y-51089108D01*
X211052146Y-50910032D01*
X211033804Y-50723800D01*
X211052146Y-50537568D01*
X211106468Y-50358492D01*
X211162188Y-50254248D01*
X211194681Y-50193457D01*
X211194682Y-50193455D01*
X211313399Y-50048799D01*
X211458055Y-49930082D01*
X211623092Y-49841868D01*
X211802168Y-49787546D01*
X211941735Y-49773800D01*
X212035065Y-49773800D01*
X212174632Y-49787546D01*
X212174632Y-49787546D01*
G37*
G36*
X197577258Y-48675473D02*
G01*
X197777448Y-48758394D01*
X197957609Y-48878774D01*
X198110826Y-49031991D01*
X198231206Y-49212152D01*
X198231207Y-49212155D01*
X198314127Y-49412342D01*
X198356400Y-49624859D01*
X198356400Y-49841541D01*
X198338788Y-49930081D01*
X198314127Y-50054058D01*
X198231206Y-50254248D01*
X198110826Y-50434409D01*
X197957609Y-50587626D01*
X197777448Y-50708006D01*
X197577258Y-50790927D01*
X197364741Y-50833200D01*
X197148059Y-50833200D01*
X196935542Y-50790927D01*
X196735352Y-50708006D01*
X196555191Y-50587626D01*
X196401974Y-50434409D01*
X196281594Y-50254248D01*
X196198673Y-50054058D01*
X196174012Y-49930081D01*
X196156400Y-49841541D01*
X196156400Y-49624859D01*
X196198673Y-49412342D01*
X196281593Y-49212155D01*
X196281594Y-49212152D01*
X196401974Y-49031991D01*
X196555191Y-48878774D01*
X196735352Y-48758394D01*
X196935542Y-48675473D01*
X197148059Y-48633200D01*
X197364741Y-48633200D01*
X197577258Y-48675473D01*
X197577258Y-48675473D01*
G37*
G36*
X193077258Y-48675473D02*
G01*
X193277448Y-48758394D01*
X193457609Y-48878774D01*
X193610826Y-49031991D01*
X193731206Y-49212152D01*
X193731207Y-49212155D01*
X193814127Y-49412342D01*
X193856400Y-49624859D01*
X193856400Y-49841541D01*
X193838788Y-49930081D01*
X193814127Y-50054058D01*
X193731206Y-50254248D01*
X193610826Y-50434409D01*
X193457609Y-50587626D01*
X193277448Y-50708006D01*
X193077258Y-50790927D01*
X192864741Y-50833200D01*
X192648059Y-50833200D01*
X192435542Y-50790927D01*
X192235352Y-50708006D01*
X192055191Y-50587626D01*
X191901974Y-50434409D01*
X191781594Y-50254248D01*
X191698673Y-50054058D01*
X191674012Y-49930081D01*
X191656400Y-49841541D01*
X191656400Y-49624859D01*
X191698673Y-49412342D01*
X191781593Y-49212155D01*
X191781594Y-49212152D01*
X191901974Y-49031991D01*
X192055191Y-48878774D01*
X192235352Y-48758394D01*
X192435542Y-48675473D01*
X192648059Y-48633200D01*
X192864741Y-48633200D01*
X193077258Y-48675473D01*
X193077258Y-48675473D01*
G37*
G36*
X155832000Y-47386000D02*
G01*
X153832000Y-47386000D01*
X153832000Y-46086000D01*
X155832000Y-46086000D01*
X155832000Y-47386000D01*
X155832000Y-47386000D01*
G37*
G36*
X144641979Y-44701560D02*
G01*
X144699858Y-44713073D01*
X144900048Y-44795994D01*
X145080209Y-44916374D01*
X145233426Y-45069591D01*
X145353806Y-45249752D01*
X145353807Y-45249755D01*
X145436727Y-45449942D01*
X145479000Y-45662459D01*
X145479000Y-45879141D01*
X145456568Y-45991912D01*
X145436727Y-46091658D01*
X145353806Y-46291848D01*
X145233426Y-46472009D01*
X145080209Y-46625226D01*
X144900048Y-46745606D01*
X144699858Y-46828527D01*
X144487341Y-46870800D01*
X144270659Y-46870800D01*
X144058142Y-46828527D01*
X143857952Y-46745606D01*
X143677791Y-46625226D01*
X143524574Y-46472009D01*
X143404194Y-46291848D01*
X143321273Y-46091658D01*
X143301432Y-45991912D01*
X143279000Y-45879141D01*
X143279000Y-45662459D01*
X143321273Y-45449942D01*
X143404193Y-45249755D01*
X143404194Y-45249752D01*
X143524574Y-45069591D01*
X143677791Y-44916374D01*
X143857952Y-44795994D01*
X144058142Y-44713073D01*
X144116021Y-44701560D01*
X144270659Y-44670800D01*
X144487341Y-44670800D01*
X144641979Y-44701560D01*
X144641979Y-44701560D01*
G37*
G36*
X137879000Y-46870800D02*
G01*
X135679000Y-46870800D01*
X135679000Y-44670800D01*
X137879000Y-44670800D01*
X137879000Y-46870800D01*
X137879000Y-46870800D01*
G37*
G36*
X201381400Y-46263600D02*
G01*
X199481400Y-46263600D01*
X199481400Y-44363600D01*
X201381400Y-44363600D01*
X201381400Y-46263600D01*
X201381400Y-46263600D01*
G37*
G36*
X153530519Y-44821880D02*
G01*
X153584378Y-44838219D01*
X153634028Y-44864756D01*
X153677537Y-44900463D01*
X153713244Y-44943972D01*
X153739781Y-44993622D01*
X153756120Y-45047481D01*
X153762000Y-45107186D01*
X153762000Y-45824814D01*
X153756120Y-45884519D01*
X153739780Y-45938382D01*
X153719862Y-45975647D01*
X153714235Y-45989230D01*
X153713702Y-45991912D01*
X153703969Y-45999899D01*
X153699025Y-46005353D01*
X153677536Y-46031538D01*
X153634028Y-46067244D01*
X153584378Y-46093781D01*
X153530519Y-46110120D01*
X153470814Y-46116000D01*
X152053186Y-46116000D01*
X151993481Y-46110120D01*
X151939622Y-46093781D01*
X151889972Y-46067244D01*
X151846463Y-46031537D01*
X151810756Y-45988028D01*
X151784219Y-45938378D01*
X151767880Y-45884519D01*
X151762000Y-45824814D01*
X151762000Y-45107186D01*
X151767880Y-45047481D01*
X151784219Y-44993622D01*
X151810756Y-44943972D01*
X151846463Y-44900463D01*
X151889972Y-44864756D01*
X151939622Y-44838219D01*
X151993481Y-44821880D01*
X152053186Y-44816000D01*
X153470814Y-44816000D01*
X153530519Y-44821880D01*
X153530519Y-44821880D01*
G37*
G36*
X155600519Y-43551880D02*
G01*
X155654378Y-43568219D01*
X155704028Y-43594756D01*
X155747537Y-43630463D01*
X155783244Y-43673972D01*
X155809781Y-43723622D01*
X155826120Y-43777481D01*
X155832000Y-43837186D01*
X155832000Y-44554814D01*
X155826120Y-44614519D01*
X155809781Y-44668378D01*
X155783244Y-44718028D01*
X155747537Y-44761537D01*
X155704028Y-44797244D01*
X155654378Y-44823781D01*
X155600519Y-44840120D01*
X155540814Y-44846000D01*
X154123186Y-44846000D01*
X154063481Y-44840120D01*
X154009622Y-44823781D01*
X153959972Y-44797244D01*
X153916463Y-44761537D01*
X153880756Y-44718028D01*
X153854219Y-44668378D01*
X153837880Y-44614519D01*
X153832000Y-44554814D01*
X153832000Y-43837186D01*
X153837880Y-43777481D01*
X153854219Y-43723622D01*
X153880756Y-43673972D01*
X153916463Y-43630463D01*
X153959972Y-43594756D01*
X154009622Y-43568219D01*
X154063481Y-43551880D01*
X154123186Y-43546000D01*
X155540814Y-43546000D01*
X155600519Y-43551880D01*
X155600519Y-43551880D01*
G37*
G36*
X200617632Y-41837346D02*
G01*
X200796708Y-41891668D01*
X200961745Y-41979882D01*
X201106401Y-42098599D01*
X201225118Y-42243255D01*
X201313332Y-42408292D01*
X201367654Y-42587368D01*
X201385996Y-42773600D01*
X201367654Y-42959832D01*
X201313332Y-43138908D01*
X201225118Y-43303945D01*
X201106401Y-43448601D01*
X200961745Y-43567318D01*
X200796708Y-43655532D01*
X200617632Y-43709854D01*
X200478065Y-43723600D01*
X200384735Y-43723600D01*
X200245168Y-43709854D01*
X200066092Y-43655532D01*
X199901055Y-43567318D01*
X199756399Y-43448601D01*
X199637682Y-43303945D01*
X199549468Y-43138908D01*
X199495146Y-42959832D01*
X199476804Y-42773600D01*
X199495146Y-42587368D01*
X199549468Y-42408292D01*
X199637682Y-42243255D01*
X199756399Y-42098599D01*
X199901055Y-41979882D01*
X200066092Y-41891668D01*
X200245168Y-41837346D01*
X200384735Y-41823600D01*
X200478065Y-41823600D01*
X200617632Y-41837346D01*
X200617632Y-41837346D01*
G37*
G36*
X200617632Y-39297346D02*
G01*
X200796708Y-39351668D01*
X200961745Y-39439882D01*
X201106401Y-39558599D01*
X201225118Y-39703255D01*
X201313332Y-39868292D01*
X201367654Y-40047368D01*
X201385996Y-40233600D01*
X201367654Y-40419832D01*
X201313332Y-40598908D01*
X201225118Y-40763945D01*
X201106401Y-40908601D01*
X200961745Y-41027318D01*
X200796708Y-41115532D01*
X200617632Y-41169854D01*
X200478065Y-41183600D01*
X200384735Y-41183600D01*
X200245168Y-41169854D01*
X200066092Y-41115532D01*
X199901055Y-41027318D01*
X199756399Y-40908601D01*
X199637682Y-40763945D01*
X199549468Y-40598908D01*
X199495146Y-40419832D01*
X199476804Y-40233600D01*
X199495146Y-40047368D01*
X199549468Y-39868292D01*
X199637682Y-39703255D01*
X199756399Y-39558599D01*
X199901055Y-39439882D01*
X200066092Y-39351668D01*
X200245168Y-39297346D01*
X200384735Y-39283600D01*
X200478065Y-39283600D01*
X200617632Y-39297346D01*
X200617632Y-39297346D01*
G37*
G36*
X132830057Y-29829945D02*
G01*
X133042575Y-29872217D01*
X133643138Y-30120979D01*
X134183627Y-30482122D01*
X134643278Y-30941773D01*
X135004421Y-31482262D01*
X135253183Y-32082825D01*
X135380000Y-32720380D01*
X135380000Y-33370420D01*
X135253183Y-34007975D01*
X135004421Y-34608538D01*
X134643278Y-35149027D01*
X134183627Y-35608678D01*
X133643138Y-35969821D01*
X133042575Y-36218583D01*
X132830057Y-36260855D01*
X132405022Y-36345400D01*
X131754978Y-36345400D01*
X131329943Y-36260855D01*
X131117425Y-36218583D01*
X130516862Y-35969821D01*
X129976373Y-35608678D01*
X129516722Y-35149027D01*
X129155579Y-34608538D01*
X128906817Y-34007975D01*
X128780000Y-33370420D01*
X128780000Y-32720380D01*
X128906817Y-32082825D01*
X129155579Y-31482262D01*
X129516722Y-30941773D01*
X129976373Y-30482122D01*
X130516862Y-30120979D01*
X131117425Y-29872217D01*
X131329943Y-29829945D01*
X131754978Y-29745400D01*
X132405022Y-29745400D01*
X132830057Y-29829945D01*
X132830057Y-29829945D01*
G37*
G36*
X219113857Y-29423545D02*
G01*
X219326375Y-29465817D01*
X219926938Y-29714579D01*
X220467427Y-30075722D01*
X220927078Y-30535373D01*
X221288221Y-31075862D01*
X221536983Y-31676425D01*
X221663800Y-32313980D01*
X221663800Y-32964020D01*
X221536983Y-33601575D01*
X221288221Y-34202138D01*
X220927078Y-34742627D01*
X220467427Y-35202278D01*
X219926938Y-35563421D01*
X219326375Y-35812183D01*
X219113857Y-35854455D01*
X218688822Y-35939000D01*
X218038778Y-35939000D01*
X217613743Y-35854455D01*
X217401225Y-35812183D01*
X216800662Y-35563421D01*
X216260173Y-35202278D01*
X215800522Y-34742627D01*
X215439379Y-34202138D01*
X215190617Y-33601575D01*
X215063800Y-32964020D01*
X215063800Y-32313980D01*
X215190617Y-31676425D01*
X215439379Y-31075862D01*
X215800522Y-30535373D01*
X216260173Y-30075722D01*
X216800662Y-29714579D01*
X217401225Y-29465817D01*
X217613743Y-29423545D01*
X218038778Y-29339000D01*
X218688822Y-29339000D01*
X219113857Y-29423545D01*
X219113857Y-29423545D01*
G37*
M02*
