M48
; DRILL file {KiCad (5.1.2)-1} date 05/11/2020 20:15:00
; FORMAT={-:-/ absolute / inch / decimal}
; #@! TF.CreationDate,2020-11-05T20:15:00+01:00
; #@! TF.GenerationSoftware,Kicad,Pcbnew,(5.1.2)-1
; #@! TF.FileFunction,Plated,1,2,PTH
FMAT,2
INCH
T1C0.0276
T2C0.0295
T3C0.0315
T4C0.0354
T5C0.0394
T6C0.0433
T7C0.0787
T8C0.1260
%
G90
G05
T1
X5.315Y-2.329
X5.322Y-3.083
X5.342Y-3.62
X5.429Y-2.389
X5.445Y-2.938
X5.485Y-2.393
X5.505Y-3.642
X5.699Y-3.509
X5.76Y-2.729
X5.779Y-3.107
X5.782Y-3.036
X5.783Y-2.555
X5.784Y-2.912
X5.7899Y-2.687
X5.887Y-2.407
X5.9037Y-2.7253
X5.911Y-2.783
X5.925Y-3.61
X5.926Y-2.978
X5.9715Y-3.61
X5.972Y-3.365
X5.989Y-2.47
X6.012Y-3.174
X6.018Y-3.61
X6.056Y-2.831
X6.074Y-2.373
X6.131Y-2.634
X6.151Y-3.153
X6.151Y-3.389
X6.18Y-2.836
X6.185Y-3.116
X6.219Y-3.079
X6.2835Y-3.3945
X6.304Y-3.058
X6.304Y-3.272
X6.339Y-2.867
X6.448Y-3.36
X6.476Y-3.207
X6.479Y-3.649
X6.514Y-2.208
X6.514Y-2.258
X6.694Y-2.216
X6.694Y-2.576
X6.698Y-3.396
X6.714Y-2.975
X6.7335Y-3.4495
X6.766Y-3.36
X6.786Y-3.208
X6.95Y-3.014
X6.98Y-3.65
X6.994Y-3.442
X6.996Y-3.208
X7.068Y-3.36
X7.068Y-3.398
X7.08Y-3.654
X7.087Y-3.208
X7.37Y-2.21
X7.615Y-3.157
X7.779Y-1.842
X7.89Y-2.4122
X8.07Y-2.224
X8.088Y-2.332
X8.226Y-2.224
X8.388Y-1.879
X8.3206Y-2.691
X8.3206Y-2.791
X8.3206Y-3.1949
X8.3206Y-3.291
X8.6206Y-2.691
X8.6206Y-2.791
X8.6206Y-3.1949
X8.6206Y-3.291
T2
X6.03Y-1.79
X6.08Y-1.74
X6.08Y-1.84
T3
X7.7706Y-3.051
X7.7706Y-3.151
X7.7706Y-3.251
X8.0706Y-3.051
X8.0706Y-3.151
X8.0706Y-3.251
X7.7706Y-2.681
X7.7706Y-2.781
X7.7706Y-2.881
X8.0706Y-2.681
X8.0706Y-2.781
X8.0706Y-2.881
T4
X8.068Y-3.43
X8.068Y-3.53
T5
X8.34Y-3.53
X8.44Y-3.53
X8.54Y-3.53
X8.64Y-3.53
X8.758Y-2.128
X8.758Y-2.228
X8.758Y-2.328
X7.891Y-1.584
X7.891Y-1.684
X7.891Y-1.784
X5.385Y-1.802
X5.6842Y-1.802
X8.046Y-1.997
X8.146Y-1.997
X8.246Y-1.997
X8.346Y-1.997
X8.446Y-1.997
X8.546Y-1.997
X5.1601Y-3.3577
X5.1601Y-3.4577
X5.401Y-3.298
X5.501Y-3.298
X5.601Y-3.298
X5.1601Y-2.1979
X5.1601Y-2.2979
X5.1601Y-2.3979
X5.1601Y-2.4979
X5.1601Y-2.5979
X5.1601Y-2.6979
X5.1601Y-2.7979
X5.1601Y-2.8979
X5.1601Y-2.9979
X5.1601Y-3.0979
T6
X7.5888Y-3.419
X7.5888Y-3.6749
X7.766Y-3.419
X7.766Y-3.6749
X7.5888Y-1.958
X7.5888Y-2.2139
X7.766Y-1.958
X7.766Y-2.2139
T7
X5.5694Y-4.2126
X8.404Y-4.2126
T8
X8.645Y-4.737
X8.597Y-1.285
X5.216Y-4.753
X5.2Y-1.301
T0
M30
